<?xml version="1.0" encoding="UTF-8" standalone="no"?>
<!-- Created with Inkscape (http://www.inkscape.org/) -->

<svg
   xmlns:dc="http://purl.org/dc/elements/1.1/"
   xmlns:cc="http://creativecommons.org/ns#"
   xmlns:rdf="http://www.w3.org/1999/02/22-rdf-syntax-ns#"
   xmlns:svg="http://www.w3.org/2000/svg"
   xmlns="http://www.w3.org/2000/svg"
   xmlns:sodipodi="http://sodipodi.sourceforge.net/DTD/sodipodi-0.dtd"
   xmlns:inkscape="http://www.inkscape.org/namespaces/inkscape"
   width="210mm"
   height="297mm"
   viewBox="0 0 210 297"
   version="1.1"
   id="svg8"
   inkscape:version="0.92.2 (5c3e80d, 2017-08-06)"
   sodipodi:docname="heikaicard.svg">
  <sodipodi:namedview
     id="base"
     pagecolor="#ffffff"
     bordercolor="#666666"
     borderopacity="1.0"
     inkscape:pageopacity="0.0"
     inkscape:pageshadow="2"
     inkscape:zoom="0.57848045"
     inkscape:cx="467.90522"
     inkscape:cy="560"
     inkscape:document-units="mm"
     inkscape:current-layer="layer1"
     showgrid="false"
     inkscape:window-width="1400"
     inkscape:window-height="1003"
     inkscape:window-x="0"
     inkscape:window-y="0"
     inkscape:window-maximized="1" />
  <defs
     id="defs2">
    <marker
       inkscape:stockid="Arrow1Lend"
       orient="auto"
       refY="0.0"
       refX="0.0"
       id="marker2924"
       style="overflow:visible;"
       inkscape:isstock="true">
      <path
         id="path2922"
         d="M 0.0,0.0 L 5.0,-5.0 L -12.5,0.0 L 5.0,5.0 L 0.0,0.0 z "
         style="fill-rule:evenodd;stroke:#000000;stroke-width:1pt;stroke-opacity:1;fill:#000000;fill-opacity:1"
         transform="scale(0.8) rotate(180) translate(12.5,0)" />
    </marker>
    <marker
       inkscape:isstock="true"
       style="overflow:visible;"
       id="marker2888"
       refX="0.0"
       refY="0.0"
       orient="auto"
       inkscape:stockid="Arrow1Lend"
       inkscape:collect="always">
      <path
         transform="scale(0.8) rotate(180) translate(12.5,0)"
         style="fill-rule:evenodd;stroke:#000000;stroke-width:1pt;stroke-opacity:1;fill:#000000;fill-opacity:1"
         d="M 0.0,0.0 L 5.0,-5.0 L -12.5,0.0 L 5.0,5.0 L 0.0,0.0 z "
         id="path2886" />
    </marker>
    <marker
       inkscape:stockid="Arrow1Lend"
       orient="auto"
       refY="0.0"
       refX="0.0"
       id="marker2744"
       style="overflow:visible;"
       inkscape:isstock="true"
       inkscape:collect="always">
      <path
         id="path2742"
         d="M 0.0,0.0 L 5.0,-5.0 L -12.5,0.0 L 5.0,5.0 L 0.0,0.0 z "
         style="fill-rule:evenodd;stroke:#000000;stroke-width:1pt;stroke-opacity:1;fill:#000000;fill-opacity:1"
         transform="scale(0.8) rotate(180) translate(12.5,0)" />
    </marker>
    <marker
       inkscape:stockid="Arrow1Lend"
       orient="auto"
       refY="0.0"
       refX="0.0"
       id="marker2708"
       style="overflow:visible;"
       inkscape:isstock="true">
      <path
         id="path2706"
         d="M 0.0,0.0 L 5.0,-5.0 L -12.5,0.0 L 5.0,5.0 L 0.0,0.0 z "
         style="fill-rule:evenodd;stroke:#000000;stroke-width:1pt;stroke-opacity:1;fill:#000000;fill-opacity:1"
         transform="scale(0.8) rotate(180) translate(12.5,0)" />
    </marker>
    <marker
       inkscape:isstock="true"
       style="overflow:visible;"
       id="marker1586"
       refX="0.0"
       refY="0.0"
       orient="auto"
       inkscape:stockid="Arrow1Lend"
       inkscape:collect="always">
      <path
         transform="scale(0.8) rotate(180) translate(12.5,0)"
         style="fill-rule:evenodd;stroke:#000000;stroke-width:1pt;stroke-opacity:1;fill:#000000;fill-opacity:1"
         d="M 0.0,0.0 L 5.0,-5.0 L -12.5,0.0 L 5.0,5.0 L 0.0,0.0 z "
         id="path1584" />
    </marker>
    <marker
       inkscape:isstock="true"
       style="overflow:visible;"
       id="marker1140"
       refX="0.0"
       refY="0.0"
       orient="auto"
       inkscape:stockid="Arrow1Lend">
      <path
         transform="scale(0.8) rotate(180) translate(12.5,0)"
         style="fill-rule:evenodd;stroke:#000000;stroke-width:1pt;stroke-opacity:1;fill:#000000;fill-opacity:1"
         d="M 0.0,0.0 L 5.0,-5.0 L -12.5,0.0 L 5.0,5.0 L 0.0,0.0 z "
         id="path1138" />
    </marker>
    <marker
       inkscape:stockid="Arrow1Lend"
       orient="auto"
       refY="0.0"
       refX="0.0"
       id="Arrow1Lend"
       style="overflow:visible;"
       inkscape:isstock="true"
       inkscape:collect="always">
      <path
         id="path839"
         d="M 0.0,0.0 L 5.0,-5.0 L -12.5,0.0 L 5.0,5.0 L 0.0,0.0 z "
         style="fill-rule:evenodd;stroke:#000000;stroke-width:1pt;stroke-opacity:1;fill:#000000;fill-opacity:1"
         transform="scale(0.8) rotate(180) translate(12.5,0)" />
    </marker>
  </defs>
  <metadata
     id="metadata5">
    <rdf:RDF>
      <cc:Work
         rdf:about="">
        <dc:format>image/svg+xml</dc:format>
        <dc:type
           rdf:resource="http://purl.org/dc/dcmitype/StillImage" />
        <dc:title></dc:title>
      </cc:Work>
    </rdf:RDF>
  </metadata>
  <g
     inkscape:label="レイヤー 1"
     inkscape:groupmode="layer"
     id="layer1">
    <path
       style="fill:none;stroke:#000000;stroke-width:0.565;stroke-linecap:butt;stroke-linejoin:miter;stroke-opacity:1;stroke-miterlimit:4;stroke-dasharray:none;marker-end:url(#Arrow1Lend)"
       d="M 16.465552,188.1444 H 198.50137"
       id="path834"
       inkscape:connector-curvature="0" />
    <path
       style="fill:none;stroke:#000000;stroke-width:0.54325038;stroke-linecap:butt;stroke-linejoin:miter;stroke-miterlimit:4;stroke-dasharray:none;stroke-opacity:1"
       d="m 59.001561,184.4136 v 7.77539"
       id="path1544"
       inkscape:connector-curvature="0" />
    <path
       inkscape:connector-curvature="0"
       id="path1546"
       d="m 151.60608,184.4136 v 7.77539"
       style="fill:none;stroke:#000000;stroke-width:0.54325038;stroke-linecap:butt;stroke-linejoin:miter;stroke-miterlimit:4;stroke-dasharray:none;stroke-opacity:1" />
    <path
       inkscape:connector-curvature="0"
       id="path1578"
       d="M 16.465552,129.93572 H 198.50137"
       style="fill:none;stroke:#000000;stroke-width:0.565;stroke-linecap:butt;stroke-linejoin:miter;stroke-miterlimit:4;stroke-dasharray:none;stroke-opacity:1;marker-end:url(#marker1586)" />
    <path
       inkscape:connector-curvature="0"
       id="path1580"
       d="m 59.001561,126.20492 v 7.77539"
       style="fill:none;stroke:#000000;stroke-width:0.54325038;stroke-linecap:butt;stroke-linejoin:miter;stroke-miterlimit:4;stroke-dasharray:none;stroke-opacity:1" />
    <path
       style="fill:none;stroke:#000000;stroke-width:0.54325038;stroke-linecap:butt;stroke-linejoin:miter;stroke-miterlimit:4;stroke-dasharray:none;stroke-opacity:1"
       d="m 151.60608,126.20492 v 7.77539"
       id="path1582"
       inkscape:connector-curvature="0" />
    <path
       style="fill:#f7f7f7;fill-opacity:1;stroke:#000000;stroke-width:0.23017646;stroke-miterlimit:4;stroke-dasharray:none;stroke-dashoffset:0;stroke-opacity:1"
       id="path1732"
       sodipodi:type="arc"
       sodipodi:cx="151.68069"
       sodipodi:cy="130.11363"
       sodipodi:rx="1.6008174"
       sodipodi:ry="1.6008174"
       sodipodi:start="5.374148"
       sodipodi:end="5.3552461"
       sodipodi:open="true"
       d="m 152.66441,128.85073 a 1.6008174,1.6008174 0 0 1 0.28382,2.24063 1.6008174,1.6008174 0 0 1 -2.23927,0.29442 1.6008174,1.6008174 0 0 1 -0.30499,-2.23786 1.6008174,1.6008174 0 0 1 2.23639,-0.31556" />
    <path
       d="m 152.66441,187.05828 a 1.6008174,1.6008174 0 0 1 0.28382,2.24063 1.6008174,1.6008174 0 0 1 -2.23927,0.29442 1.6008174,1.6008174 0 0 1 -0.30499,-2.23786 1.6008174,1.6008174 0 0 1 2.23639,-0.31556"
       sodipodi:open="true"
       sodipodi:end="5.3552461"
       sodipodi:start="5.374148"
       sodipodi:ry="1.6008174"
       sodipodi:rx="1.6008174"
       sodipodi:cy="188.32118"
       sodipodi:cx="151.68069"
       sodipodi:type="arc"
       id="path1734"
       style="fill:#010101;fill-opacity:1;stroke:none;stroke-width:0.23017646;stroke-miterlimit:4;stroke-dasharray:none;stroke-dashoffset:0;stroke-opacity:1" />
    <path
       style="fill:#fefefe;fill-opacity:1;stroke:#000000;stroke-width:0.23017646;stroke-miterlimit:4;stroke-dasharray:none;stroke-dashoffset:0;stroke-opacity:1"
       id="path1736"
       sodipodi:type="arc"
       sodipodi:cx="59.076843"
       sodipodi:cy="188.32118"
       sodipodi:rx="1.6008174"
       sodipodi:ry="1.6008174"
       sodipodi:start="5.374148"
       sodipodi:end="5.3552461"
       sodipodi:open="true"
       d="m 60.060554,187.05828 a 1.6008174,1.6008174 0 0 1 0.283829,2.24063 1.6008174,1.6008174 0 0 1 -2.239271,0.29442 1.6008174,1.6008174 0 0 1 -0.304992,-2.23786 1.6008174,1.6008174 0 0 1 2.236389,-0.31556" />
    <path
       d="m 60.060554,128.85073 a 1.6008174,1.6008174 0 0 1 0.283829,2.24063 1.6008174,1.6008174 0 0 1 -2.239271,0.29442 1.6008174,1.6008174 0 0 1 -0.304992,-2.23786 1.6008174,1.6008174 0 0 1 2.236389,-0.31556"
       sodipodi:open="true"
       sodipodi:end="5.3552461"
       sodipodi:start="5.374148"
       sodipodi:ry="1.6008174"
       sodipodi:rx="1.6008174"
       sodipodi:cy="130.11363"
       sodipodi:cx="59.076843"
       sodipodi:type="arc"
       id="path1738"
       style="fill:#fefefe;fill-opacity:1;stroke:#000000;stroke-width:0.23017646;stroke-miterlimit:4;stroke-dasharray:none;stroke-dashoffset:0;stroke-opacity:1" />
    <g
       transform="translate(-28.599344,107.02609)"
       id="g1781">
      <g
         style="font-style:normal;font-variant:normal;font-weight:normal;font-stretch:normal;letter-spacing:normal;word-spacing:normal;text-anchor:start;fill:none;fill-opacity:1;fill-rule:evenodd;stroke:#000000;stroke-linecap:butt;stroke-linejoin:miter;stroke-miterlimit:10.43299961;stroke-dasharray:none;stroke-dashoffset:0;stroke-opacity:1"
         id="content"
         transform="matrix(0.3,0,0,-0.3,-52.5,222.75)"
         xml:space="preserve"
         stroke-miterlimit="10.433"
         font-style="normal"
         font-variant="normal"
         font-weight="normal"
         font-stretch="normal"
         font-size-adjust="none"
         letter-spacing="normal"
         word-spacing="normal"><path
           style="fill:#000000;stroke-width:0"
           inkscape:connector-curvature="0"
           d="m 478.44,422.14 v 0.74 l -0.01,0.75 -0.02,0.75 -0.04,0.74 -0.04,0.75 -0.06,0.74 -0.08,0.74 -0.09,0.73 -0.12,0.73 -0.14,0.73 -0.16,0.72 -0.19,0.72 -0.21,0.72 -0.25,0.7 -0.28,0.7 -0.15,0.35 -0.16,0.34 c -2.28,4.8 -6.37,5.6 -8.47,5.6 -2.98,0 -6.62,-1.3 -8.67,-5.94 -1.59,-3.44 -1.84,-7.33 -1.84,-11.31 0,-3.74 0.2,-8.22 2.25,-12 2.14,-4.03 5.78,-5.03 8.22,-5.03 v 1.09 c -1.94,0 -4.89,1.25 -5.79,6.03 -0.54,2.98 -0.54,7.56 -0.54,10.52 0,3.18 0,6.46 0.4,9.15 0.94,5.94 4.68,6.38 5.93,6.38 1.64,0 4.93,-0.89 5.87,-5.83 0.5,-2.78 0.5,-6.58 0.5,-9.7 0,-3.75 0,-7.13 -0.55,-10.32 -0.75,-4.73 -3.59,-6.23 -5.82,-6.23 v 0 -1.09 c 2.68,0 6.46,1.04 8.67,5.78 1.59,3.43 1.84,7.31 1.84,11.25 z"
           id="path1778" /></g>    </g>
    <g
       id="g1833"
       transform="translate(-28.348272,22.342088)">
      <g
         word-spacing="normal"
         letter-spacing="normal"
         font-size-adjust="none"
         font-stretch="normal"
         font-weight="normal"
         font-variant="normal"
         font-style="normal"
         stroke-miterlimit="10.433"
         xml:space="preserve"
         transform="matrix(0.3,0,0,-0.3,-52.5,222.75)"
         id="g1831"
         style="font-style:normal;font-variant:normal;font-weight:normal;font-stretch:normal;letter-spacing:normal;word-spacing:normal;text-anchor:start;fill:none;fill-opacity:1;fill-rule:evenodd;stroke:#000000;stroke-linecap:butt;stroke-linejoin:miter;stroke-miterlimit:10.43299961;stroke-dasharray:none;stroke-dashoffset:0;stroke-opacity:1"><path
           id="path1829"
           d="m 478.44,422.14 v 0.74 l -0.01,0.75 -0.02,0.75 -0.04,0.74 -0.04,0.75 -0.06,0.74 -0.08,0.74 -0.09,0.73 -0.12,0.73 -0.14,0.73 -0.16,0.72 -0.19,0.72 -0.21,0.72 -0.25,0.7 -0.28,0.7 -0.15,0.35 -0.16,0.34 c -2.28,4.8 -6.37,5.6 -8.47,5.6 -2.98,0 -6.62,-1.3 -8.67,-5.94 -1.59,-3.44 -1.84,-7.33 -1.84,-11.31 0,-3.74 0.2,-8.22 2.25,-12 2.14,-4.03 5.78,-5.03 8.22,-5.03 v 1.09 c -1.94,0 -4.89,1.25 -5.79,6.03 -0.54,2.98 -0.54,7.56 -0.54,10.52 0,3.18 0,6.46 0.4,9.15 0.94,5.94 4.68,6.38 5.93,6.38 1.64,0 4.93,-0.89 5.87,-5.83 0.5,-2.78 0.5,-6.58 0.5,-9.7 0,-3.75 0,-7.13 -0.55,-10.32 -0.75,-4.73 -3.59,-6.23 -5.82,-6.23 v 0 -1.09 c 2.68,0 6.46,1.04 8.67,5.78 1.59,3.43 1.84,7.31 1.84,11.25 z"
           inkscape:connector-curvature="0"
           style="fill:#000000;stroke-width:0" /></g>    </g>
    <g
       transform="translate(63.834915,23.134088)"
       id="g1891">
      <g
         style="font-style:normal;font-variant:normal;font-weight:normal;font-stretch:normal;letter-spacing:normal;word-spacing:normal;text-anchor:start;fill:none;fill-opacity:1;fill-rule:evenodd;stroke:#000000;stroke-linecap:butt;stroke-linejoin:miter;stroke-miterlimit:10.43299961;stroke-dasharray:none;stroke-dashoffset:0;stroke-opacity:1"
         id="g1889"
         transform="matrix(0.3,0,0,-0.3,-52.5,222.75)"
         xml:space="preserve"
         stroke-miterlimit="10.433"
         font-style="normal"
         font-variant="normal"
         font-weight="normal"
         font-stretch="normal"
         font-size-adjust="none"
         letter-spacing="normal"
         word-spacing="normal"><path
           style="fill:#000000;stroke-width:0"
           inkscape:connector-curvature="0"
           d="m 470.16,438.09 v 0.05 0.06 0.05 0.05 0.05 0.05 0.04 0.05 0.04 0.04 l -0.01,0.04 v 0.04 0.04 0.03 0.04 l -0.01,0.03 -0.01,0.07 v 0.06 l -0.02,0.05 -0.01,0.05 -0.02,0.05 -0.02,0.04 -0.02,0.04 -0.02,0.03 -0.03,0.03 -0.03,0.03 -0.04,0.03 -0.04,0.02 -0.04,0.02 -0.03,0.01 -0.02,0.01 h -0.03 l -0.02,0.01 -0.03,0.01 h -0.03 l -0.03,0.01 h -0.03 l -0.04,0.01 h -0.03 -0.04 l -0.03,0.01 h -0.04 -0.04 -0.05 -0.04 -0.04 l -0.05,0.01 h -0.05 -0.05 -0.05 -0.05 c -3.09,-3.19 -7.47,-3.19 -9.06,-3.19 v -1.55 c 1,0 3.93,0 6.51,1.3 v -25.81 c 0,-1.8 -0.14,-2.39 -4.62,-2.39 h -1.6 v -1.55 c 1.75,0.16 6.08,0.16 8.07,0.16 2,0 6.32,0 8.07,-0.16 v 1.55 h -1.59 c -4.48,0 -4.64,0.54 -4.64,2.39 z"
           id="path1887" /></g>    </g>
    <g
       id="g1955"
       transform="translate(63.635913,104.98652)">
      <g
         word-spacing="normal"
         letter-spacing="normal"
         font-size-adjust="none"
         font-stretch="normal"
         font-weight="normal"
         font-variant="normal"
         font-style="normal"
         stroke-miterlimit="10.433"
         xml:space="preserve"
         transform="matrix(0.3,0,0,-0.3,-52.5,222.75)"
         id="g1953"
         style="font-style:normal;font-variant:normal;font-weight:normal;font-stretch:normal;letter-spacing:normal;word-spacing:normal;text-anchor:start;fill:none;fill-opacity:1;fill-rule:evenodd;stroke:#000000;stroke-linecap:butt;stroke-linejoin:miter;stroke-miterlimit:10.43299961;stroke-dasharray:none;stroke-dashoffset:0;stroke-opacity:1"><path
           id="path1951"
           d="m 470.16,438.09 v 0.05 0.06 0.05 0.05 0.05 0.05 0.04 0.05 0.04 0.04 l -0.01,0.04 v 0.04 0.04 0.03 0.04 l -0.01,0.03 -0.01,0.07 v 0.06 l -0.02,0.05 -0.01,0.05 -0.02,0.05 -0.02,0.04 -0.02,0.04 -0.02,0.03 -0.03,0.03 -0.03,0.03 -0.04,0.03 -0.04,0.02 -0.04,0.02 -0.03,0.01 -0.02,0.01 h -0.03 l -0.02,0.01 -0.03,0.01 h -0.03 l -0.03,0.01 h -0.03 l -0.04,0.01 h -0.03 -0.04 l -0.03,0.01 h -0.04 -0.04 -0.05 -0.04 -0.04 l -0.05,0.01 h -0.05 -0.05 -0.05 -0.05 c -3.09,-3.19 -7.47,-3.19 -9.06,-3.19 v -1.55 c 1,0 3.93,0 6.51,1.3 v -25.81 c 0,-1.8 -0.14,-2.39 -4.62,-2.39 h -1.6 v -1.55 c 1.75,0.16 6.08,0.16 8.07,0.16 2,0 6.32,0 8.07,-0.16 v 1.55 h -1.59 c -4.48,0 -4.64,0.54 -4.64,2.39 z"
           inkscape:connector-curvature="0"
           style="fill:#000000;stroke-width:0" /></g>    </g>
    <path
       inkscape:connector-curvature="0"
       id="path1990"
       d="m 85.989081,184.4136 v 7.77539"
       style="fill:none;stroke:#000000;stroke-width:0.54325038;stroke-linecap:butt;stroke-linejoin:miter;stroke-miterlimit:4;stroke-dasharray:none;stroke-opacity:1" />
    <path
       style="fill:none;stroke:#000000;stroke-width:0.54325038;stroke-linecap:butt;stroke-linejoin:miter;stroke-miterlimit:4;stroke-dasharray:none;stroke-opacity:1"
       d="m 73.81824,126.2049 v 7.77539"
       id="path1992"
       inkscape:connector-curvature="0" />
    <path
       inkscape:connector-curvature="0"
       id="path1994"
       d="m 109.80165,126.2049 v 7.77539"
       style="fill:none;stroke:#000000;stroke-width:0.54325038;stroke-linecap:butt;stroke-linejoin:miter;stroke-miterlimit:4;stroke-dasharray:none;stroke-opacity:1" />
    <path
       style="fill:none;stroke:#000000;stroke-width:0.54325038;stroke-linecap:butt;stroke-linejoin:miter;stroke-miterlimit:4;stroke-dasharray:none;stroke-opacity:1"
       d="m 73.289073,184.4136 v 7.77539"
       id="path1996"
       inkscape:connector-curvature="0" />
    <path
       inkscape:connector-curvature="0"
       id="path1998"
       d="m 110.33082,184.4136 v 7.77539"
       style="fill:none;stroke:#000000;stroke-width:0.54325038;stroke-linecap:butt;stroke-linejoin:miter;stroke-miterlimit:4;stroke-dasharray:none;stroke-opacity:1" />
    <path
       style="fill:none;stroke:#000000;stroke-width:0.54325038;stroke-linecap:butt;stroke-linejoin:miter;stroke-miterlimit:4;stroke-dasharray:none;stroke-opacity:1"
       d="m 85.989081,126.2049 v 7.77539"
       id="path2000"
       inkscape:connector-curvature="0" />
    <g
       transform="translate(19.10537,17.396712)"
       id="g2047">
      <g
         style="font-style:normal;font-variant:normal;font-weight:normal;font-stretch:normal;letter-spacing:normal;word-spacing:normal;text-anchor:start;fill:none;fill-opacity:1;fill-rule:evenodd;stroke:#000000;stroke-linecap:butt;stroke-linejoin:miter;stroke-miterlimit:10.43299961;stroke-dasharray:none;stroke-dashoffset:0;stroke-opacity:1"
         id="g2045"
         transform="matrix(0.3,0,0,-0.3,-52.5,222.75)"
         xml:space="preserve"
         stroke-miterlimit="10.433"
         font-style="normal"
         font-variant="normal"
         font-weight="normal"
         font-stretch="normal"
         font-size-adjust="none"
         letter-spacing="normal"
         word-spacing="normal"><path
           style="fill:#000000;stroke-width:0"
           inkscape:connector-curvature="0"
           d="m 480.03,447.92 v 0.04 0.04 0.05 0.04 0.03 0.04 0.04 0.03 l -0.01,0.04 v 0.03 0.03 0.03 0.03 l -0.01,0.03 v 0.03 0.02 L 480,448.5 v 0.02 l -0.01,0.03 v 0.02 l -0.02,0.04 -0.01,0.04 -0.02,0.03 -0.02,0.03 -0.02,0.03 -0.02,0.03 -0.03,0.02 -0.03,0.02 -0.03,0.02 -0.04,0.01 -0.04,0.01 -0.05,0.02 h -0.02 -0.02 l -0.03,0.01 h -0.03 l -0.02,0.01 h -0.03 -0.03 -0.03 -0.04 l -0.03,0.01 h -0.03 -0.04 -0.03 -0.04 -0.04 -0.04 -0.04 -0.05 -0.04 -0.05 c -2.23,-2.2 -5.39,-2.23 -6.82,-2.23 v -1.25 c 0.84,0 3.14,0 5.04,0.97 v -17.77 c 0,-1.16 0,-1.61 -3.48,-1.61 h -1.31 v -1.25 c 0.62,0.03 4.9,0.14 6.2,0.14 1.08,0 5.47,-0.11 6.23,-0.14 v 1.25 h -1.32 c -3.49,0 -3.49,0.45 -3.49,1.61 z"
           id="path2039" /><polyline
           style="fill:#000000;fill-rule:nonzero;stroke-width:0"
           points="462,418 495.48,418 495.48,420.04 462,420.04 "
           id="polyline2041" /><path
           style="fill:#000000;stroke-width:0"
           inkscape:connector-curvature="0"
           d="m 485.95,395.38 h -1.18 c -0.1,-0.76 -0.46,-2.83 -0.91,-3.17 -0.27,-0.2 -2.95,-0.2 -3.44,-0.2 H 474 c 3.66,3.23 4.88,4.2 6.97,5.84 2.58,2.06 4.98,4.22 4.98,7.53 0,4.22 -3.68,6.8 -8.15,6.8 -4.32,0 -7.25,-3.03 -7.25,-6.23 0,-1.79 1.5,-1.96 1.86,-1.96 0.82,0 1.84,0.6 1.84,1.85 0,0.62 -0.25,1.84 -2.06,1.84 1.08,2.47 3.45,3.23 5.09,3.23 3.49,0 5.3,-2.7 5.3,-5.53 0,-3.03 -2.16,-5.43 -3.28,-6.68 l -8.39,-8.3 c -0.36,-0.31 -0.36,-0.39 -0.36,-1.36 h 14.36 z"
           id="path2043" /></g>    </g>
    <g
       id="g2143"
       transform="translate(19.356987,105.03833)">
      <g
         word-spacing="normal"
         letter-spacing="normal"
         font-size-adjust="none"
         font-stretch="normal"
         font-weight="normal"
         font-variant="normal"
         font-style="normal"
         stroke-miterlimit="10.433"
         xml:space="preserve"
         transform="matrix(0.3,0,0,-0.3,-52.5,222.75)"
         id="g2141"
         style="font-style:normal;font-variant:normal;font-weight:normal;font-stretch:normal;letter-spacing:normal;word-spacing:normal;text-anchor:start;fill:none;fill-opacity:1;fill-rule:evenodd;stroke:#000000;stroke-linecap:butt;stroke-linejoin:miter;stroke-miterlimit:10.43299961;stroke-dasharray:none;stroke-dashoffset:0;stroke-opacity:1"><path
           id="path2135"
           d="m 480.03,447.92 v 0.04 0.04 0.05 0.04 0.03 0.04 0.04 0.03 l -0.01,0.04 v 0.03 0.03 0.03 0.03 l -0.01,0.03 v 0.03 0.02 L 480,448.5 v 0.02 l -0.01,0.03 v 0.02 l -0.02,0.04 -0.01,0.04 -0.02,0.03 -0.02,0.03 -0.02,0.03 -0.02,0.03 -0.03,0.02 -0.03,0.02 -0.03,0.02 -0.04,0.01 -0.04,0.01 -0.05,0.02 h -0.02 -0.02 l -0.03,0.01 h -0.03 l -0.02,0.01 h -0.03 -0.03 -0.03 -0.04 l -0.03,0.01 h -0.03 -0.04 -0.03 -0.04 -0.04 -0.04 -0.04 -0.05 -0.04 -0.05 c -2.23,-2.2 -5.39,-2.23 -6.82,-2.23 v -1.25 c 0.84,0 3.14,0 5.04,0.97 v -17.77 c 0,-1.16 0,-1.61 -3.48,-1.61 h -1.31 v -1.25 c 0.62,0.03 4.9,0.14 6.2,0.14 1.08,0 5.47,-0.11 6.23,-0.14 v 1.25 h -1.32 c -3.49,0 -3.49,0.45 -3.49,1.61 z"
           inkscape:connector-curvature="0"
           style="fill:#000000;stroke-width:0" /><polyline
           id="polyline2137"
           points="462,418 495.48,418 495.48,420.04 462,420.04 "
           style="fill:#000000;fill-rule:nonzero;stroke-width:0" /><path
           id="path2139"
           d="m 485.95,395.38 h -1.18 c -0.1,-0.76 -0.46,-2.83 -0.91,-3.17 -0.27,-0.2 -2.95,-0.2 -3.44,-0.2 H 474 c 3.66,3.23 4.88,4.2 6.97,5.84 2.58,2.06 4.98,4.22 4.98,7.53 0,4.22 -3.68,6.8 -8.15,6.8 -4.32,0 -7.25,-3.03 -7.25,-6.23 0,-1.79 1.5,-1.96 1.86,-1.96 0.82,0 1.84,0.6 1.84,1.85 0,0.62 -0.25,1.84 -2.06,1.84 1.08,2.47 3.45,3.23 5.09,3.23 3.49,0 5.3,-2.7 5.3,-5.53 0,-3.03 -2.16,-5.43 -3.28,-6.68 l -8.39,-8.3 c -0.36,-0.31 -0.36,-0.39 -0.36,-1.36 h 14.36 z"
           inkscape:connector-curvature="0"
           style="fill:#000000;stroke-width:0" /></g>    </g>
    <g
       transform="translate(-5.0514651,17.19734)"
       id="g2249">
      <g
         style="font-style:normal;font-variant:normal;font-weight:normal;font-stretch:normal;letter-spacing:normal;word-spacing:normal;text-anchor:start;fill:none;fill-opacity:1;fill-rule:evenodd;stroke:#000000;stroke-linecap:butt;stroke-linejoin:miter;stroke-miterlimit:10.43299961;stroke-dasharray:none;stroke-dashoffset:0;stroke-opacity:1"
         id="g2247"
         transform="matrix(0.3,0,0,-0.3,-52.5,222.75)"
         xml:space="preserve"
         stroke-miterlimit="10.433"
         font-style="normal"
         font-variant="normal"
         font-weight="normal"
         font-stretch="normal"
         font-size-adjust="none"
         letter-spacing="normal"
         word-spacing="normal"><path
           style="fill:#000000;stroke-width:0"
           inkscape:connector-curvature="0"
           d="m 480.03,447.92 v 0.04 0.04 0.05 0.04 0.03 0.04 0.04 0.03 l -0.01,0.04 v 0.03 0.03 0.03 0.03 l -0.01,0.03 v 0.03 0.02 L 480,448.5 v 0.02 l -0.01,0.03 v 0.02 l -0.02,0.04 -0.01,0.04 -0.02,0.03 -0.02,0.03 -0.02,0.03 -0.02,0.03 -0.03,0.02 -0.03,0.02 -0.03,0.02 -0.04,0.01 -0.04,0.01 -0.05,0.02 h -0.02 -0.02 l -0.03,0.01 h -0.03 l -0.02,0.01 h -0.03 -0.03 -0.03 -0.04 l -0.03,0.01 h -0.03 -0.04 -0.03 -0.04 -0.04 -0.04 -0.04 -0.05 -0.04 -0.05 c -2.23,-2.2 -5.39,-2.23 -6.82,-2.23 v -1.25 c 0.84,0 3.14,0 5.04,0.97 v -17.77 c 0,-1.16 0,-1.61 -3.48,-1.61 h -1.31 v -1.25 c 0.62,0.03 4.9,0.14 6.2,0.14 1.08,0 5.47,-0.11 6.23,-0.14 v 1.25 h -1.32 c -3.49,0 -3.49,0.45 -3.49,1.61 z"
           id="path2241" /><polyline
           style="fill:#000000;fill-rule:nonzero;stroke-width:0"
           points="462,418 495.48,418 495.48,420.04 462,420.04 "
           id="polyline2243" /><path
           style="fill:#000000;stroke-width:0"
           inkscape:connector-curvature="0"
           d="m 486.8,394.76 v 1.25 h -3.88 v 15.54 c 0,0.72 0,0.97 -0.76,0.97 -0.43,0 -0.57,0 -0.91,-0.48 l -11.53,-16.03 v -1.25 h 10.25 l 0.23,1.25 H 471 l 9.2,12.75 v -12.75 l -0.23,-1.25 v -2.86 c 0,-1.19 0,-1.61 -2.83,-1.61 h -0.94 v -1.25 c 1.74,0.06 3.97,0.14 5.22,0.14 1.3,0 3.52,-0.08 5.27,-0.14 v 1.25 h -0.94 c -2.83,0 -2.83,0.42 -2.83,1.61 v 2.86 z"
           id="path2245" /></g>    </g>
    <g
       id="g2365"
       transform="translate(-5.08326,105.14913)">
      <g
         word-spacing="normal"
         letter-spacing="normal"
         font-size-adjust="none"
         font-stretch="normal"
         font-weight="normal"
         font-variant="normal"
         font-style="normal"
         stroke-miterlimit="10.433"
         xml:space="preserve"
         transform="matrix(0.3,0,0,-0.3,-52.5,222.75)"
         id="g2363"
         style="font-style:normal;font-variant:normal;font-weight:normal;font-stretch:normal;letter-spacing:normal;word-spacing:normal;text-anchor:start;fill:none;fill-opacity:1;fill-rule:evenodd;stroke:#000000;stroke-linecap:butt;stroke-linejoin:miter;stroke-miterlimit:10.43299961;stroke-dasharray:none;stroke-dashoffset:0;stroke-opacity:1"><path
           id="path2357"
           d="m 480.03,447.92 v 0.04 0.04 0.05 0.04 0.03 0.04 0.04 0.03 l -0.01,0.04 v 0.03 0.03 0.03 0.03 l -0.01,0.03 v 0.03 0.02 L 480,448.5 v 0.02 l -0.01,0.03 v 0.02 l -0.02,0.04 -0.01,0.04 -0.02,0.03 -0.02,0.03 -0.02,0.03 -0.02,0.03 -0.03,0.02 -0.03,0.02 -0.03,0.02 -0.04,0.01 -0.04,0.01 -0.05,0.02 h -0.02 -0.02 l -0.03,0.01 h -0.03 l -0.02,0.01 h -0.03 -0.03 -0.03 -0.04 l -0.03,0.01 h -0.03 -0.04 -0.03 -0.04 -0.04 -0.04 -0.04 -0.05 -0.04 -0.05 c -2.23,-2.2 -5.39,-2.23 -6.82,-2.23 v -1.25 c 0.84,0 3.14,0 5.04,0.97 v -17.77 c 0,-1.16 0,-1.61 -3.48,-1.61 h -1.31 v -1.25 c 0.62,0.03 4.9,0.14 6.2,0.14 1.08,0 5.47,-0.11 6.23,-0.14 v 1.25 h -1.32 c -3.49,0 -3.49,0.45 -3.49,1.61 z"
           inkscape:connector-curvature="0"
           style="fill:#000000;stroke-width:0" /><polyline
           id="polyline2359"
           points="462,418 495.48,418 495.48,420.04 462,420.04 "
           style="fill:#000000;fill-rule:nonzero;stroke-width:0" /><path
           id="path2361"
           d="m 486.8,394.76 v 1.25 h -3.88 v 15.54 c 0,0.72 0,0.97 -0.76,0.97 -0.43,0 -0.57,0 -0.91,-0.48 l -11.53,-16.03 v -1.25 h 10.25 l 0.23,1.25 H 471 l 9.2,12.75 v -12.75 l -0.23,-1.25 v -2.86 c 0,-1.19 0,-1.61 -2.83,-1.61 h -0.94 v -1.25 c 1.74,0.06 3.97,0.14 5.22,0.14 1.3,0 3.52,-0.08 5.27,-0.14 v 1.25 h -0.94 c -2.83,0 -2.83,0.42 -2.83,1.61 v 2.86 z"
           inkscape:connector-curvature="0"
           style="fill:#000000;stroke-width:0" /></g>    </g>
    <g
       transform="translate(-16.483632,17.290169)"
       id="g2491">
      <g
         style="font-style:normal;font-variant:normal;font-weight:normal;font-stretch:normal;letter-spacing:normal;word-spacing:normal;text-anchor:start;fill:none;fill-opacity:1;fill-rule:evenodd;stroke:#000000;stroke-linecap:butt;stroke-linejoin:miter;stroke-miterlimit:10.43299961;stroke-dasharray:none;stroke-dashoffset:0;stroke-opacity:1"
         id="g2489"
         transform="matrix(0.3,0,0,-0.3,-52.5,222.75)"
         xml:space="preserve"
         stroke-miterlimit="10.433"
         font-style="normal"
         font-variant="normal"
         font-weight="normal"
         font-stretch="normal"
         font-size-adjust="none"
         letter-spacing="normal"
         word-spacing="normal"><path
           style="fill:#000000;stroke-width:0"
           inkscape:connector-curvature="0"
           d="m 480.03,447.92 v 0.04 0.04 0.05 0.04 0.03 0.04 0.04 0.03 l -0.01,0.04 v 0.03 0.03 0.03 0.03 l -0.01,0.03 v 0.03 0.02 L 480,448.5 v 0.02 l -0.01,0.03 v 0.02 l -0.02,0.04 -0.01,0.04 -0.02,0.03 -0.02,0.03 -0.02,0.03 -0.02,0.03 -0.03,0.02 -0.03,0.02 -0.03,0.02 -0.04,0.01 -0.04,0.01 -0.05,0.02 h -0.02 -0.02 l -0.03,0.01 h -0.03 l -0.02,0.01 h -0.03 -0.03 -0.03 -0.04 l -0.03,0.01 h -0.03 -0.04 -0.03 -0.04 -0.04 -0.04 -0.04 -0.05 -0.04 -0.05 c -2.23,-2.2 -5.39,-2.23 -6.82,-2.23 v -1.25 c 0.84,0 3.14,0 5.04,0.97 v -17.77 c 0,-1.16 0,-1.61 -3.48,-1.61 h -1.31 v -1.25 c 0.62,0.03 4.9,0.14 6.2,0.14 1.08,0 5.47,-0.11 6.23,-0.14 v 1.25 h -1.32 c -3.49,0 -3.49,0.45 -3.49,1.61 z"
           id="path2483" /><polyline
           style="fill:#000000;fill-rule:nonzero;stroke-width:0"
           points="462,418 495.48,418 495.48,420.04 462,420.04 "
           id="polyline2485" /><path
           style="fill:#000000;stroke-width:0"
           inkscape:connector-curvature="0"
           d="m 480.73,401.62 0.26,0.12 0.24,0.13 0.24,0.13 0.24,0.13 0.22,0.13 0.22,0.14 0.22,0.14 0.21,0.14 0.2,0.14 0.19,0.15 0.19,0.15 0.18,0.15 0.17,0.15 0.16,0.16 0.16,0.16 0.15,0.16 0.14,0.16 0.13,0.17 0.13,0.18 0.12,0.17 0.1,0.18 0.1,0.18 0.09,0.19 0.08,0.19 0.08,0.19 0.06,0.2 0.05,0.2 0.05,0.2 0.03,0.21 0.03,0.22 0.01,0.22 0.01,0.22 c 0,3.39 -3.52,5.2 -6.89,5.2 l -0.08,-1.02 c 2.72,0 5.12,-1.7 5.12,-4.18 0,-3.1 -3.62,-4.66 -3.68,-4.66 -0.08,0 -0.14,0.03 -0.39,0.17 l -4.22,2.44 c -0.91,0.52 -1.88,1.47 -1.88,2.75 0,2.2 2.55,3.48 5.05,3.48 l 0.08,1.02 c -3.85,0 -6.97,-2.52 -6.97,-5.83 0,-1.62 0.76,-2.81 1.39,-3.51 0.62,-0.74 0.87,-0.88 2.92,-2.1 -1.95,-0.83 -5.41,-2.72 -5.41,-6.37 0,-3.86 4.02,-6.03 7.99,-6.03 l 0.08,1.12 c -3.22,0 -5.97,2.05 -5.97,4.91 0,2.58 1.92,4.56 4.42,5.72 v 0 l 4.78,-2.75 c 0.91,-0.54 2.64,-1.58 2.64,-3.63 0,-2.61 -2.89,-4.25 -5.87,-4.25 l -0.08,-1.12 c 4.42,0 8.05,2.82 8.05,6.59 0,2.3 -1.36,4.25 -3.38,5.44 -0.45,0.28 -1.67,0.97 -2.16,1.25 z"
           id="path2487" /></g>    </g>
    <g
       id="g2627"
       transform="translate(-17.900094,104.9435)">
      <g
         word-spacing="normal"
         letter-spacing="normal"
         font-size-adjust="none"
         font-stretch="normal"
         font-weight="normal"
         font-variant="normal"
         font-style="normal"
         stroke-miterlimit="10.433"
         xml:space="preserve"
         transform="matrix(0.3,0,0,-0.3,-52.5,222.75)"
         id="g2625"
         style="font-style:normal;font-variant:normal;font-weight:normal;font-stretch:normal;letter-spacing:normal;word-spacing:normal;text-anchor:start;fill:none;fill-opacity:1;fill-rule:evenodd;stroke:#000000;stroke-linecap:butt;stroke-linejoin:miter;stroke-miterlimit:10.43299961;stroke-dasharray:none;stroke-dashoffset:0;stroke-opacity:1"><path
           id="path2619"
           d="m 480.03,447.92 v 0.04 0.04 0.05 0.04 0.03 0.04 0.04 0.03 l -0.01,0.04 v 0.03 0.03 0.03 0.03 l -0.01,0.03 v 0.03 0.02 L 480,448.5 v 0.02 l -0.01,0.03 v 0.02 l -0.02,0.04 -0.01,0.04 -0.02,0.03 -0.02,0.03 -0.02,0.03 -0.02,0.03 -0.03,0.02 -0.03,0.02 -0.03,0.02 -0.04,0.01 -0.04,0.01 -0.05,0.02 h -0.02 -0.02 l -0.03,0.01 h -0.03 l -0.02,0.01 h -0.03 -0.03 -0.03 -0.04 l -0.03,0.01 h -0.03 -0.04 -0.03 -0.04 -0.04 -0.04 -0.04 -0.05 -0.04 -0.05 c -2.23,-2.2 -5.39,-2.23 -6.82,-2.23 v -1.25 c 0.84,0 3.14,0 5.04,0.97 v -17.77 c 0,-1.16 0,-1.61 -3.48,-1.61 h -1.31 v -1.25 c 0.62,0.03 4.9,0.14 6.2,0.14 1.08,0 5.47,-0.11 6.23,-0.14 v 1.25 h -1.32 c -3.49,0 -3.49,0.45 -3.49,1.61 z"
           inkscape:connector-curvature="0"
           style="fill:#000000;stroke-width:0" /><polyline
           id="polyline2621"
           points="462,418 495.48,418 495.48,420.04 462,420.04 "
           style="fill:#000000;fill-rule:nonzero;stroke-width:0" /><path
           id="path2623"
           d="m 480.73,401.62 0.26,0.12 0.24,0.13 0.24,0.13 0.24,0.13 0.22,0.13 0.22,0.14 0.22,0.14 0.21,0.14 0.2,0.14 0.19,0.15 0.19,0.15 0.18,0.15 0.17,0.15 0.16,0.16 0.16,0.16 0.15,0.16 0.14,0.16 0.13,0.17 0.13,0.18 0.12,0.17 0.1,0.18 0.1,0.18 0.09,0.19 0.08,0.19 0.08,0.19 0.06,0.2 0.05,0.2 0.05,0.2 0.03,0.21 0.03,0.22 0.01,0.22 0.01,0.22 c 0,3.39 -3.52,5.2 -6.89,5.2 l -0.08,-1.02 c 2.72,0 5.12,-1.7 5.12,-4.18 0,-3.1 -3.62,-4.66 -3.68,-4.66 -0.08,0 -0.14,0.03 -0.39,0.17 l -4.22,2.44 c -0.91,0.52 -1.88,1.47 -1.88,2.75 0,2.2 2.55,3.48 5.05,3.48 l 0.08,1.02 c -3.85,0 -6.97,-2.52 -6.97,-5.83 0,-1.62 0.76,-2.81 1.39,-3.51 0.62,-0.74 0.87,-0.88 2.92,-2.1 -1.95,-0.83 -5.41,-2.72 -5.41,-6.37 0,-3.86 4.02,-6.03 7.99,-6.03 l 0.08,1.12 c -3.22,0 -5.97,2.05 -5.97,4.91 0,2.58 1.92,4.56 4.42,5.72 v 0 l 4.78,-2.75 c 0.91,-0.54 2.64,-1.58 2.64,-3.63 0,-2.61 -2.89,-4.25 -5.87,-4.25 l -0.08,-1.12 c 4.42,0 8.05,2.82 8.05,6.59 0,2.3 -1.36,4.25 -3.38,5.44 -0.45,0.28 -1.67,0.97 -2.16,1.25 z"
           inkscape:connector-curvature="0"
           style="fill:#000000;stroke-width:0" /></g>    </g>
    <path
       style="fill:none;stroke:#000000;stroke-width:0.36500001;stroke-linecap:butt;stroke-linejoin:miter;stroke-miterlimit:4;stroke-dasharray:none;stroke-opacity:1;marker-end:url(#marker2708)"
       d="M 150.11701,182.53399 112.61218,135.03863"
       id="path2698"
       inkscape:connector-curvature="0" />
    <path
       style="fill:none;stroke:#000000;stroke-width:1.02400005;stroke-linecap:butt;stroke-linejoin:miter;stroke-miterlimit:4;stroke-dasharray:1.02400005, 3.07200014;stroke-dashoffset:0;stroke-opacity:1"
       d="m 109.96633,137.68448 v 44.61244"
       id="path2730"
       inkscape:connector-curvature="0" />
    <path
       inkscape:connector-curvature="0"
       id="path2732"
       d="m 86.153682,137.68448 v 44.61244"
       style="fill:none;stroke:#000000;stroke-width:1.02364051;stroke-linecap:butt;stroke-linejoin:miter;stroke-miterlimit:4;stroke-dasharray:1.02364047, 3.0709214;stroke-dashoffset:0;stroke-opacity:1" />
    <path
       style="fill:none;stroke:#000000;stroke-width:1.02364051;stroke-linecap:butt;stroke-linejoin:miter;stroke-miterlimit:4;stroke-dasharray:1.02364047, 3.0709214;stroke-dashoffset:0;stroke-opacity:1"
       d="m 73.982775,137.68448 v 44.61244"
       id="path2734"
       inkscape:connector-curvature="0" />
    <path
       style="fill:none;stroke:#000000;stroke-width:0.36500001;stroke-linecap:butt;stroke-linejoin:miter;stroke-miterlimit:4;stroke-dasharray:none;stroke-opacity:1;marker-end:url(#marker2744)"
       d="M 105.73297,179.65107 91.083052,139.30352"
       id="path2864"
       inkscape:connector-curvature="0" />
    <path
       style="fill:none;stroke:#000000;stroke-width:0.36500001;stroke-linecap:butt;stroke-linejoin:miter;stroke-miterlimit:4;stroke-dasharray:none;stroke-opacity:1;marker-end:url(#marker2888)"
       d="m 82.978662,178.59273 -5.47332,-39.26259"
       id="path2878"
       inkscape:connector-curvature="0" />
    <path
       style="fill:none;stroke:#000000;stroke-width:0.36500001;stroke-linecap:butt;stroke-linejoin:miter;stroke-miterlimit:4;stroke-dasharray:none;stroke-opacity:1;marker-end:url(#marker2924)"
       d="m 71.866092,178.59273 -2.9791,-35.3164"
       id="path2914"
       inkscape:connector-curvature="0" />
    <path
       style="fill:none;stroke:#000000;stroke-width:1.02364051;stroke-linecap:butt;stroke-linejoin:miter;stroke-miterlimit:4;stroke-dasharray:1.02364047, 3.0709214;stroke-dashoffset:0;stroke-opacity:1"
       d="m 66.574503,137.68448 v 44.61244"
       id="path945"
       inkscape:connector-curvature="0" />
  </g>
</svg>
