<?xml version="1.0" encoding="UTF-8" standalone="no"?>
<!-- Created with Inkscape (http://www.inkscape.org/) -->

<svg
   xmlns:dc="http://purl.org/dc/elements/1.1/"
   xmlns:cc="http://creativecommons.org/ns#"
   xmlns:rdf="http://www.w3.org/1999/02/22-rdf-syntax-ns#"
   xmlns:svg="http://www.w3.org/2000/svg"
   xmlns="http://www.w3.org/2000/svg"
   xmlns:sodipodi="http://sodipodi.sourceforge.net/DTD/sodipodi-0.dtd"
   xmlns:inkscape="http://www.inkscape.org/namespaces/inkscape"
   width="210mm"
   height="297mm"
   viewBox="0 0 210 297"
   version="1.1"
   id="svg8"
   inkscape:version="0.92.2 (5c3e80d, 2017-08-06)"
   sodipodi:docname="n2casan.svg">
  <sodipodi:namedview
     id="base"
     pagecolor="#ffffff"
     bordercolor="#666666"
     borderopacity="1.0"
     inkscape:pageopacity="0.0"
     inkscape:pageshadow="2"
     inkscape:zoom="0.78"
     inkscape:cx="336.25212"
     inkscape:cy="611.28205"
     inkscape:document-units="mm"
     inkscape:current-layer="layer1"
     showgrid="false"
     inkscape:window-width="1400"
     inkscape:window-height="1003"
     inkscape:window-x="0"
     inkscape:window-y="0"
     inkscape:window-maximized="1">
    <inkscape:grid
       type="xygrid"
       id="grid817" />
  </sodipodi:namedview>
  <defs
     id="defs2">
    <marker
       inkscape:stockid="Arrow1Lend"
       orient="auto"
       refY="0.0"
       refX="0.0"
       id="marker2291"
       style="overflow:visible;"
       inkscape:isstock="true">
      <path
         id="path2289"
         d="M 0.0,0.0 L 5.0,-5.0 L -12.5,0.0 L 5.0,5.0 L 0.0,0.0 z "
         style="fill-rule:evenodd;stroke:#000000;stroke-width:1pt;stroke-opacity:1;fill:#000000;fill-opacity:1"
         transform="scale(0.8) rotate(180) translate(12.5,0)" />
    </marker>
    <marker
       inkscape:collect="always"
       inkscape:isstock="true"
       style="overflow:visible;"
       id="marker2219"
       refX="0.0"
       refY="0.0"
       orient="auto"
       inkscape:stockid="Arrow1Lend">
      <path
         transform="scale(0.8) rotate(180) translate(12.5,0)"
         style="fill-rule:evenodd;stroke:#000000;stroke-width:1pt;stroke-opacity:1;fill:#000000;fill-opacity:1"
         d="M 0.0,0.0 L 5.0,-5.0 L -12.5,0.0 L 5.0,5.0 L 0.0,0.0 z "
         id="path2217" />
    </marker>
    <marker
       inkscape:stockid="Arrow1Lstart"
       orient="auto"
       refY="0.0"
       refX="0.0"
       id="marker2151"
       style="overflow:visible"
       inkscape:isstock="true">
      <path
         id="path2149"
         d="M 0.0,0.0 L 5.0,-5.0 L -12.5,0.0 L 5.0,5.0 L 0.0,0.0 z "
         style="fill-rule:evenodd;stroke:#000000;stroke-width:1pt;stroke-opacity:1;fill:#000000;fill-opacity:1"
         transform="scale(0.8) translate(12.5,0)" />
    </marker>
    <marker
       inkscape:collect="always"
       inkscape:stockid="Arrow1Lend"
       orient="auto"
       refY="0.0"
       refX="0.0"
       id="marker2083"
       style="overflow:visible;"
       inkscape:isstock="true">
      <path
         id="path2081"
         d="M 0.0,0.0 L 5.0,-5.0 L -12.5,0.0 L 5.0,5.0 L 0.0,0.0 z "
         style="fill-rule:evenodd;stroke:#000000;stroke-width:1pt;stroke-opacity:1;fill:#000000;fill-opacity:1"
         transform="scale(0.8) rotate(180) translate(12.5,0)" />
    </marker>
    <marker
       inkscape:collect="always"
       inkscape:isstock="true"
       style="overflow:visible"
       id="marker2019"
       refX="0.0"
       refY="0.0"
       orient="auto"
       inkscape:stockid="Arrow1Lstart">
      <path
         transform="scale(0.8) translate(12.5,0)"
         style="fill-rule:evenodd;stroke:#000000;stroke-width:1pt;stroke-opacity:1;fill:#000000;fill-opacity:1"
         d="M 0.0,0.0 L 5.0,-5.0 L -12.5,0.0 L 5.0,5.0 L 0.0,0.0 z "
         id="path2017" />
    </marker>
    <marker
       inkscape:stockid="Arrow1Lend"
       orient="auto"
       refY="0.0"
       refX="0.0"
       id="marker1959"
       style="overflow:visible;"
       inkscape:isstock="true">
      <path
         id="path1957"
         d="M 0.0,0.0 L 5.0,-5.0 L -12.5,0.0 L 5.0,5.0 L 0.0,0.0 z "
         style="fill-rule:evenodd;stroke:#000000;stroke-width:1pt;stroke-opacity:1;fill:#000000;fill-opacity:1"
         transform="scale(0.8) rotate(180) translate(12.5,0)" />
    </marker>
    <marker
       inkscape:stockid="Arrow1Lend"
       orient="auto"
       refY="0.0"
       refX="0.0"
       id="marker1901"
       style="overflow:visible;"
       inkscape:isstock="true">
      <path
         id="path1899"
         d="M 0.0,0.0 L 5.0,-5.0 L -12.5,0.0 L 5.0,5.0 L 0.0,0.0 z "
         style="fill-rule:evenodd;stroke:#000000;stroke-width:1pt;stroke-opacity:1;fill:#000000;fill-opacity:1"
         transform="scale(0.8) rotate(180) translate(12.5,0)" />
    </marker>
    <marker
       inkscape:collect="always"
       inkscape:isstock="true"
       style="overflow:visible;"
       id="marker1843"
       refX="0.0"
       refY="0.0"
       orient="auto"
       inkscape:stockid="Arrow1Lend">
      <path
         transform="scale(0.8) rotate(180) translate(12.5,0)"
         style="fill-rule:evenodd;stroke:#000000;stroke-width:1pt;stroke-opacity:1;fill:#000000;fill-opacity:1"
         d="M 0.0,0.0 L 5.0,-5.0 L -12.5,0.0 L 5.0,5.0 L 0.0,0.0 z "
         id="path1841" />
    </marker>
    <marker
       inkscape:collect="always"
       inkscape:stockid="Arrow1Lend"
       orient="auto"
       refY="0.0"
       refX="0.0"
       id="marker1785"
       style="overflow:visible;"
       inkscape:isstock="true">
      <path
         id="path1783"
         d="M 0.0,0.0 L 5.0,-5.0 L -12.5,0.0 L 5.0,5.0 L 0.0,0.0 z "
         style="fill-rule:evenodd;stroke:#000000;stroke-width:1pt;stroke-opacity:1;fill:#000000;fill-opacity:1"
         transform="scale(0.8) rotate(180) translate(12.5,0)" />
    </marker>
    <marker
       inkscape:collect="always"
       inkscape:isstock="true"
       style="overflow:visible;"
       id="marker1731"
       refX="0.0"
       refY="0.0"
       orient="auto"
       inkscape:stockid="Arrow1Lend">
      <path
         transform="scale(0.8) rotate(180) translate(12.5,0)"
         style="fill-rule:evenodd;stroke:#000000;stroke-width:1pt;stroke-opacity:1;fill:#000000;fill-opacity:1"
         d="M 0.0,0.0 L 5.0,-5.0 L -12.5,0.0 L 5.0,5.0 L 0.0,0.0 z "
         id="path1729" />
    </marker>
    <marker
       inkscape:collect="always"
       inkscape:stockid="Arrow1Lend"
       orient="auto"
       refY="0.0"
       refX="0.0"
       id="marker1679"
       style="overflow:visible;"
       inkscape:isstock="true">
      <path
         id="path1677"
         d="M 0.0,0.0 L 5.0,-5.0 L -12.5,0.0 L 5.0,5.0 L 0.0,0.0 z "
         style="fill-rule:evenodd;stroke:#000000;stroke-width:1pt;stroke-opacity:1;fill:#000000;fill-opacity:1"
         transform="scale(0.8) rotate(180) translate(12.5,0)" />
    </marker>
    <marker
       inkscape:collect="always"
       inkscape:isstock="true"
       style="overflow:visible;"
       id="marker1629"
       refX="0.0"
       refY="0.0"
       orient="auto"
       inkscape:stockid="Arrow1Lend">
      <path
         transform="scale(0.8) rotate(180) translate(12.5,0)"
         style="fill-rule:evenodd;stroke:#000000;stroke-width:1pt;stroke-opacity:1;fill:#000000;fill-opacity:1"
         d="M 0.0,0.0 L 5.0,-5.0 L -12.5,0.0 L 5.0,5.0 L 0.0,0.0 z "
         id="path1627" />
    </marker>
    <marker
       inkscape:collect="always"
       inkscape:stockid="Arrow1Lend"
       orient="auto"
       refY="0.0"
       refX="0.0"
       id="marker1581"
       style="overflow:visible;"
       inkscape:isstock="true">
      <path
         id="path1579"
         d="M 0.0,0.0 L 5.0,-5.0 L -12.5,0.0 L 5.0,5.0 L 0.0,0.0 z "
         style="fill-rule:evenodd;stroke:#000000;stroke-width:1pt;stroke-opacity:1;fill:#000000;fill-opacity:1"
         transform="scale(0.8) rotate(180) translate(12.5,0)" />
    </marker>
    <marker
       inkscape:collect="always"
       inkscape:isstock="true"
       style="overflow:visible;"
       id="marker3409"
       refX="0.0"
       refY="0.0"
       orient="auto"
       inkscape:stockid="Arrow1Lend">
      <path
         transform="scale(0.8) rotate(180) translate(12.5,0)"
         style="fill-rule:evenodd;stroke:#000000;stroke-width:1pt;stroke-opacity:1;fill:#000000;fill-opacity:1"
         d="M 0.0,0.0 L 5.0,-5.0 L -12.5,0.0 L 5.0,5.0 L 0.0,0.0 z "
         id="path3407" />
    </marker>
    <marker
       inkscape:stockid="Arrow1Lend"
       orient="auto"
       refY="0.0"
       refX="0.0"
       id="marker3095"
       style="overflow:visible;"
       inkscape:isstock="true"
       inkscape:collect="always">
      <path
         id="path3093"
         d="M 0.0,0.0 L 5.0,-5.0 L -12.5,0.0 L 5.0,5.0 L 0.0,0.0 z "
         style="fill-rule:evenodd;stroke:#000000;stroke-width:1pt;stroke-opacity:1;fill:#000000;fill-opacity:1"
         transform="scale(0.8) rotate(180) translate(12.5,0)" />
    </marker>
    <marker
       inkscape:isstock="true"
       style="overflow:visible;"
       id="marker2849"
       refX="0.0"
       refY="0.0"
       orient="auto"
       inkscape:stockid="Arrow1Lend"
       inkscape:collect="always">
      <path
         transform="scale(0.8) rotate(180) translate(12.5,0)"
         style="fill-rule:evenodd;stroke:#000000;stroke-width:1pt;stroke-opacity:1;fill:#000000;fill-opacity:1"
         d="M 0.0,0.0 L 5.0,-5.0 L -12.5,0.0 L 5.0,5.0 L 0.0,0.0 z "
         id="path2847" />
    </marker>
    <marker
       inkscape:isstock="true"
       style="overflow:visible;"
       id="marker2665"
       refX="0.0"
       refY="0.0"
       orient="auto"
       inkscape:stockid="Arrow1Lend">
      <path
         transform="scale(0.8) rotate(180) translate(12.5,0)"
         style="fill-rule:evenodd;stroke:#000000;stroke-width:1pt;stroke-opacity:1;fill:#000000;fill-opacity:1"
         d="M 0.0,0.0 L 5.0,-5.0 L -12.5,0.0 L 5.0,5.0 L 0.0,0.0 z "
         id="path2663" />
    </marker>
    <marker
       inkscape:stockid="Arrow1Lend"
       orient="auto"
       refY="0.0"
       refX="0.0"
       id="marker2417"
       style="overflow:visible;"
       inkscape:isstock="true">
      <path
         id="path2415"
         d="M 0.0,0.0 L 5.0,-5.0 L -12.5,0.0 L 5.0,5.0 L 0.0,0.0 z "
         style="fill-rule:evenodd;stroke:#000000;stroke-width:1pt;stroke-opacity:1;fill:#000000;fill-opacity:1"
         transform="scale(0.8) rotate(180) translate(12.5,0)" />
    </marker>
    <marker
       inkscape:isstock="true"
       style="overflow:visible;"
       id="marker2057"
       refX="0.0"
       refY="0.0"
       orient="auto"
       inkscape:stockid="Arrow1Lend"
       inkscape:collect="always">
      <path
         transform="scale(0.8) rotate(180) translate(12.5,0)"
         style="fill-rule:evenodd;stroke:#000000;stroke-width:1pt;stroke-opacity:1;fill:#000000;fill-opacity:1"
         d="M 0.0,0.0 L 5.0,-5.0 L -12.5,0.0 L 5.0,5.0 L 0.0,0.0 z "
         id="path2055" />
    </marker>
    <marker
       inkscape:stockid="Arrow1Lend"
       orient="auto"
       refY="0.0"
       refX="0.0"
       id="marker1825"
       style="overflow:visible;"
       inkscape:isstock="true"
       inkscape:collect="always">
      <path
         id="path1823"
         d="M 0.0,0.0 L 5.0,-5.0 L -12.5,0.0 L 5.0,5.0 L 0.0,0.0 z "
         style="fill-rule:evenodd;stroke:#000000;stroke-width:1pt;stroke-opacity:1;fill:#000000;fill-opacity:1"
         transform="scale(0.8) rotate(180) translate(12.5,0)" />
    </marker>
    <marker
       inkscape:isstock="true"
       style="overflow:visible;"
       id="marker1591"
       refX="0.0"
       refY="0.0"
       orient="auto"
       inkscape:stockid="Arrow1Lend"
       inkscape:collect="always">
      <path
         transform="scale(0.8) rotate(180) translate(12.5,0)"
         style="fill-rule:evenodd;stroke:#000000;stroke-width:1pt;stroke-opacity:1;fill:#000000;fill-opacity:1"
         d="M 0.0,0.0 L 5.0,-5.0 L -12.5,0.0 L 5.0,5.0 L 0.0,0.0 z "
         id="path1589" />
    </marker>
    <marker
       inkscape:isstock="true"
       style="overflow:visible;"
       id="marker1337"
       refX="0.0"
       refY="0.0"
       orient="auto"
       inkscape:stockid="Arrow1Lend"
       inkscape:collect="always">
      <path
         transform="scale(0.8) rotate(180) translate(12.5,0)"
         style="fill-rule:evenodd;stroke:#000000;stroke-width:1pt;stroke-opacity:1;fill:#000000;fill-opacity:1"
         d="M 0.0,0.0 L 5.0,-5.0 L -12.5,0.0 L 5.0,5.0 L 0.0,0.0 z "
         id="path1335" />
    </marker>
    <marker
       inkscape:collect="always"
       inkscape:stockid="Arrow1Lstart"
       orient="auto"
       refY="0.0"
       refX="0.0"
       id="Arrow1Lstart"
       style="overflow:visible"
       inkscape:isstock="true">
      <path
         id="path823"
         d="M 0.0,0.0 L 5.0,-5.0 L -12.5,0.0 L 5.0,5.0 L 0.0,0.0 z "
         style="fill-rule:evenodd;stroke:#000000;stroke-width:1pt;stroke-opacity:1;fill:#000000;fill-opacity:1"
         transform="scale(0.8) translate(12.5,0)" />
    </marker>
    <marker
       inkscape:stockid="Arrow1Lend"
       orient="auto"
       refY="0.0"
       refX="0.0"
       id="Arrow1Lend"
       style="overflow:visible;"
       inkscape:isstock="true"
       inkscape:collect="always">
      <path
         id="path826"
         d="M 0.0,0.0 L 5.0,-5.0 L -12.5,0.0 L 5.0,5.0 L 0.0,0.0 z "
         style="fill-rule:evenodd;stroke:#000000;stroke-width:1pt;stroke-opacity:1;fill:#000000;fill-opacity:1"
         transform="scale(0.8) rotate(180) translate(12.5,0)" />
    </marker>
  </defs>
  <metadata
     id="metadata5">
    <rdf:RDF>
      <cc:Work
         rdf:about="">
        <dc:format>image/svg+xml</dc:format>
        <dc:type
           rdf:resource="http://purl.org/dc/dcmitype/StillImage" />
        <dc:title />
      </cc:Work>
    </rdf:RDF>
  </metadata>
  <g
     inkscape:label="レイヤー 1"
     inkscape:groupmode="layer"
     id="layer1">
    <path
       style="fill:none;stroke:#000000;stroke-width:0.495;stroke-linecap:butt;stroke-linejoin:miter;stroke-opacity:1;stroke-miterlimit:4;stroke-dasharray:none;marker-start:url(#Arrow1Lstart)"
       d="M 63.5,80.04167 V 212.33333"
       id="path819"
       inkscape:connector-curvature="0" />
    <path
       style="fill:none;stroke:#000000;stroke-width:0.495;stroke-linecap:butt;stroke-linejoin:miter;stroke-opacity:1;stroke-miterlimit:4;stroke-dasharray:none;marker-end:url(#Arrow1Lend)"
       d="M 52.916667,196.45833 H 174.625"
       id="path821"
       inkscape:connector-curvature="0" />
    <path
       style="fill:#010101;fill-opacity:1;stroke:none;stroke-width:0.31104237;stroke-miterlimit:4;stroke-dasharray:none;stroke-dashoffset:0;stroke-opacity:1"
       id="path1145"
       sodipodi:type="arc"
       sodipodi:cx="84.703354"
       sodipodi:cy="154.70018"
       sodipodi:rx="1.6625581"
       sodipodi:ry="1.6625581"
       sodipodi:start="5.374148"
       sodipodi:end="5.3552461"
       sodipodi:open="true"
       d="m 85.725005,153.38857 a 1.6625581,1.6625581 0 0 1 0.294775,2.32705 1.6625581,1.6625581 0 0 1 -2.325636,0.30577 1.6625581,1.6625581 0 0 1 -0.316754,-2.32417 1.6625581,1.6625581 0 0 1 2.322642,-0.32773" />
    <path
       d="m 85.725005,174.55495 a 1.6625581,1.6625581 0 0 1 0.294775,2.32705 1.6625581,1.6625581 0 0 1 -2.325636,0.30577 1.6625581,1.6625581 0 0 1 -0.316754,-2.32416 1.6625581,1.6625581 0 0 1 2.322642,-0.32774"
       sodipodi:open="true"
       sodipodi:end="5.3552461"
       sodipodi:start="5.374148"
       sodipodi:ry="1.6625581"
       sodipodi:rx="1.6625581"
       sodipodi:cy="175.86656"
       sodipodi:cx="84.703354"
       sodipodi:type="arc"
       id="path1147"
       style="fill:#010101;fill-opacity:1;stroke:none;stroke-width:0.31104237;stroke-miterlimit:4;stroke-dasharray:none;stroke-dashoffset:0;stroke-opacity:1" />
    <path
       style="fill:#010101;fill-opacity:1;stroke:none;stroke-width:0.31104237;stroke-miterlimit:4;stroke-dasharray:none;stroke-dashoffset:0;stroke-opacity:1"
       id="path1172"
       sodipodi:type="arc"
       sodipodi:cx="127.59086"
       sodipodi:cy="175.56404"
       sodipodi:rx="1.6625581"
       sodipodi:ry="1.6625581"
       sodipodi:start="5.374148"
       sodipodi:end="5.3552461"
       sodipodi:open="true"
       d="m 128.61251,174.25243 a 1.6625581,1.6625581 0 0 1 0.29477,2.32705 1.6625581,1.6625581 0 0 1 -2.32563,0.30577 1.6625581,1.6625581 0 0 1 -0.31676,-2.32416 1.6625581,1.6625581 0 0 1 2.32265,-0.32774" />
    <path
       d="m 106.89169,153.38857 a 1.6625581,1.6625581 0 0 1 0.29478,2.32705 1.6625581,1.6625581 0 0 1 -2.32564,0.30577 1.6625581,1.6625581 0 0 1 -0.31675,-2.32417 1.6625581,1.6625581 0 0 1 2.32264,-0.32773"
       sodipodi:open="true"
       sodipodi:end="5.3552461"
       sodipodi:start="5.374148"
       sodipodi:ry="1.6625581"
       sodipodi:rx="1.6625581"
       sodipodi:cy="154.70018"
       sodipodi:cx="105.87004"
       sodipodi:type="arc"
       id="path1180"
       style="fill:#010101;fill-opacity:1;stroke:none;stroke-width:0.31104237;stroke-miterlimit:4;stroke-dasharray:none;stroke-dashoffset:0;stroke-opacity:1" />
    <path
       style="fill:#010101;fill-opacity:1;stroke:none;stroke-width:0.31104237;stroke-miterlimit:4;stroke-dasharray:none;stroke-dashoffset:0;stroke-opacity:1"
       id="path1182"
       sodipodi:type="arc"
       sodipodi:cx="105.87004"
       sodipodi:cy="175.86656"
       sodipodi:rx="1.6625581"
       sodipodi:ry="1.6625581"
       sodipodi:start="5.374148"
       sodipodi:end="5.3552461"
       sodipodi:open="true"
       d="m 106.89169,174.55495 a 1.6625581,1.6625581 0 0 1 0.29478,2.32705 1.6625581,1.6625581 0 0 1 -2.32564,0.30577 1.6625581,1.6625581 0 0 1 -0.31675,-2.32416 1.6625581,1.6625581 0 0 1 2.32264,-0.32774" />
    <path
       d="m 149.24974,174.25243 a 1.6625581,1.6625581 0 0 1 0.29477,2.32705 1.6625581,1.6625581 0 0 1 -2.32563,0.30577 1.6625581,1.6625581 0 0 1 -0.31676,-2.32416 1.6625581,1.6625581 0 0 1 2.32265,-0.32774"
       sodipodi:open="true"
       sodipodi:end="5.3552461"
       sodipodi:start="5.374148"
       sodipodi:ry="1.6625581"
       sodipodi:rx="1.6625581"
       sodipodi:cy="175.56404"
       sodipodi:cx="148.22809"
       sodipodi:type="arc"
       id="path1184"
       style="fill:#010101;fill-opacity:1;stroke:none;stroke-width:0.31104237;stroke-miterlimit:4;stroke-dasharray:none;stroke-dashoffset:0;stroke-opacity:1" />
    <path
       d="m 128.61251,153.08605 a 1.6625581,1.6625581 0 0 1 0.29477,2.32705 1.6625581,1.6625581 0 0 1 -2.32563,0.30577 1.6625581,1.6625581 0 0 1 -0.31676,-2.32417 1.6625581,1.6625581 0 0 1 2.32265,-0.32773"
       sodipodi:open="true"
       sodipodi:end="5.3552461"
       sodipodi:start="5.374148"
       sodipodi:ry="1.6625581"
       sodipodi:rx="1.6625581"
       sodipodi:cy="154.39766"
       sodipodi:cx="127.59086"
       sodipodi:type="arc"
       id="path1186"
       style="fill:#010101;fill-opacity:1;stroke:none;stroke-width:0.31104237;stroke-miterlimit:4;stroke-dasharray:none;stroke-dashoffset:0;stroke-opacity:1" />
    <path
       style="fill:#010101;fill-opacity:1;stroke:none;stroke-width:0.31104237;stroke-miterlimit:4;stroke-dasharray:none;stroke-dashoffset:0;stroke-opacity:1"
       id="path1188"
       sodipodi:type="arc"
       sodipodi:cx="105.87004"
       sodipodi:cy="133.5338"
       sodipodi:rx="1.6625581"
       sodipodi:ry="1.6625581"
       sodipodi:start="5.374148"
       sodipodi:end="5.3552461"
       sodipodi:open="true"
       d="m 106.89169,132.22219 a 1.6625581,1.6625581 0 0 1 0.29478,2.32705 1.6625581,1.6625581 0 0 1 -2.32564,0.30577 1.6625581,1.6625581 0 0 1 -0.31675,-2.32417 1.6625581,1.6625581 0 0 1 2.32264,-0.32773" />
    <path
       d="m 85.725005,132.22219 a 1.6625581,1.6625581 0 0 1 0.294775,2.32705 1.6625581,1.6625581 0 0 1 -2.325636,0.30577 1.6625581,1.6625581 0 0 1 -0.316754,-2.32417 1.6625581,1.6625581 0 0 1 2.322642,-0.32773"
       sodipodi:open="true"
       sodipodi:end="5.3552461"
       sodipodi:start="5.374148"
       sodipodi:ry="1.6625581"
       sodipodi:rx="1.6625581"
       sodipodi:cy="133.5338"
       sodipodi:cx="84.703354"
       sodipodi:type="arc"
       id="path1190"
       style="fill:#010101;fill-opacity:1;stroke:none;stroke-width:0.31104237;stroke-miterlimit:4;stroke-dasharray:none;stroke-dashoffset:0;stroke-opacity:1" />
    <path
       style="fill:#010101;fill-opacity:1;stroke:none;stroke-width:0.31104237;stroke-miterlimit:4;stroke-dasharray:none;stroke-dashoffset:0;stroke-opacity:1"
       id="path1192"
       sodipodi:type="arc"
       sodipodi:cx="84.703354"
       sodipodi:cy="112.36721"
       sodipodi:rx="1.6625581"
       sodipodi:ry="1.6625581"
       sodipodi:start="5.374148"
       sodipodi:end="5.3552461"
       sodipodi:open="true"
       d="m 85.725005,111.0556 a 1.6625581,1.6625581 0 0 1 0.294775,2.32705 1.6625581,1.6625581 0 0 1 -2.325636,0.30577 1.6625581,1.6625581 0 0 1 -0.316754,-2.32416 1.6625581,1.6625581 0 0 1 2.322642,-0.32774" />
    <path
       style="fill:none;stroke:#000000;stroke-width:0.365;stroke-linecap:butt;stroke-linejoin:miter;stroke-opacity:1;stroke-miterlimit:4;stroke-dasharray:none;marker-end:url(#marker1337)"
       d="M 89.958332,175.29166 H 100.54167"
       id="path1327"
       inkscape:connector-curvature="0" />
    <path
       style="fill:none;stroke:#000000;stroke-width:0.365;stroke-linecap:butt;stroke-linejoin:miter;stroke-opacity:1;stroke-miterlimit:4;stroke-dasharray:none;marker-end:url(#marker1591)"
       d="M 100.54167,169.99999 89.958332,159.41666"
       id="path1795"
       inkscape:connector-curvature="0" />
    <path
       inkscape:connector-curvature="0"
       id="path1821"
       d="M 122.23753,169.99999 111.65417,159.41666"
       style="fill:none;stroke:#000000;stroke-width:0.36500001;stroke-linecap:butt;stroke-linejoin:miter;stroke-miterlimit:4;stroke-dasharray:none;stroke-opacity:1;marker-end:url(#marker1825)" />
    <path
       style="fill:none;stroke:#000000;stroke-width:0.36500001;stroke-linecap:butt;stroke-linejoin:miter;stroke-miterlimit:4;stroke-dasharray:none;stroke-opacity:1;marker-end:url(#marker2057)"
       d="M 101.07079,149.36244 90.487457,138.77911"
       id="path2053"
       inkscape:connector-curvature="0" />
    <path
       inkscape:connector-curvature="0"
       id="path2413"
       d="M 101.07079,128.19577 90.487457,117.61244"
       style="fill:none;stroke:#000000;stroke-width:0.36500001;stroke-linecap:butt;stroke-linejoin:miter;stroke-miterlimit:4;stroke-dasharray:none;stroke-opacity:1;marker-end:url(#marker2417)" />
    <path
       style="fill:none;stroke:#000000;stroke-width:0.36500001;stroke-linecap:butt;stroke-linejoin:miter;stroke-miterlimit:4;stroke-dasharray:none;stroke-opacity:1;marker-end:url(#marker2665)"
       d="M 122.23753,149.36243 111.65417,138.7791"
       id="path2661"
       inkscape:connector-curvature="0" />
    <path
       style="fill:none;stroke:#000000;stroke-width:0.36500001;stroke-linecap:butt;stroke-linejoin:miter;stroke-miterlimit:4;stroke-dasharray:none;stroke-opacity:1;marker-end:url(#marker2849)"
       d="M 142.87503,169.99999 132.29167,159.41666"
       id="path2845"
       inkscape:connector-curvature="0" />
    <path
       style="fill:none;stroke:#000000;stroke-width:0.36500001;stroke-linecap:butt;stroke-linejoin:miter;stroke-miterlimit:4;stroke-dasharray:none;stroke-opacity:1;marker-end:url(#marker3095)"
       d="m 89.958333,154.12499 31.749997,21.16667"
       id="path3085"
       inkscape:connector-curvature="0" />
    <path
       style="fill:none;stroke:#000000;stroke-width:0.365;stroke-linecap:butt;stroke-linejoin:miter;stroke-opacity:1;stroke-miterlimit:4;stroke-dasharray:none;marker-end:url(#marker3409)"
       d="M 89.958332,132.95832 142.875,175.29166"
       id="path3399"
       inkscape:connector-curvature="0" />
    <g
       transform="matrix(0.91231467,0,0,0.91231467,-2.4081236,96.598494)"
       id="g972">
      <g
         style="font-style:normal;font-variant:normal;font-weight:normal;font-stretch:normal;letter-spacing:normal;word-spacing:normal;text-anchor:start;fill:none;fill-opacity:1;fill-rule:evenodd;stroke:#000000;stroke-linecap:butt;stroke-linejoin:miter;stroke-miterlimit:10.43299961;stroke-dasharray:none;stroke-dashoffset:0;stroke-opacity:1"
         id="content"
         transform="matrix(0.3,0,0,-0.3,-52.5,222.75)"
         xml:space="preserve"
         stroke-miterlimit="10.433"
         font-style="normal"
         font-variant="normal"
         font-weight="normal"
         font-stretch="normal"
         font-size-adjust="none"
         letter-spacing="normal"
         word-spacing="normal"><path
           style="fill:#000000;stroke-width:0"
           inkscape:connector-curvature="0"
           d="m 470.16,438.09 v 0.05 0.06 0.05 0.05 0.05 0.05 0.04 0.05 0.04 0.04 l -0.01,0.04 v 0.04 0.04 0.03 0.04 l -0.01,0.03 -0.01,0.07 v 0.06 l -0.02,0.05 -0.01,0.05 -0.02,0.05 -0.02,0.04 -0.02,0.04 -0.02,0.03 -0.03,0.03 -0.03,0.03 -0.04,0.03 -0.04,0.02 -0.04,0.02 -0.03,0.01 -0.02,0.01 h -0.03 l -0.02,0.01 -0.03,0.01 h -0.03 l -0.03,0.01 h -0.03 l -0.04,0.01 h -0.03 -0.04 l -0.03,0.01 h -0.04 -0.04 -0.05 -0.04 -0.04 l -0.05,0.01 h -0.05 -0.05 -0.05 -0.05 c -3.09,-3.19 -7.47,-3.19 -9.06,-3.19 v -1.55 c 1,0 3.93,0 6.51,1.3 v -25.81 c 0,-1.8 -0.14,-2.39 -4.62,-2.39 h -1.6 v -1.55 c 1.75,0.16 6.08,0.16 8.07,0.16 2,0 6.32,0 8.07,-0.16 v 1.55 h -1.59 c -4.48,0 -4.64,0.54 -4.64,2.39 z"
           id="path969" /></g>    </g>
    <g
       transform="matrix(0.82945732,0,0,0.82945732,32.793241,104.93694)"
       id="g1080">
      <g
         style="font-style:normal;font-variant:normal;font-weight:normal;font-stretch:normal;letter-spacing:normal;word-spacing:normal;text-anchor:start;fill:none;fill-opacity:1;fill-rule:evenodd;stroke:#000000;stroke-linecap:butt;stroke-linejoin:miter;stroke-miterlimit:10.43299961;stroke-dasharray:none;stroke-dashoffset:0;stroke-opacity:1"
         word-spacing="normal"
         letter-spacing="normal"
         font-size-adjust="none"
         font-stretch="normal"
         font-weight="normal"
         font-variant="normal"
         font-style="normal"
         stroke-miterlimit="10.433"
         xml:space="preserve"
         transform="matrix(0.3,0,0,-0.3,-52.5,222.75)"
         id="g1078"><path
           style="fill:#000000;stroke-width:0"
           inkscape:connector-curvature="0"
           id="path1076"
           d="m 461.85,410.04 5.28,5.13 c 7.76,6.87 10.76,9.56 10.76,14.54 0,5.69 -4.48,9.68 -10.56,9.68 -5.64,0 -9.33,-4.6 -9.33,-9.03 0,-2.79 2.5,-2.79 2.64,-2.79 0.86,0 2.6,0.6 2.6,2.64 0,1.3 -0.89,2.6 -2.64,2.6 -0.39,0 -0.5,0 -0.64,-0.05 1.14,3.24 3.83,5.08 6.72,5.08 4.53,0 6.68,-4.05 6.68,-8.13 0,-3.98 -2.5,-7.92 -5.23,-11.01 l -9.56,-10.66 C 458,407.5 458,407.4 458,406.2 h 18.49 l 1.4,8.67 h -1.25 c -0.25,-1.5 -0.59,-3.69 -1.09,-4.44 -0.36,-0.39 -3.64,-0.39 -4.73,-0.39 z" /></g>    </g>
    <g
       transform="matrix(0.86806325,0,0,0.86806325,1.204829,71.149563)"
       id="g1195">
      <g
         style="font-style:normal;font-variant:normal;font-weight:normal;font-stretch:normal;letter-spacing:normal;word-spacing:normal;text-anchor:start;fill:none;fill-opacity:1;fill-rule:evenodd;stroke:#000000;stroke-linecap:butt;stroke-linejoin:miter;stroke-miterlimit:10.43299961;stroke-dasharray:none;stroke-dashoffset:0;stroke-opacity:1"
         id="g1193"
         transform="matrix(0.3,0,0,-0.3,-52.5,222.75)"
         xml:space="preserve"
         stroke-miterlimit="10.433"
         font-style="normal"
         font-variant="normal"
         font-weight="normal"
         font-stretch="normal"
         font-size-adjust="none"
         letter-spacing="normal"
         word-spacing="normal"><path
           style="fill:#000000;stroke-width:0"
           inkscape:connector-curvature="0"
           d="m 469.97,423.73 0.38,0.13 0.37,0.15 0.37,0.15 0.35,0.17 0.35,0.18 0.34,0.19 0.33,0.2 0.32,0.22 0.31,0.22 0.31,0.23 0.29,0.24 0.28,0.25 0.27,0.26 0.26,0.27 0.25,0.27 0.24,0.29 0.22,0.29 0.21,0.3 0.2,0.3 0.19,0.32 0.18,0.32 0.16,0.32 0.14,0.33 0.14,0.34 0.11,0.34 0.11,0.34 0.09,0.35 0.07,0.36 0.06,0.36 0.04,0.36 0.02,0.36 0.01,0.37 c 0,4.08 -4.39,6.88 -9.17,6.88 -5.03,0 -8.81,-3 -8.81,-6.78 0,-1.65 1.09,-2.6 2.54,-2.6 1.54,0 2.54,1.1 2.54,2.55 0,2.48 -2.35,2.48 -3.08,2.48 1.53,2.44 4.83,3.1 6.62,3.1 2.03,0 4.78,-1.1 4.78,-5.58 0,-0.61 -0.11,-3.49 -1.4,-5.69 -1.49,-2.39 -3.19,-2.53 -4.42,-2.59 -0.41,-0.05 -1.6,-0.14 -1.96,-0.14 -0.39,-0.05 -0.75,-0.1 -0.75,-0.6 0,-0.54 0.36,-0.54 1.21,-0.54 h 2.18 c 4.1,0 5.94,-3.39 5.94,-8.29 0,-6.76 -3.44,-8.21 -5.64,-8.21 -2.14,0 -5.88,0.84 -7.61,3.78 1.73,-0.24 3.28,0.86 3.28,2.75 0,1.79 -1.34,2.78 -2.8,2.78 -1.18,0 -2.78,-0.69 -2.78,-2.89 0,-4.53 4.63,-7.81 10.07,-7.81 6.07,0 10.61,4.53 10.61,9.6 0,4.1 -3.15,7.97 -8.32,9.02 z"
           id="path1191" /></g>    </g>
    <g
       transform="matrix(0.94879085,0,0,0.94879085,43.838073,93.090464)"
       id="g1315">
      <g
         style="font-style:normal;font-variant:normal;font-weight:normal;font-stretch:normal;letter-spacing:normal;word-spacing:normal;text-anchor:start;fill:none;fill-opacity:1;fill-rule:evenodd;stroke:#000000;stroke-linecap:butt;stroke-linejoin:miter;stroke-miterlimit:10.43299961;stroke-dasharray:none;stroke-dashoffset:0;stroke-opacity:1"
         word-spacing="normal"
         letter-spacing="normal"
         font-size-adjust="none"
         font-stretch="normal"
         font-weight="normal"
         font-variant="normal"
         font-style="normal"
         stroke-miterlimit="10.433"
         xml:space="preserve"
         transform="matrix(0.3,0,0,-0.3,-52.5,222.75)"
         id="g1313"><path
           style="fill:#000000;stroke-width:0"
           inkscape:connector-curvature="0"
           id="path1311"
           d="m 470.16,414.42 v -4.33 c 0,-1.8 -0.09,-2.34 -3.78,-2.34 h -1.05 v -1.55 c 2.05,0.16 4.64,0.16 6.74,0.16 2.09,0 4.73,0 6.76,-0.16 v 1.55 h -1.04 c -3.69,0 -3.79,0.54 -3.79,2.34 v 4.33 h 4.99 v 1.54 H 474 v 22.68 c 0,1 0,1.29 -0.79,1.29 -0.46,0 -0.6,0 -1,-0.61 l -15.3,-23.36 h 1.41 l 12.15,18.58 v -18.58 h -12.15 -1.41 v -1.54 z" /></g>    </g>
    <g
       transform="matrix(0.94532408,0,0,0.94532408,-6.1020788,42.365836)"
       id="g1441">
      <g
         style="font-style:normal;font-variant:normal;font-weight:normal;font-stretch:normal;letter-spacing:normal;word-spacing:normal;text-anchor:start;fill:none;fill-opacity:1;fill-rule:evenodd;stroke:#000000;stroke-linecap:butt;stroke-linejoin:miter;stroke-miterlimit:10.43299961;stroke-dasharray:none;stroke-dashoffset:0;stroke-opacity:1"
         id="g1439"
         transform="matrix(0.3,0,0,-0.3,-52.5,222.75)"
         xml:space="preserve"
         stroke-miterlimit="10.433"
         font-style="normal"
         font-variant="normal"
         font-weight="normal"
         font-stretch="normal"
         font-size-adjust="none"
         letter-spacing="normal"
         word-spacing="normal"><path
           style="fill:#000000;stroke-width:0"
           inkscape:connector-curvature="0"
           d="m 462.1,422.54 v 1.19 c 0,12.61 6.17,14.41 8.72,14.41 1.18,0 3.28,-0.3 4.37,-2 -0.73,0 -2.73,0 -2.73,-2.24 0,-1.54 1.2,-2.29 2.29,-2.29 0.8,0 2.29,0.45 2.29,2.39 0,3 -2.19,5.39 -6.32,5.39 -6.39,0 -13.11,-6.44 -13.11,-17.44 0,-13.31 5.78,-16.84 10.41,-16.84 5.53,0 10.27,4.68 10.27,11.25 0,6.32 -4.44,11.12 -9.97,11.12 l -0.05,-1.16 c 0.8,0 3.09,0 4.64,-3.09 0.89,-1.83 0.89,-4.37 0.89,-6.81 0,-2.39 0,-4.89 -0.84,-6.69 -1.5,-2.98 -3.78,-3.23 -4.94,-3.23 v 0 c -3.14,0 -4.63,2.98 -4.92,3.73 -0.91,2.34 -0.91,6.33 -0.91,7.23 0,3.88 1.6,8.86 6.08,8.86 l 0.05,1.16 c -3.38,0 -5.22,-2.55 -6.22,-4.94 z"
           id="path1437" /></g>    </g>
    <path
       d="m 85.725005,89.888918 a 1.6625581,1.6625581 0 0 1 0.294775,2.327055 1.6625581,1.6625581 0 0 1 -2.325636,0.305768 1.6625581,1.6625581 0 0 1 -0.316754,-2.324165 1.6625581,1.6625581 0 0 1 2.322642,-0.327734"
       sodipodi:open="true"
       sodipodi:end="5.3552461"
       sodipodi:start="5.374148"
       sodipodi:ry="1.6625581"
       sodipodi:rx="1.6625581"
       sodipodi:cy="91.200531"
       sodipodi:cx="84.703354"
       sodipodi:type="arc"
       id="path1532"
       style="fill:#010101;fill-opacity:1;stroke:none;stroke-width:0.31104237;stroke-miterlimit:4;stroke-dasharray:none;stroke-dashoffset:0;stroke-opacity:1" />
    <path
       style="fill:#010101;fill-opacity:1;stroke:none;stroke-width:0.31104237;stroke-miterlimit:4;stroke-dasharray:none;stroke-dashoffset:0;stroke-opacity:1"
       id="path1534"
       sodipodi:type="arc"
       sodipodi:cx="105.87004"
       sodipodi:cy="111.83801"
       sodipodi:rx="1.6625581"
       sodipodi:ry="1.6625581"
       sodipodi:start="5.374148"
       sodipodi:end="5.3552461"
       sodipodi:open="true"
       d="m 106.89169,110.5264 a 1.6625581,1.6625581 0 0 1 0.29478,2.32705 1.6625581,1.6625581 0 0 1 -2.32564,0.30577 1.6625581,1.6625581 0 0 1 -0.31675,-2.32416 1.6625581,1.6625581 0 0 1 2.32264,-0.32774" />
    <path
       d="m 128.05836,110.5264 a 1.6625581,1.6625581 0 0 1 0.29478,2.32705 1.6625581,1.6625581 0 0 1 -2.32564,0.30577 1.6625581,1.6625581 0 0 1 -0.31675,-2.32416 1.6625581,1.6625581 0 0 1 2.32264,-0.32774"
       sodipodi:open="true"
       sodipodi:end="5.3552461"
       sodipodi:start="5.374148"
       sodipodi:ry="1.6625581"
       sodipodi:rx="1.6625581"
       sodipodi:cy="111.83801"
       sodipodi:cx="127.03671"
       sodipodi:type="arc"
       id="path1536"
       style="fill:#010101;fill-opacity:1;stroke:none;stroke-width:0.31104237;stroke-miterlimit:4;stroke-dasharray:none;stroke-dashoffset:0;stroke-opacity:1" />
    <path
       style="fill:#010101;fill-opacity:1;stroke:none;stroke-width:0.31104237;stroke-miterlimit:4;stroke-dasharray:none;stroke-dashoffset:0;stroke-opacity:1"
       id="path1538"
       sodipodi:type="arc"
       sodipodi:cx="127.03671"
       sodipodi:cy="133.00461"
       sodipodi:rx="1.6625581"
       sodipodi:ry="1.6625581"
       sodipodi:start="5.374148"
       sodipodi:end="5.3552461"
       sodipodi:open="true"
       d="m 128.05836,131.693 a 1.6625581,1.6625581 0 0 1 0.29478,2.32705 1.6625581,1.6625581 0 0 1 -2.32564,0.30577 1.6625581,1.6625581 0 0 1 -0.31675,-2.32417 1.6625581,1.6625581 0 0 1 2.32264,-0.32773" />
    <path
       d="m 149.22476,131.693 a 1.6625581,1.6625581 0 0 1 0.29478,2.32705 1.6625581,1.6625581 0 0 1 -2.32564,0.30577 1.6625581,1.6625581 0 0 1 -0.31675,-2.32417 1.6625581,1.6625581 0 0 1 2.32264,-0.32773"
       sodipodi:open="true"
       sodipodi:end="5.3552461"
       sodipodi:start="5.374148"
       sodipodi:ry="1.6625581"
       sodipodi:rx="1.6625581"
       sodipodi:cy="133.00461"
       sodipodi:cx="148.20311"
       sodipodi:type="arc"
       id="path1540"
       style="fill:#010101;fill-opacity:1;stroke:none;stroke-width:0.31104237;stroke-miterlimit:4;stroke-dasharray:none;stroke-dashoffset:0;stroke-opacity:1" />
    <path
       style="fill:#010101;fill-opacity:1;stroke:none;stroke-width:0.31104237;stroke-miterlimit:4;stroke-dasharray:none;stroke-dashoffset:0;stroke-opacity:1"
       id="path1542"
       sodipodi:type="arc"
       sodipodi:cx="148.20311"
       sodipodi:cy="154.17099"
       sodipodi:rx="1.6625581"
       sodipodi:ry="1.6625581"
       sodipodi:start="5.374148"
       sodipodi:end="5.3552461"
       sodipodi:open="true"
       d="m 149.22476,152.85938 a 1.6625581,1.6625581 0 0 1 0.29478,2.32705 1.6625581,1.6625581 0 0 1 -2.32564,0.30577 1.6625581,1.6625581 0 0 1 -0.31675,-2.32417 1.6625581,1.6625581 0 0 1 2.32264,-0.32773" />
    <path
       style="fill:#010101;fill-opacity:1;stroke:none;stroke-width:0.31104237;stroke-miterlimit:4;stroke-dasharray:none;stroke-dashoffset:0;stroke-opacity:1"
       id="path1544"
       sodipodi:type="arc"
       sodipodi:cx="148.20311"
       sodipodi:cy="111.83801"
       sodipodi:rx="1.6625581"
       sodipodi:ry="1.6625581"
       sodipodi:start="5.374148"
       sodipodi:end="5.3552461"
       sodipodi:open="true"
       d="m 149.22476,110.5264 a 1.6625581,1.6625581 0 0 1 0.29478,2.32705 1.6625581,1.6625581 0 0 1 -2.32564,0.30577 1.6625581,1.6625581 0 0 1 -0.31675,-2.32416 1.6625581,1.6625581 0 0 1 2.32264,-0.32774" />
    <path
       d="m 106.89173,89.888895 a 1.6625581,1.6625581 0 0 1 0.29478,2.327055 1.6625581,1.6625581 0 0 1 -2.32564,0.305768 1.6625581,1.6625581 0 0 1 -0.31675,-2.324165 1.6625581,1.6625581 0 0 1 2.32264,-0.327733"
       sodipodi:open="true"
       sodipodi:end="5.3552461"
       sodipodi:start="5.374148"
       sodipodi:ry="1.6625581"
       sodipodi:rx="1.6625581"
       sodipodi:cy="91.200508"
       sodipodi:cx="105.87008"
       sodipodi:type="arc"
       id="path1546"
       style="fill:#010101;fill-opacity:1;stroke:none;stroke-width:0.31104237;stroke-miterlimit:4;stroke-dasharray:none;stroke-dashoffset:0;stroke-opacity:1" />
    <path
       style="fill:#010101;fill-opacity:1;stroke:none;stroke-width:0.31104237;stroke-miterlimit:4;stroke-dasharray:none;stroke-dashoffset:0;stroke-opacity:1"
       id="path1548"
       sodipodi:type="arc"
       sodipodi:cx="127.03674"
       sodipodi:cy="91.200508"
       sodipodi:rx="1.6625581"
       sodipodi:ry="1.6625581"
       sodipodi:start="5.374148"
       sodipodi:end="5.3552461"
       sodipodi:open="true"
       d="m 128.05839,89.888895 a 1.6625581,1.6625581 0 0 1 0.29478,2.327055 1.6625581,1.6625581 0 0 1 -2.32564,0.305768 1.6625581,1.6625581 0 0 1 -0.31675,-2.324165 1.6625581,1.6625581 0 0 1 2.32264,-0.327733" />
    <path
       d="m 149.22479,89.888895 a 1.6625581,1.6625581 0 0 1 0.29478,2.327055 1.6625581,1.6625581 0 0 1 -2.32564,0.305768 1.6625581,1.6625581 0 0 1 -0.31675,-2.324165 1.6625581,1.6625581 0 0 1 2.32264,-0.327733"
       sodipodi:open="true"
       sodipodi:end="5.3552461"
       sodipodi:start="5.374148"
       sodipodi:ry="1.6625581"
       sodipodi:rx="1.6625581"
       sodipodi:cy="91.200508"
       sodipodi:cx="148.20314"
       sodipodi:type="arc"
       id="path1550"
       style="fill:#010101;fill-opacity:1;stroke:none;stroke-width:0.31104237;stroke-miterlimit:4;stroke-dasharray:none;stroke-dashoffset:0;stroke-opacity:1" />
    <path
       inkscape:connector-curvature="0"
       id="path1571"
       d="m 89.958332,111.79166 74.083328,63.5"
       style="fill:none;stroke:#000000;stroke-width:0.365;stroke-linecap:butt;stroke-linejoin:miter;stroke-opacity:1;stroke-miterlimit:4;stroke-dasharray:none;marker-end:url(#marker1581)" />
    <path
       inkscape:connector-curvature="0"
       id="path1619"
       d="M 164.04166,169.99999 153.45833,159.41666"
       style="fill:none;stroke:#000000;stroke-width:0.365;stroke-linecap:butt;stroke-linejoin:miter;stroke-opacity:1;stroke-miterlimit:4;stroke-dasharray:none;marker-end:url(#marker1629)" />
    <path
       inkscape:connector-curvature="0"
       id="path1669"
       d="M 142.875,148.83332 132.29166,138.24999"
       style="fill:none;stroke:#000000;stroke-width:0.365;stroke-linecap:butt;stroke-linejoin:miter;stroke-opacity:1;stroke-miterlimit:4;stroke-dasharray:none;marker-end:url(#marker1679)" />
    <path
       inkscape:connector-curvature="0"
       id="path1721"
       d="M 121.70833,127.66666 111.125,117.08332"
       style="fill:none;stroke:#000000;stroke-width:0.365;stroke-linecap:butt;stroke-linejoin:miter;stroke-opacity:1;stroke-miterlimit:4;stroke-dasharray:none;marker-end:url(#marker1731)" />
    <path
       inkscape:connector-curvature="0"
       id="path1775"
       d="M 100.54167,106.49999 89.958332,95.916656"
       style="fill:none;stroke:#000000;stroke-width:0.365;stroke-linecap:butt;stroke-linejoin:miter;stroke-opacity:1;stroke-miterlimit:4;stroke-dasharray:none;marker-end:url(#marker1785)" />
    <path
       inkscape:connector-curvature="0"
       id="path1831"
       d="m 89.958332,90.62499 74.083338,65.85186"
       style="fill:none;stroke:#000000;stroke-width:0.28388891;stroke-linecap:butt;stroke-linejoin:miter;stroke-miterlimit:4;stroke-dasharray:none;stroke-opacity:1" />
    <path
       inkscape:connector-curvature="0"
       id="path1833"
       d="M 142.875,127.66666 132.29166,117.08332"
       style="fill:none;stroke:#000000;stroke-width:0.365;stroke-linecap:butt;stroke-linejoin:miter;stroke-opacity:1;stroke-miterlimit:4;stroke-dasharray:none;marker-end:url(#marker1843)" />
    <path
       inkscape:connector-curvature="0"
       id="path1891"
       d="m 153.45833,138.24999 10.58333,10.58333"
       style="fill:none;stroke:#000000;stroke-width:0.365;stroke-linecap:butt;stroke-linejoin:miter;stroke-opacity:1;stroke-miterlimit:4;stroke-dasharray:none;marker-start:url(#marker2019)" />
    <path
       inkscape:connector-curvature="0"
       id="path2073"
       d="M 121.70833,106.49999 111.125,95.916656"
       style="fill:none;stroke:#000000;stroke-width:0.365;stroke-linecap:butt;stroke-linejoin:miter;stroke-opacity:1;stroke-miterlimit:4;stroke-dasharray:none;marker-end:url(#marker2083)" />
    <path
       inkscape:connector-curvature="0"
       id="path2139"
       d="M 100.54167,85.333323 95.249999,80.041656"
       style="fill:none;stroke:#000000;stroke-width:0.365;stroke-linecap:butt;stroke-linejoin:miter;stroke-opacity:1;stroke-miterlimit:4;stroke-dasharray:none" />
    <path
       inkscape:connector-curvature="0"
       id="path2141"
       d="m 153.45833,117.08332 10.58333,10.58334"
       style="fill:none;stroke:#000000;stroke-width:0.26458332px;stroke-linecap:butt;stroke-linejoin:miter;stroke-opacity:1;marker-start:url(#marker2151)" />
    <path
       inkscape:connector-curvature="0"
       id="path2209"
       d="M 142.875,106.49999 132.29166,95.916656"
       style="fill:none;stroke:#000000;stroke-width:0.365;stroke-linecap:butt;stroke-linejoin:miter;stroke-opacity:1;stroke-miterlimit:4;stroke-dasharray:none;marker-end:url(#marker2219)" />
    <path
       inkscape:connector-curvature="0"
       id="path2279"
       d="m 121.70833,85.333323 -5.29166,-5.291667"
       style="fill:none;stroke:#000000;stroke-width:0.365;stroke-linecap:butt;stroke-linejoin:miter;stroke-opacity:1;stroke-miterlimit:4;stroke-dasharray:none" />
    <path
       inkscape:connector-curvature="0"
       id="path2281"
       d="M 164.04166,106.49999 153.45833,95.916656"
       style="fill:none;stroke:#000000;stroke-width:0.365;stroke-linecap:butt;stroke-linejoin:miter;stroke-opacity:1;stroke-miterlimit:4;stroke-dasharray:none;marker-end:url(#marker2291)" />
    <path
       inkscape:connector-curvature="0"
       id="path2353"
       d="M 142.875,85.333323 137.58333,80.04166"
       style="fill:none;stroke:#000000;stroke-width:0.365;stroke-linecap:butt;stroke-linejoin:miter;stroke-opacity:1;stroke-miterlimit:4;stroke-dasharray:none" />
    <g
       id="g2497"
       transform="matrix(0.9470647,0,0,0.9470647,65.036529,92.464207)">
      <g
         word-spacing="normal"
         letter-spacing="normal"
         font-size-adjust="none"
         font-stretch="normal"
         font-weight="normal"
         font-variant="normal"
         font-style="normal"
         stroke-miterlimit="10.433"
         xml:space="preserve"
         transform="matrix(0.3,0,0,-0.3,-52.5,222.75)"
         id="g2495"
         style="font-style:normal;font-variant:normal;font-weight:normal;font-stretch:normal;letter-spacing:normal;word-spacing:normal;text-anchor:start;fill:none;fill-opacity:1;fill-rule:evenodd;stroke:#000000;stroke-linecap:butt;stroke-linejoin:miter;stroke-miterlimit:10.43299961;stroke-dasharray:none;stroke-dashoffset:0;stroke-opacity:1"><path
           id="path2493"
           d="m 479.24,436.54 0.04,0.06 0.04,0.05 0.03,0.05 0.03,0.05 0.03,0.04 0.03,0.04 0.03,0.05 0.02,0.04 0.02,0.04 0.02,0.04 0.02,0.04 0.02,0.04 0.01,0.04 0.02,0.04 0.01,0.04 0.01,0.04 0.01,0.04 0.01,0.05 0.01,0.05 v 0.04 l 0.01,0.06 v 0.05 l 0.01,0.06 v 0.06 0.06 0.07 0.07 l 0.01,0.08 v 0.08 0.08 0.09 0.05 0.05 h -12.1 c -6.08,0 -6.19,0.65 -6.39,1.59 h -1.23 l -1.64,-10.25 h 1.23 c 0.16,0.8 0.61,3.94 1.25,4.53 0.34,0.3 4.24,0.3 4.88,0.3 H 476 c -0.56,-0.8 -4.48,-6.24 -5.59,-7.88 -4.48,-6.71 -6.12,-13.65 -6.12,-18.73 0,-0.5 0,-2.73 2.29,-2.73 2.3,0 2.3,2.23 2.3,2.73 v 2.55 c 0,2.73 0.14,5.48 0.55,8.17 0.18,1.14 0.89,5.42 3.07,8.51 z"
           inkscape:connector-curvature="0"
           style="fill:#000000;stroke-width:0" /></g>    </g>
    <g
       transform="matrix(0.76573937,0,0,0.76573937,5.4968887,38.501176)"
       id="g2793">
      <g
         style="font-style:normal;font-variant:normal;font-weight:normal;font-stretch:normal;letter-spacing:normal;word-spacing:normal;text-anchor:start;fill:none;fill-opacity:1;fill-rule:evenodd;stroke:#000000;stroke-linecap:butt;stroke-linejoin:miter;stroke-miterlimit:10.43299961;stroke-dasharray:none;stroke-dashoffset:0;stroke-opacity:1"
         id="g2791"
         transform="matrix(0.3,0,0,-0.3,-52.5,222.75)"
         xml:space="preserve"
         stroke-miterlimit="10.433"
         font-style="normal"
         font-variant="normal"
         font-weight="normal"
         font-stretch="normal"
         font-size-adjust="none"
         letter-spacing="normal"
         word-spacing="normal"><path
           style="fill:#000000;stroke-width:0"
           inkscape:connector-curvature="0"
           d="m 470.16,438.09 v 0.05 0.06 0.05 0.05 0.05 0.05 0.04 0.05 0.04 0.04 l -0.01,0.04 v 0.04 0.04 0.03 0.04 l -0.01,0.03 -0.01,0.07 v 0.06 l -0.02,0.05 -0.01,0.05 -0.02,0.05 -0.02,0.04 -0.02,0.04 -0.02,0.03 -0.03,0.03 -0.03,0.03 -0.04,0.03 -0.04,0.02 -0.04,0.02 -0.03,0.01 -0.02,0.01 h -0.03 l -0.02,0.01 -0.03,0.01 h -0.03 l -0.03,0.01 h -0.03 l -0.04,0.01 h -0.03 -0.04 l -0.03,0.01 h -0.04 -0.04 -0.05 -0.04 -0.04 l -0.05,0.01 h -0.05 -0.05 -0.05 -0.05 c -3.09,-3.19 -7.47,-3.19 -9.06,-3.19 v -1.55 c 1,0 3.93,0 6.51,1.3 v -25.81 c 0,-1.8 -0.14,-2.39 -4.62,-2.39 h -1.6 v -1.55 c 1.75,0.16 6.08,0.16 8.07,0.16 2,0 6.32,0 8.07,-0.16 v 1.55 h -1.59 c -4.48,0 -4.64,0.54 -4.64,2.39 z"
           id="path2787" /><path
           style="fill:#000000;stroke-width:0"
           inkscape:connector-curvature="0"
           d="m 503.4,422.14 -0.01,0.74 -0.01,0.75 -0.02,0.75 -0.03,0.74 -0.04,0.75 -0.06,0.74 -0.08,0.74 -0.1,0.73 -0.11,0.73 -0.14,0.73 -0.16,0.72 -0.19,0.72 -0.22,0.72 -0.24,0.7 -0.28,0.7 -0.15,0.35 -0.16,0.34 c -2.28,4.8 -6.38,5.6 -8.47,5.6 -2.98,0 -6.63,-1.3 -8.67,-5.94 -1.6,-3.44 -1.85,-7.33 -1.85,-11.31 0,-3.74 0.21,-8.22 2.25,-12 2.14,-4.03 5.79,-5.03 8.22,-5.03 v 1.09 c -1.93,0 -4.89,1.25 -5.78,6.03 -0.55,2.98 -0.55,7.56 -0.55,10.52 0,3.18 0,6.46 0.41,9.15 0.94,5.94 4.67,6.38 5.92,6.38 1.64,0 4.94,-0.89 5.88,-5.83 0.5,-2.78 0.5,-6.58 0.5,-9.7 0,-3.75 0,-7.13 -0.55,-10.32 -0.75,-4.73 -3.59,-6.23 -5.83,-6.23 v 0 -1.09 c 2.69,0 6.47,1.04 8.67,5.78 1.6,3.43 1.85,7.31 1.85,11.25 z"
           id="path2789" /></g>    </g>
    <g
       id="g3043"
       transform="matrix(0.76273533,0,0,0.76273533,5.9964808,17.66253)">
      <g
         word-spacing="normal"
         letter-spacing="normal"
         font-size-adjust="none"
         font-stretch="normal"
         font-weight="normal"
         font-variant="normal"
         font-style="normal"
         stroke-miterlimit="10.433"
         xml:space="preserve"
         transform="matrix(0.3,0,0,-0.3,-52.5,222.75)"
         id="g3041"
         style="font-style:normal;font-variant:normal;font-weight:normal;font-stretch:normal;letter-spacing:normal;word-spacing:normal;text-anchor:start;fill:none;fill-opacity:1;fill-rule:evenodd;stroke:#000000;stroke-linecap:butt;stroke-linejoin:miter;stroke-miterlimit:10.43299961;stroke-dasharray:none;stroke-dashoffset:0;stroke-opacity:1"><path
           id="path3037"
           d="m 470.16,438.09 v 0.05 0.06 0.05 0.05 0.05 0.05 0.04 0.05 0.04 0.04 l -0.01,0.04 v 0.04 0.04 0.03 0.04 l -0.01,0.03 -0.01,0.07 v 0.06 l -0.02,0.05 -0.01,0.05 -0.02,0.05 -0.02,0.04 -0.02,0.04 -0.02,0.03 -0.03,0.03 -0.03,0.03 -0.04,0.03 -0.04,0.02 -0.04,0.02 -0.03,0.01 -0.02,0.01 h -0.03 l -0.02,0.01 -0.03,0.01 h -0.03 l -0.03,0.01 h -0.03 l -0.04,0.01 h -0.03 -0.04 l -0.03,0.01 h -0.04 -0.04 -0.05 -0.04 -0.04 l -0.05,0.01 h -0.05 -0.05 -0.05 -0.05 c -3.09,-3.19 -7.47,-3.19 -9.06,-3.19 v -1.55 c 1,0 3.93,0 6.51,1.3 v -25.81 c 0,-1.8 -0.14,-2.39 -4.62,-2.39 h -1.6 v -1.55 c 1.75,0.16 6.08,0.16 8.07,0.16 2,0 6.32,0 8.07,-0.16 v 1.55 h -1.59 c -4.48,0 -4.64,0.54 -4.64,2.39 z"
           inkscape:connector-curvature="0"
           style="fill:#000000;stroke-width:0" /><path
           id="path3039"
           d="m 502.85,416.21 -0.01,0.56 -0.04,0.54 -0.05,0.54 -0.08,0.53 -0.11,0.53 -0.12,0.51 -0.15,0.5 -0.16,0.5 -0.19,0.48 -0.2,0.47 -0.23,0.46 -0.24,0.44 -0.26,0.43 -0.27,0.41 -0.3,0.4 -0.31,0.38 -0.32,0.36 -0.34,0.35 -0.36,0.32 -0.37,0.31 -0.38,0.29 -0.4,0.26 -0.41,0.25 -0.42,0.22 -0.43,0.2 -0.45,0.17 -0.45,0.15 -0.47,0.13 -0.47,0.09 -0.48,0.07 -0.5,0.05 -0.5,0.01 c -2.39,0 -4.53,-0.8 -6.33,-2.53 v 9.7 c 1,-0.29 2.65,-0.64 4.24,-0.64 6.12,0 9.61,4.53 9.61,5.19 0,0.3 -0.14,0.55 -0.5,0.55 -0.05,0 -0.14,0 -0.39,-0.16 -1,-0.45 -3.44,-1.44 -6.78,-1.44 -1.99,0 -4.28,0.35 -6.63,1.39 -0.39,0.14 -0.5,0.14 -0.59,0.14 -0.5,0 -0.5,-0.39 -0.5,-1.18 v -14.75 c 0,-0.89 0,-1.3 0.7,-1.3 0.34,0 0.44,0.16 0.64,0.45 0.55,0.8 2.39,3.49 6.42,3.49 2.6,0 3.85,-2.3 4.24,-3.19 0.81,-1.84 0.9,-3.78 0.9,-6.28 0,-1.74 0,-4.74 -1.2,-6.83 -1.19,-1.94 -3.03,-3.23 -5.33,-3.23 -3.64,0 -6.47,2.64 -7.33,5.57 0.16,-0.04 0.32,-0.09 0.86,-0.09 1.64,0 2.49,1.25 2.49,2.44 0,1.2 -0.85,2.44 -2.49,2.44 -0.7,0 -2.45,-0.35 -2.45,-2.65 0,-4.28 3.44,-9.1 9.03,-9.1 5.77,0 10.86,4.78 10.86,11.1 z"
           inkscape:connector-curvature="0"
           style="fill:#000000;stroke-width:0" /></g>    </g>
  </g>
</svg>
