<?xml version="1.0" encoding="UTF-8" standalone="no"?>
<!-- Created with Inkscape (http://www.inkscape.org/) -->

<svg
   xmlns:dc="http://purl.org/dc/elements/1.1/"
   xmlns:cc="http://creativecommons.org/ns#"
   xmlns:rdf="http://www.w3.org/1999/02/22-rdf-syntax-ns#"
   xmlns:svg="http://www.w3.org/2000/svg"
   xmlns="http://www.w3.org/2000/svg"
   xmlns:xlink="http://www.w3.org/1999/xlink"
   xmlns:sodipodi="http://sodipodi.sourceforge.net/DTD/sodipodi-0.dtd"
   xmlns:inkscape="http://www.inkscape.org/namespaces/inkscape"
   width="210mm"
   height="297mm"
   viewBox="0 0 210 297"
   version="1.1"
   id="svg8"
   sodipodi:docname="map01.svg"
   inkscape:version="0.92.3 (2405546, 2018-03-11)">
  <sodipodi:namedview
     id="base"
     pagecolor="#ffffff"
     bordercolor="#666666"
     borderopacity="1.0"
     inkscape:pageopacity="0.0"
     inkscape:pageshadow="2"
     inkscape:zoom="0.70910507"
     inkscape:cx="412.14212"
     inkscape:cy="635.26282"
     inkscape:document-units="mm"
     inkscape:current-layer="layer1"
     showgrid="false"
     inkscape:window-width="1213"
     inkscape:window-height="745"
     inkscape:window-x="67"
     inkscape:window-y="27"
     inkscape:window-maximized="1" />
  <defs
     id="defs2">
    <marker
       inkscape:isstock="true"
       style="overflow:visible;"
       id="marker1136"
       refX="0.0"
       refY="0.0"
       orient="auto"
       inkscape:stockid="Arrow1Mend">
      <path
         transform="scale(0.4) rotate(180) translate(10,0)"
         style="fill-rule:evenodd;stroke:#000000;stroke-width:1pt;stroke-opacity:1;fill:#000000;fill-opacity:1"
         d="M 0.0,0.0 L 5.0,-5.0 L -12.5,0.0 L 5.0,5.0 L 0.0,0.0 z "
         id="path1134" />
    </marker>
    <marker
       inkscape:stockid="Arrow1Mend"
       orient="auto"
       refY="0.0"
       refX="0.0"
       id="Arrow1Mend"
       style="overflow:visible;"
       inkscape:isstock="true"
       inkscape:collect="always">
      <path
         id="path853"
         d="M 0.0,0.0 L 5.0,-5.0 L -12.5,0.0 L 5.0,5.0 L 0.0,0.0 z "
         style="fill-rule:evenodd;stroke:#000000;stroke-width:1pt;stroke-opacity:1;fill:#000000;fill-opacity:1"
         transform="scale(0.4) rotate(180) translate(10,0)" />
    </marker>
  </defs>
  <metadata
     id="metadata5">
    <rdf:RDF>
      <cc:Work
         rdf:about="">
        <dc:format>image/svg+xml</dc:format>
        <dc:type
           rdf:resource="http://purl.org/dc/dcmitype/StillImage" />
        <dc:title />
      </cc:Work>
    </rdf:RDF>
  </metadata>
  <g
     inkscape:label="レイヤー 1"
     inkscape:groupmode="layer"
     id="layer1">
    <path
       style="opacity:1;fill:none;fill-opacity:0.54335261;stroke:#000000;stroke-width:3.77952761;stroke-miterlimit:4;stroke-dasharray:none;stroke-dashoffset:0;stroke-opacity:1"
       d="M 246.26479 303.61936 A 153.29753 248.04061 0 0 1 339.59184 531.89221 L 339.59184 531.89221 L 339.59184 531.89221 A 153.29753 248.04061 0 0 1 186.29432 779.93281 A 153.29753 248.04061 0 0 1 32.996788 531.89221 A 153.29753 248.04061 0 0 1 126.6472 303.39766 "
       id="path11"
       transform="scale(0.26458333)" />
    <path
       id="path824"
       d="m 59.249077,103.80189 a 25.456613,41.189665 0 0 1 15.497906,37.90703 v 0 0 A 25.456613,41.189665 0 0 1 49.290371,182.89858 25.456613,41.189665 0 0 1 23.833757,141.70892 25.456613,41.189665 0 0 1 39.38536,103.76507"
       style="opacity:1;fill:none;fill-opacity:0.54335261;stroke:#000000;stroke-width:1;stroke-miterlimit:4;stroke-dasharray:none;stroke-dashoffset:0;stroke-opacity:1"
       inkscape:connector-curvature="0" />
    <path
       id="path826"
       d="m 170.99136,80.332621 a 40.559971,65.627411 0 0 1 24.69292,60.397189 v 0 0 a 40.559971,65.627411 0 0 1 -40.5602,65.62741 40.559971,65.627411 0 0 1 -40.5602,-65.62741 40.559971,65.627411 0 0 1 24.77848,-60.455847"
       style="opacity:1;fill:none;fill-opacity:0.54335261;stroke:#000000;stroke-width:1;stroke-miterlimit:4;stroke-dasharray:none;stroke-dashoffset:0;stroke-opacity:1"
       inkscape:connector-curvature="0" />
    <path
       sodipodi:nodetypes="cccccsc"
       inkscape:connector-curvature="0"
       style="opacity:1;fill:none;fill-opacity:0.54335261;stroke:#000000;stroke-width:1;stroke-miterlimit:4;stroke-dasharray:none;stroke-dashoffset:0;stroke-opacity:1"
       d="m 166.05783,99.919609 c 10.31696,7.095881 17.01527,23.479491 17.01529,41.618231 v 0 0 c 0,24.97564 -12.51325,45.22238 -27.94904,45.22223 -15.43579,1.5e-4 -27.94904,-20.24659 -27.94904,-45.22223 2e-5,-18.1764 6.72582,-34.58639 17.07424,-41.658653"
       id="path828" />
    <path
       sodipodi:nodetypes="cc"
       style="fill:none;stroke:#000000;stroke-width:0.5;stroke-linecap:butt;stroke-linejoin:miter;stroke-miterlimit:4;stroke-dasharray:0.5, 2;stroke-dashoffset:0;stroke-opacity:1"
       d="M 59.249076,103.80189 144.24928,99.879187"
       id="path830"
       inkscape:connector-curvature="0" />
    <path
       sodipodi:nodetypes="cc"
       style="fill:none;stroke:#000000;stroke-width:0.5;stroke-linecap:butt;stroke-linejoin:miter;stroke-miterlimit:4;stroke-dasharray:0.5, 2;stroke-dashoffset:0;stroke-opacity:1"
       d="m 49.472251,183.14106 105.492299,3.63767"
       id="path832"
       inkscape:connector-curvature="0" />
    <flowRoot
       xml:space="preserve"
       id="flowRoot834"
       style="font-style:normal;font-weight:normal;font-size:40px;line-height:1.25;font-family:sans-serif;letter-spacing:0px;word-spacing:0px;fill:#000000;fill-opacity:1;stroke:none"
       transform="scale(0.26458333)"><flowRegion
         id="flowRegion836"><rect
           id="rect838"
           width="54.994629"
           height="52.2449"
           x="155.35983"
           y="502.45523" /></flowRegion><flowPara
         id="flowPara840" /></flowRoot>    <path
       style="fill:none;stroke:#000000;stroke-width:1;stroke-linecap:butt;stroke-linejoin:miter;stroke-opacity:1;stroke-miterlimit:4;stroke-dasharray:none;marker-end:url(#Arrow1Mend)"
       d="m 76.02721,74.738631 h 57.47512"
       id="path842"
       inkscape:connector-curvature="0" />
    <path
       style="fill:none;stroke:#000000;stroke-width:1;stroke-linecap:butt;stroke-linejoin:miter;stroke-miterlimit:4;stroke-dasharray:none;stroke-opacity:1;marker-end:url(#marker1136)"
       d="M 56.020049,141.67168 H 146.69373"
       id="path1126"
       inkscape:connector-curvature="0" />
    <g
       transform="matrix(1.6646796,0,0,1.6646796,-84.370137,-21.289305)"
       id="equation_00"
       style="fill:#000000"
       title="$X$">
      <defs
         id="defs1266">
        <path
           inkscape:connector-curvature="0"
           d="M 4.83188,-4.094645 3.995019,-6.07721 C 3.965131,-6.156912 3.945205,-6.196762 3.945205,-6.206725 c 0,-0.059776 0.169365,-0.249066 0.587796,-0.288916 0.099627,-0.00996 0.199253,-0.019926 0.199253,-0.189291 0,-0.119551 -0.119552,-0.119551 -0.14944,-0.119551 -0.408468,0 -0.836861,0.029888 -1.255292,0.029888 -0.249066,0 -0.86675,-0.029888 -1.115816,-0.029888 -0.059776,0 -0.179327,0 -0.179327,0.199253 0,0.109589 0.099626,0.109589 0.22914,0.109589 0.597759,0 0.657535,0.099626 0.747198,0.318804 L 4.184309,-3.39726 2.082192,-1.135741 1.952677,-1.026152 C 1.464508,-0.498132 0.996264,-0.33873 0.488169,-0.308842 0.358655,-0.298879 0.268991,-0.298879 0.268991,-0.109589 0.268991,-0.099626 0.268991,0 0.398506,0 0.697385,0 1.026152,-0.029888 1.334994,-0.029888 1.703611,-0.029888 2.092154,0 2.450809,0 c 0.059776,0 0.179328,0 0.179328,-0.199253 0,-0.099626 -0.099626,-0.109589 -0.119552,-0.109589 C 2.420922,-0.318804 2.11208,-0.33873 2.11208,-0.617684 c 0,-0.159402 0.149439,-0.318804 0.268991,-0.448318 l 1.016189,-1.075966 0.896638,-0.976338 1.006227,2.381071 c 0.03985,0.109589 0.049813,0.119551 0.049813,0.139477 0,0.079701 -0.18929,0.249066 -0.577833,0.288916 -0.109589,0.009963 -0.199253,0.019925 -0.199253,0.18929 C 4.572852,0 4.682441,0 4.722291,0 5.001245,0 5.69863,-0.029888 5.977584,-0.029888 6.22665,-0.029888 6.834371,0 7.083437,0 c 0.069739,0 0.18929,0 0.18929,-0.18929 0,-0.119552 -0.099626,-0.119552 -0.179327,-0.119552 C 6.425903,-0.318804 6.405978,-0.348692 6.236613,-0.747198 5.84807,-1.673724 5.180573,-3.227895 4.951432,-3.825654 5.628892,-4.523039 6.674969,-5.708593 6.993773,-5.987547 7.28269,-6.22665 7.66127,-6.465753 8.259029,-6.495641 c 0.129514,-0.00996 0.219178,-0.00996 0.219178,-0.199253 0,-0.00996 0,-0.109589 -0.129515,-0.109589 -0.298879,0 -0.627646,0.029888 -0.936488,0.029888 -0.368617,0 -0.747198,-0.029888 -1.105853,-0.029888 -0.059776,0 -0.18929,0 -0.18929,0.199253 0,0.069738 0.049813,0.099626 0.119552,0.109589 0.089663,0.00996 0.398505,0.029888 0.398505,0.308841 0,0.139477 -0.109589,0.268992 -0.18929,0.358656 z"
           id="equation_00_00" />
      </defs>
      <g
         id="equation_00_g">
        <use
           height="100%"
           width="100%"
           x="76.712326"
           xlink:href="#equation_00_00"
           y="62.764633"
           id="use1268" />
      </g>
    </g>
    <g
       transform="matrix(1.6415181,0,0,1.6415181,25.830677,-20.158582)"
       title="$Y$"
       style="fill:#000000"
       id="equation_01">
      <defs
         id="defs1323">
        <path
           inkscape:connector-curvature="0"
           id="equation_01_00"
           d="m 5.947696,-5.668742 0.139477,-0.139477 c 0.298879,-0.298879 0.627646,-0.637609 1.305106,-0.687422 0.109589,-0.00996 0.199253,-0.00996 0.199253,-0.189291 0,-0.079701 -0.049813,-0.119551 -0.129515,-0.119551 -0.259028,0 -0.547945,0.029888 -0.816936,0.029888 -0.328767,0 -0.67746,-0.029888 -0.996264,-0.029888 -0.059776,0 -0.18929,0 -0.18929,0.18929 0,0.109589 0.099626,0.119552 0.149439,0.119552 0.069739,0 0.358655,0.019925 0.358655,0.22914 0,0.169365 -0.22914,0.428394 -0.268991,0.478207 L 3.387298,-3.128269 2.291407,-6.087173 C 2.231631,-6.22665 2.231631,-6.246575 2.231631,-6.256538 c 0,-0.239103 0.48817,-0.239103 0.587796,-0.239103 0.139477,0 0.239104,0 0.239104,-0.199253 0,-0.109589 -0.119552,-0.109589 -0.14944,-0.109589 -0.278954,0 -0.976339,0.029888 -1.255293,0.029888 -0.249066,0 -0.866749,-0.029888 -1.115815,-0.029888 -0.059776,0 -0.189291,0 -0.189291,0.199253 0,0.109589 0.099627,0.109589 0.229141,0.109589 0.597759,0 0.637609,0.089663 0.727273,0.338729 l 1.225405,3.277709 c 0.00996,0.029888 0.03985,0.139477 0.03985,0.169365 0,0.029888 -0.398505,1.633873 -0.448319,1.8132 -0.129514,0.547946 -0.139477,0.577834 -0.936488,0.587796 -0.18929,0 -0.268991,0 -0.268991,0.199253 C 0.916563,0 1.036115,0 1.05604,0 1.334994,0 2.032379,-0.029888 2.311333,-0.029888 2.590287,-0.029888 3.307597,0 3.58655,0 c 0.069739,0 0.189291,0 0.189291,-0.199253 0,-0.109589 -0.089664,-0.109589 -0.278954,-0.109589 -0.019926,0 -0.209216,0 -0.378581,-0.019925 -0.209215,-0.019925 -0.268991,-0.039851 -0.268991,-0.159402 0,-0.069739 0.089664,-0.418431 0.139477,-0.627647 L 3.337484,-2.520548 C 3.387298,-2.709838 3.39726,-2.739726 3.476961,-2.82939 Z" />
      </defs>
      <g
         id="equation_01_g">
        <use
           height="100%"
           width="100%"
           id="use1325"
           y="62.764633"
           xlink:href="#equation_01_00"
           x="76.712326" />
      </g>
    </g>
    <g
       transform="matrix(1.6821123,0,0,1.6821123,-29.901731,-38.584302)"
       id="equation_02"
       style="fill:#000000"
       title="$f$">
      <defs
         id="defs1390">
        <path
           inkscape:connector-curvature="0"
           d="m 3.656289,-3.985056 h 0.856787 c 0.199253,0 0.298879,0 0.298879,-0.199253 0,-0.109589 -0.099626,-0.109589 -0.268991,-0.109589 H 3.716065 L 3.92528,-5.429639 c 0.039851,-0.209215 0.179328,-0.916563 0.239104,-1.036114 0.089663,-0.189291 0.259028,-0.33873 0.468244,-0.33873 0.03985,0 0.298879,0 0.488169,0.179327 -0.438356,0.039851 -0.537983,0.388543 -0.537983,0.537983 0,0.229141 0.179328,0.348692 0.368618,0.348692 0.259029,0 0.547945,-0.219178 0.547945,-0.597758 0,-0.458282 -0.458281,-0.687422 -0.866749,-0.687422 -0.33873,0 -0.966376,0.179327 -1.265256,1.165629 -0.059775,0.209215 -0.089663,0.308841 -0.328767,1.564134 H 2.351183 c -0.18929,0 -0.298879,0 -0.298879,0.18929 0,0.119552 0.089664,0.119552 0.278954,0.119552 h 0.657534 l -0.747198,3.935243 c -0.179327,0.966376 -0.348692,1.872976 -0.86675,1.872976 -0.03985,0 -0.288916,0 -0.478206,-0.179327 0.458281,-0.029888 0.547945,-0.388543 0.547945,-0.537983 0,-0.229141 -0.179328,-0.348692 -0.368618,-0.348692 -0.259029,0 -0.547945,0.219178 -0.547945,0.597758 0,0.448319 0.438356,0.687422 0.846824,0.687422 0.547946,0 0.946451,-0.587796 1.125779,-0.966376 0.318804,-0.627646 0.547945,-1.833126 0.557908,-1.902864 z"
           id="equation_02_00" />
      </defs>
      <g
         id="equation_02_g">
        <use
           height="100%"
           width="100%"
           x="76.712326"
           xlink:href="#equation_02_00"
           y="62.764633"
           id="use1392" />
      </g>
    </g>
    <g
       transform="matrix(1.2278902,0,0,1.2278902,48.999928,18.284822)"
       title="$f(A)$"
       style="fill:#000000"
       id="equation_03">
      <defs
         id="defs1470">
        <path
           inkscape:connector-curvature="0"
           id="equation_03_00"
           d="m 3.297634,2.391034 c 0,-0.029888 0,-0.049814 -0.169365,-0.219178 -1.24533,-1.255293 -1.564135,-3.138232 -1.564135,-4.662516 0,-1.733499 0.378581,-3.466999 1.603986,-4.712329 0.129514,-0.119551 0.129514,-0.139477 0.129514,-0.169365 0,-0.069738 -0.039851,-0.099626 -0.099627,-0.099626 -0.099626,0 -0.996264,0.677459 -1.584059,1.942715 -0.508095,1.09589 -0.627647,2.201743 -0.627647,3.038605 0,0.777086 0.109589,1.982565 0.657535,3.108344 0.597758,1.225404 1.454545,1.872976 1.554171,1.872976 0.059776,0 0.099627,-0.029888 0.099627,-0.099626 z" />
        <path
           inkscape:connector-curvature="0"
           id="equation_03_01"
           d="m 2.879203,-2.49066 c 0,-0.777086 -0.109589,-1.982565 -0.657534,-3.108344 C 1.62391,-6.824408 0.767123,-7.47198 0.667497,-7.47198 c -0.059776,0 -0.099627,0.03985 -0.099627,0.099626 0,0.029888 0,0.049814 0.189291,0.229141 0.976338,0.986301 1.544209,2.570361 1.544209,4.652553 0,1.703611 -0.368618,3.457036 -1.603985,4.712329 C 0.56787,2.34122 0.56787,2.361146 0.56787,2.391034 c 0,0.059775 0.039851,0.099626 0.099627,0.099626 0.099626,0 0.996264,-0.67746 1.58406,-1.942715 0.508094,-1.09589 0.627646,-2.201743 0.627646,-3.038605 z" />
        <path
           inkscape:connector-curvature="0"
           id="equation_03_02"
           d="M 1.783313,-1.145704 C 1.384807,-0.478207 0.996264,-0.33873 0.557908,-0.308842 0.438356,-0.298879 0.348692,-0.298879 0.348692,-0.109589 0.348692,-0.049813 0.398506,0 0.478207,0 0.747198,0 1.05604,-0.029888 1.334994,-0.029888 1.663761,-0.029888 2.012453,0 2.331258,0 c 0.059776,0 0.18929,0 0.18929,-0.18929 0,-0.109589 -0.089664,-0.119552 -0.159402,-0.119552 -0.229141,-0.019925 -0.468244,-0.099626 -0.468244,-0.348692 0,-0.119552 0.059775,-0.229141 0.139477,-0.368618 l 0.75716,-1.275218 h 2.500623 c 0.019925,0.209216 0.159402,1.564135 0.159402,1.663761 0,0.298879 -0.518057,0.328767 -0.71731,0.328767 -0.139477,0 -0.239103,0 -0.239103,0.199253 C 4.493151,0 4.612702,0 4.632628,0 5.041096,0 5.469489,-0.029888 5.877958,-0.029888 6.127024,-0.029888 6.75467,0 7.003736,0 c 0.059776,0 0.179328,0 0.179328,-0.199253 0,-0.109589 -0.099627,-0.109589 -0.229141,-0.109589 -0.617684,0 -0.617684,-0.069738 -0.647572,-0.358655 L 5.69863,-6.894147 C 5.678705,-7.0934 5.678705,-7.13325 5.50934,-7.13325 c -0.159402,0 -0.199253,0.069738 -0.259029,0.169365 z m 1.195516,-1.464508 1.96264,-3.287671 0.318805,3.287671 z" />
        <path
           inkscape:connector-curvature="0"
           id="equation_03_03"
           d="m 3.656289,-3.985056 h 0.856787 c 0.199253,0 0.298879,0 0.298879,-0.199253 0,-0.109589 -0.099626,-0.109589 -0.268991,-0.109589 H 3.716065 L 3.92528,-5.429639 c 0.039851,-0.209215 0.179328,-0.916563 0.239104,-1.036114 0.089663,-0.189291 0.259028,-0.33873 0.468244,-0.33873 0.03985,0 0.298879,0 0.488169,0.179327 -0.438356,0.039851 -0.537983,0.388543 -0.537983,0.537983 0,0.229141 0.179328,0.348692 0.368618,0.348692 0.259029,0 0.547945,-0.219178 0.547945,-0.597758 0,-0.458282 -0.458281,-0.687422 -0.866749,-0.687422 -0.33873,0 -0.966376,0.179327 -1.265256,1.165629 -0.059775,0.209215 -0.089663,0.308841 -0.328767,1.564134 H 2.351183 c -0.18929,0 -0.298879,0 -0.298879,0.18929 0,0.119552 0.089664,0.119552 0.278954,0.119552 h 0.657534 l -0.747198,3.935243 c -0.179327,0.966376 -0.348692,1.872976 -0.86675,1.872976 -0.03985,0 -0.288916,0 -0.478206,-0.179327 0.458281,-0.029888 0.547945,-0.388543 0.547945,-0.537983 0,-0.229141 -0.179328,-0.348692 -0.368618,-0.348692 -0.259029,0 -0.547945,0.219178 -0.547945,0.597758 0,0.448319 0.438356,0.687422 0.846824,0.687422 0.547946,0 0.946451,-0.587796 1.125779,-0.966376 0.318804,-0.627646 0.547945,-1.833126 0.557908,-1.902864 z" />
      </defs>
      <g
         id="equation_03_g">
        <use
           height="100%"
           width="100%"
           id="use1472"
           y="62.764633"
           xlink:href="#equation_03_03"
           x="76.712326" />
        <use
           height="100%"
           width="100%"
           id="use1474"
           y="62.764633"
           xlink:href="#equation_03_00"
           x="82.662277" />
        <use
           height="100%"
           width="100%"
           id="use1476"
           y="62.764633"
           xlink:href="#equation_03_02"
           x="86.536652" />
        <use
           height="100%"
           width="100%"
           id="use1478"
           y="62.764633"
           xlink:href="#equation_03_01"
           x="94.008652" />
      </g>
    </g>
    <g
       transform="matrix(1.6629468,0,0,1.6629468,-84.818748,2.3396451)"
       id="equation_04"
       style="fill:#000000"
       title="$A$">
      <defs
         id="defs1575">
        <path
           inkscape:connector-curvature="0"
           d="M 1.783313,-1.145704 C 1.384807,-0.478207 0.996264,-0.33873 0.557908,-0.308842 0.438356,-0.298879 0.348692,-0.298879 0.348692,-0.109589 0.348692,-0.049813 0.398506,0 0.478207,0 0.747198,0 1.05604,-0.029888 1.334994,-0.029888 1.663761,-0.029888 2.012453,0 2.331258,0 c 0.059776,0 0.18929,0 0.18929,-0.18929 0,-0.109589 -0.089664,-0.119552 -0.159402,-0.119552 -0.229141,-0.019925 -0.468244,-0.099626 -0.468244,-0.348692 0,-0.119552 0.059775,-0.229141 0.139477,-0.368618 l 0.75716,-1.275218 h 2.500623 c 0.019925,0.209216 0.159402,1.564135 0.159402,1.663761 0,0.298879 -0.518057,0.328767 -0.71731,0.328767 -0.139477,0 -0.239103,0 -0.239103,0.199253 C 4.493151,0 4.612702,0 4.632628,0 5.041096,0 5.469489,-0.029888 5.877958,-0.029888 6.127024,-0.029888 6.75467,0 7.003736,0 c 0.059776,0 0.179328,0 0.179328,-0.199253 0,-0.109589 -0.099627,-0.109589 -0.229141,-0.109589 -0.617684,0 -0.617684,-0.069738 -0.647572,-0.358655 L 5.69863,-6.894147 C 5.678705,-7.0934 5.678705,-7.13325 5.50934,-7.13325 c -0.159402,0 -0.199253,0.069738 -0.259029,0.169365 z m 1.195516,-1.464508 1.96264,-3.287671 0.318805,3.287671 z"
           id="equation_04_00" />
      </defs>
      <g
         id="equation_04_g">
        <use
           height="100%"
           width="100%"
           x="76.712326"
           xlink:href="#equation_04_00"
           y="62.764633"
           id="use1577" />
      </g>
    </g>
    <g
       transform="matrix(1.6377829,0,0,1.6377829,-81.885992,30.736109)"
       title="$a$"
       style="fill:#000000"
       id="equation_05">
      <defs
         id="defs1684">
        <path
           inkscape:connector-curvature="0"
           id="equation_05_00"
           d="M 3.716065,-3.765878 C 3.536737,-4.134496 3.247821,-4.403487 2.799502,-4.403487 c -1.165629,0 -2.400996,1.464508 -2.400996,2.919054 0,0.936488 0.547945,1.594022 1.325031,1.594022 0.199253,0 0.697385,-0.039851 1.295143,-0.747198 0.079701,0.418431 0.428393,0.747198 0.9066,0.747198 0.348693,0 0.577833,-0.229141 0.737236,-0.547945 0.169364,-0.358655 0.298879,-0.966376 0.298879,-0.986302 0,-0.099626 -0.089664,-0.099626 -0.119552,-0.099626 -0.099626,0 -0.109589,0.039851 -0.139477,0.179328 -0.169365,0.647571 -0.348692,1.235367 -0.757161,1.235367 -0.268991,0 -0.298879,-0.259029 -0.298879,-0.458281 0,-0.219179 0.019926,-0.29888 0.129515,-0.737236 0.109589,-0.418431 0.129514,-0.518057 0.219178,-0.896637 l 0.358655,-1.39477 c 0.069738,-0.278954 0.069738,-0.298879 0.069738,-0.33873 0,-0.169365 -0.119551,-0.268991 -0.288916,-0.268991 -0.239104,0 -0.388543,0.219178 -0.418431,0.438356 z M 3.068493,-1.185554 C 3.01868,-1.006227 3.01868,-0.986301 2.86924,-0.816936 c -0.438356,0.547945 -0.846824,0.707347 -1.125778,0.707347 -0.498132,0 -0.637609,-0.547945 -0.637609,-0.936488 0,-0.498132 0.318805,-1.723537 0.547945,-2.181818 0.308842,-0.587796 0.757161,-0.956414 1.155667,-0.956414 0.647571,0 0.787048,0.816937 0.787048,0.876712 0,0.059775 -0.019925,0.119552 -0.029888,0.169365 z" />
      </defs>
      <g
         id="equation_05_g">
        <use
           height="100%"
           width="100%"
           id="use1686"
           y="62.764633"
           xlink:href="#equation_05_00"
           x="76.712326" />
      </g>
    </g>
    <g
       transform="matrix(1.2353189,0,0,1.2353189,49.790962,55.102856)"
       id="equation_06"
       style="fill:#000000"
       title="$f(a)$">
      <defs
         id="defs1806">
        <path
           inkscape:connector-curvature="0"
           d="m 3.297634,2.391034 c 0,-0.029888 0,-0.049814 -0.169365,-0.219178 -1.24533,-1.255293 -1.564135,-3.138232 -1.564135,-4.662516 0,-1.733499 0.378581,-3.466999 1.603986,-4.712329 0.129514,-0.119551 0.129514,-0.139477 0.129514,-0.169365 0,-0.069738 -0.039851,-0.099626 -0.099627,-0.099626 -0.099626,0 -0.996264,0.677459 -1.584059,1.942715 -0.508095,1.09589 -0.627647,2.201743 -0.627647,3.038605 0,0.777086 0.109589,1.982565 0.657535,3.108344 0.597758,1.225404 1.454545,1.872976 1.554171,1.872976 0.059776,0 0.099627,-0.029888 0.099627,-0.099626 z"
           id="equation_06_00" />
        <path
           inkscape:connector-curvature="0"
           d="m 2.879203,-2.49066 c 0,-0.777086 -0.109589,-1.982565 -0.657534,-3.108344 C 1.62391,-6.824408 0.767123,-7.47198 0.667497,-7.47198 c -0.059776,0 -0.099627,0.03985 -0.099627,0.099626 0,0.029888 0,0.049814 0.189291,0.229141 0.976338,0.986301 1.544209,2.570361 1.544209,4.652553 0,1.703611 -0.368618,3.457036 -1.603985,4.712329 C 0.56787,2.34122 0.56787,2.361146 0.56787,2.391034 c 0,0.059775 0.039851,0.099626 0.099627,0.099626 0.099626,0 0.996264,-0.67746 1.58406,-1.942715 0.508094,-1.09589 0.627646,-2.201743 0.627646,-3.038605 z"
           id="equation_06_01" />
        <path
           inkscape:connector-curvature="0"
           d="M 3.716065,-3.765878 C 3.536737,-4.134496 3.247821,-4.403487 2.799502,-4.403487 c -1.165629,0 -2.400996,1.464508 -2.400996,2.919054 0,0.936488 0.547945,1.594022 1.325031,1.594022 0.199253,0 0.697385,-0.039851 1.295143,-0.747198 0.079701,0.418431 0.428393,0.747198 0.9066,0.747198 0.348693,0 0.577833,-0.229141 0.737236,-0.547945 0.169364,-0.358655 0.298879,-0.966376 0.298879,-0.986302 0,-0.099626 -0.089664,-0.099626 -0.119552,-0.099626 -0.099626,0 -0.109589,0.039851 -0.139477,0.179328 -0.169365,0.647571 -0.348692,1.235367 -0.757161,1.235367 -0.268991,0 -0.298879,-0.259029 -0.298879,-0.458281 0,-0.219179 0.019926,-0.29888 0.129515,-0.737236 0.109589,-0.418431 0.129514,-0.518057 0.219178,-0.896637 l 0.358655,-1.39477 c 0.069738,-0.278954 0.069738,-0.298879 0.069738,-0.33873 0,-0.169365 -0.119551,-0.268991 -0.288916,-0.268991 -0.239104,0 -0.388543,0.219178 -0.418431,0.438356 z M 3.068493,-1.185554 C 3.01868,-1.006227 3.01868,-0.986301 2.86924,-0.816936 c -0.438356,0.547945 -0.846824,0.707347 -1.125778,0.707347 -0.498132,0 -0.637609,-0.547945 -0.637609,-0.936488 0,-0.498132 0.318805,-1.723537 0.547945,-2.181818 0.308842,-0.587796 0.757161,-0.956414 1.155667,-0.956414 0.647571,0 0.787048,0.816937 0.787048,0.876712 0,0.059775 -0.019925,0.119552 -0.029888,0.169365 z"
           id="equation_06_02" />
        <path
           inkscape:connector-curvature="0"
           d="m 3.656289,-3.985056 h 0.856787 c 0.199253,0 0.298879,0 0.298879,-0.199253 0,-0.109589 -0.099626,-0.109589 -0.268991,-0.109589 H 3.716065 L 3.92528,-5.429639 c 0.039851,-0.209215 0.179328,-0.916563 0.239104,-1.036114 0.089663,-0.189291 0.259028,-0.33873 0.468244,-0.33873 0.03985,0 0.298879,0 0.488169,0.179327 -0.438356,0.039851 -0.537983,0.388543 -0.537983,0.537983 0,0.229141 0.179328,0.348692 0.368618,0.348692 0.259029,0 0.547945,-0.219178 0.547945,-0.597758 0,-0.458282 -0.458281,-0.687422 -0.866749,-0.687422 -0.33873,0 -0.966376,0.179327 -1.265256,1.165629 -0.059775,0.209215 -0.089663,0.308841 -0.328767,1.564134 H 2.351183 c -0.18929,0 -0.298879,0 -0.298879,0.18929 0,0.119552 0.089664,0.119552 0.278954,0.119552 h 0.657534 l -0.747198,3.935243 c -0.179327,0.966376 -0.348692,1.872976 -0.86675,1.872976 -0.03985,0 -0.288916,0 -0.478206,-0.179327 0.458281,-0.029888 0.547945,-0.388543 0.547945,-0.537983 0,-0.229141 -0.179328,-0.348692 -0.368618,-0.348692 -0.259029,0 -0.547945,0.219178 -0.547945,0.597758 0,0.448319 0.438356,0.687422 0.846824,0.687422 0.547946,0 0.946451,-0.587796 1.125779,-0.966376 0.318804,-0.627646 0.547945,-1.833126 0.557908,-1.902864 z"
           id="equation_06_03" />
      </defs>
      <g
         id="equation_06_g">
        <use
           height="100%"
           width="100%"
           x="76.712326"
           xlink:href="#equation_06_03"
           y="62.764633"
           id="use1808" />
        <use
           height="100%"
           width="100%"
           x="82.662277"
           xlink:href="#equation_06_00"
           y="62.764633"
           id="use1810" />
        <use
           height="100%"
           width="100%"
           x="86.536652"
           xlink:href="#equation_06_02"
           y="62.764633"
           id="use1812" />
        <use
           height="100%"
           width="100%"
           x="91.802803"
           xlink:href="#equation_06_01"
           y="62.764633"
           id="use1814" />
      </g>
    </g>
    <g
       title="$\times$"
       style="fill:#000000"
       id="equation_07"
       transform="translate(-32.011457,81.483709)">
      <defs
         id="defs1953">
        <path
           id="equation_07_00"
           d="M 3.875467,-2.769614 1.882939,-4.752179 C 1.763387,-4.871731 1.743462,-4.891656 1.663761,-4.891656 c -0.099627,0 -0.199253,0.089663 -0.199253,0.199253 0,0.069738 0.019925,0.089663 0.129514,0.199252 L 3.58655,-2.49066 1.594022,-0.488169 c -0.109589,0.109589 -0.129514,0.129514 -0.129514,0.199252 0,0.109589 0.099626,0.199253 0.199253,0.199253 0.079701,0 0.099626,-0.019925 0.219178,-0.139477 l 1.982565,-1.982565 2.062267,2.062266 c 0.019925,0.009963 0.089664,0.059776 0.149439,0.059776 0.119552,0 0.199253,-0.089664 0.199253,-0.199253 0,-0.019925 0,-0.059775 -0.029888,-0.109589 C 6.236613,-0.418431 4.652553,-1.982565 4.154421,-2.49066 l 1.823163,-1.823163 c 0.049813,-0.059776 0.199253,-0.18929 0.249066,-0.249066 0.00996,-0.019925 0.049813,-0.059776 0.049813,-0.129514 0,-0.10959 -0.079701,-0.199253 -0.199253,-0.199253 -0.079701,0 -0.119551,0.03985 -0.22914,0.149439 z"
           inkscape:connector-curvature="0" />
      </defs>
      <g
         id="equation_07_g">
        <use
           id="use1955"
           y="62.764633"
           xlink:href="#equation_07_00"
           x="76.712326"
           width="100%"
           height="100%" />
      </g>
    </g>
    <g
       transform="translate(75.409432,81.483709)"
       id="g2040"
       style="fill:#000000"
       title="$\times$">
      <defs
         id="defs2034">
        <path
           inkscape:connector-curvature="0"
           d="M 3.875467,-2.769614 1.882939,-4.752179 C 1.763387,-4.871731 1.743462,-4.891656 1.663761,-4.891656 c -0.099627,0 -0.199253,0.089663 -0.199253,0.199253 0,0.069738 0.019925,0.089663 0.129514,0.199252 L 3.58655,-2.49066 1.594022,-0.488169 c -0.109589,0.109589 -0.129514,0.129514 -0.129514,0.199252 0,0.109589 0.099626,0.199253 0.199253,0.199253 0.079701,0 0.099626,-0.019925 0.219178,-0.139477 l 1.982565,-1.982565 2.062267,2.062266 c 0.019925,0.009963 0.089664,0.059776 0.149439,0.059776 0.119552,0 0.199253,-0.089664 0.199253,-0.199253 0,-0.019925 0,-0.059775 -0.029888,-0.109589 C 6.236613,-0.418431 4.652553,-1.982565 4.154421,-2.49066 l 1.823163,-1.823163 c 0.049813,-0.059776 0.199253,-0.18929 0.249066,-0.249066 0.00996,-0.019925 0.049813,-0.059776 0.049813,-0.129514 0,-0.10959 -0.079701,-0.199253 -0.199253,-0.199253 -0.079701,0 -0.119551,0.03985 -0.22914,0.149439 z"
           id="path2032" />
      </defs>
      <g
         id="g2038">
        <use
           height="100%"
           width="100%"
           x="76.712326"
           xlink:href="#equation_07_00"
           y="62.764633"
           id="use2036" />
      </g>
    </g>
  </g>
</svg>
