<?xml version="1.0" encoding="UTF-8" standalone="no"?>
<!-- Created with Inkscape (http://www.inkscape.org/) -->

<svg
   xmlns:dc="http://purl.org/dc/elements/1.1/"
   xmlns:cc="http://creativecommons.org/ns#"
   xmlns:rdf="http://www.w3.org/1999/02/22-rdf-syntax-ns#"
   xmlns:svg="http://www.w3.org/2000/svg"
   xmlns="http://www.w3.org/2000/svg"
   xmlns:xlink="http://www.w3.org/1999/xlink"
   xmlns:sodipodi="http://sodipodi.sourceforge.net/DTD/sodipodi-0.dtd"
   xmlns:inkscape="http://www.inkscape.org/namespaces/inkscape"
   width="210mm"
   height="297mm"
   viewBox="0 0 210 297"
   version="1.1"
   id="svg8"
   sodipodi:docname="map02.svg"
   inkscape:version="0.92.3 (2405546, 2018-03-11)">
  <sodipodi:namedview
     id="base"
     pagecolor="#ffffff"
     bordercolor="#666666"
     borderopacity="1.0"
     inkscape:pageopacity="0.0"
     inkscape:pageshadow="2"
     inkscape:zoom="0.66245342"
     inkscape:cx="313.37195"
     inkscape:cy="635.26282"
     inkscape:document-units="mm"
     inkscape:current-layer="layer1"
     showgrid="false"
     inkscape:window-width="1213"
     inkscape:window-height="745"
     inkscape:window-x="67"
     inkscape:window-y="27"
     inkscape:window-maximized="1" />
  <defs
     id="defs2">
    <marker
       inkscape:stockid="Arrow1Mend"
       orient="auto"
       refY="0.0"
       refX="0.0"
       id="marker1136"
       style="overflow:visible;"
       inkscape:isstock="true">
      <path
         id="path1134"
         d="M 0.0,0.0 L 5.0,-5.0 L -12.5,0.0 L 5.0,5.0 L 0.0,0.0 z "
         style="fill-rule:evenodd;stroke:#000000;stroke-width:1pt;stroke-opacity:1;fill:#000000;fill-opacity:1"
         transform="scale(0.4) rotate(180) translate(10,0)" />
    </marker>
    <marker
       inkscape:collect="always"
       inkscape:isstock="true"
       style="overflow:visible;"
       id="Arrow1Mend"
       refX="0.0"
       refY="0.0"
       orient="auto"
       inkscape:stockid="Arrow1Mend">
      <path
         transform="scale(0.4) rotate(180) translate(10,0)"
         style="fill-rule:evenodd;stroke:#000000;stroke-width:1pt;stroke-opacity:1;fill:#000000;fill-opacity:1"
         d="M 0.0,0.0 L 5.0,-5.0 L -12.5,0.0 L 5.0,5.0 L 0.0,0.0 z "
         id="path853" />
    </marker>
  </defs>
  <metadata
     id="metadata5">
    <rdf:RDF>
      <cc:Work
         rdf:about="">
        <dc:format>image/svg+xml</dc:format>
        <dc:type
           rdf:resource="http://purl.org/dc/dcmitype/StillImage" />
        <dc:title />
      </cc:Work>
    </rdf:RDF>
  </metadata>
  <g
     id="layer1"
     inkscape:groupmode="layer"
     inkscape:label="レイヤー 1">
    <path
       transform="scale(0.26458333)"
       id="path11"
       d="M 246.26479 303.61936 A 153.29753 248.04061 0 0 1 339.59184 531.89221 L 339.59184 531.89221 L 339.59184 531.89221 A 153.29753 248.04061 0 0 1 186.29432 779.93281 A 153.29753 248.04061 0 0 1 32.996788 531.89221 A 153.29753 248.04061 0 0 1 126.6472 303.39766 "
       style="opacity:1;fill:none;fill-opacity:0.54335261;stroke:#000000;stroke-width:3.77952761;stroke-miterlimit:4;stroke-dasharray:none;stroke-dashoffset:0;stroke-opacity:1" />
    <path
       inkscape:connector-curvature="0"
       style="opacity:1;fill:none;fill-opacity:0.54335261;stroke:#000000;stroke-width:1;stroke-miterlimit:4;stroke-dasharray:none;stroke-dashoffset:0;stroke-opacity:1"
       d="m 170.99136,80.332621 a 40.559971,65.627411 0 0 1 24.69292,60.397189 v 0 0 a 40.559971,65.627411 0 0 1 -40.5602,65.62741 40.559971,65.627411 0 0 1 -40.5602,-65.62741 40.559971,65.627411 0 0 1 24.77848,-60.455847"
       id="path826" />
    <path
       id="path828"
       d="m 166.05783,99.919609 c 10.31696,7.095881 17.01527,23.479491 17.01529,41.618231 v 0 0 c 0,24.97564 -12.51325,45.22238 -27.94904,45.22223 -15.43579,1.5e-4 -27.94904,-20.24659 -27.94904,-45.22223 2e-5,-18.1764 6.72582,-34.58639 17.07424,-41.658653"
       style="opacity:1;fill:none;fill-opacity:0.54335261;stroke:#000000;stroke-width:1;stroke-miterlimit:4;stroke-dasharray:none;stroke-dashoffset:0;stroke-opacity:1"
       inkscape:connector-curvature="0"
       sodipodi:nodetypes="cccccsc" />
    <flowRoot
       transform="scale(0.26458333)"
       style="font-style:normal;font-weight:normal;font-size:40px;line-height:1.25;font-family:sans-serif;letter-spacing:0px;word-spacing:0px;fill:#000000;fill-opacity:1;stroke:none"
       id="flowRoot834"
       xml:space="preserve"><flowRegion
         id="flowRegion836"><rect
           y="502.45523"
           x="155.35983"
           height="52.2449"
           width="54.994629"
           id="rect838" /></flowRegion><flowPara
         id="flowPara840" /></flowRoot>    <path
       inkscape:connector-curvature="0"
       id="path842"
       d="m 76.02721,74.738631 h 57.47512"
       style="fill:none;stroke:#000000;stroke-width:1;stroke-linecap:butt;stroke-linejoin:miter;stroke-opacity:1;stroke-miterlimit:4;stroke-dasharray:none;marker-end:url(#Arrow1Mend)" />
    <g
       title="$X$"
       style="fill:#000000"
       id="equation_00"
       transform="matrix(1.6646796,0,0,1.6646796,-84.370137,-21.289305)">
      <defs
         id="defs1266">
        <path
           id="equation_00_00"
           d="M 4.83188,-4.094645 3.995019,-6.07721 C 3.965131,-6.156912 3.945205,-6.196762 3.945205,-6.206725 c 0,-0.059776 0.169365,-0.249066 0.587796,-0.288916 0.099627,-0.00996 0.199253,-0.019926 0.199253,-0.189291 0,-0.119551 -0.119552,-0.119551 -0.14944,-0.119551 -0.408468,0 -0.836861,0.029888 -1.255292,0.029888 -0.249066,0 -0.86675,-0.029888 -1.115816,-0.029888 -0.059776,0 -0.179327,0 -0.179327,0.199253 0,0.109589 0.099626,0.109589 0.22914,0.109589 0.597759,0 0.657535,0.099626 0.747198,0.318804 L 4.184309,-3.39726 2.082192,-1.135741 1.952677,-1.026152 C 1.464508,-0.498132 0.996264,-0.33873 0.488169,-0.308842 0.358655,-0.298879 0.268991,-0.298879 0.268991,-0.109589 0.268991,-0.099626 0.268991,0 0.398506,0 0.697385,0 1.026152,-0.029888 1.334994,-0.029888 1.703611,-0.029888 2.092154,0 2.450809,0 c 0.059776,0 0.179328,0 0.179328,-0.199253 0,-0.099626 -0.099626,-0.109589 -0.119552,-0.109589 C 2.420922,-0.318804 2.11208,-0.33873 2.11208,-0.617684 c 0,-0.159402 0.149439,-0.318804 0.268991,-0.448318 l 1.016189,-1.075966 0.896638,-0.976338 1.006227,2.381071 c 0.03985,0.109589 0.049813,0.119551 0.049813,0.139477 0,0.079701 -0.18929,0.249066 -0.577833,0.288916 -0.109589,0.009963 -0.199253,0.019925 -0.199253,0.18929 C 4.572852,0 4.682441,0 4.722291,0 5.001245,0 5.69863,-0.029888 5.977584,-0.029888 6.22665,-0.029888 6.834371,0 7.083437,0 c 0.069739,0 0.18929,0 0.18929,-0.18929 0,-0.119552 -0.099626,-0.119552 -0.179327,-0.119552 C 6.425903,-0.318804 6.405978,-0.348692 6.236613,-0.747198 5.84807,-1.673724 5.180573,-3.227895 4.951432,-3.825654 5.628892,-4.523039 6.674969,-5.708593 6.993773,-5.987547 7.28269,-6.22665 7.66127,-6.465753 8.259029,-6.495641 c 0.129514,-0.00996 0.219178,-0.00996 0.219178,-0.199253 0,-0.00996 0,-0.109589 -0.129515,-0.109589 -0.298879,0 -0.627646,0.029888 -0.936488,0.029888 -0.368617,0 -0.747198,-0.029888 -1.105853,-0.029888 -0.059776,0 -0.18929,0 -0.18929,0.199253 0,0.069738 0.049813,0.099626 0.119552,0.109589 0.089663,0.00996 0.398505,0.029888 0.398505,0.308841 0,0.139477 -0.109589,0.268992 -0.18929,0.358656 z"
           inkscape:connector-curvature="0" />
      </defs>
      <g
         id="equation_00_g">
        <use
           id="use1268"
           y="62.764633"
           xlink:href="#equation_00_00"
           x="76.712326"
           width="100%"
           height="100%" />
      </g>
    </g>
    <g
       id="equation_01"
       style="fill:#000000"
       title="$Y$"
       transform="matrix(1.6415181,0,0,1.6415181,25.830677,-20.158582)">
      <defs
         id="defs1323">
        <path
           d="m 5.947696,-5.668742 0.139477,-0.139477 c 0.298879,-0.298879 0.627646,-0.637609 1.305106,-0.687422 0.109589,-0.00996 0.199253,-0.00996 0.199253,-0.189291 0,-0.079701 -0.049813,-0.119551 -0.129515,-0.119551 -0.259028,0 -0.547945,0.029888 -0.816936,0.029888 -0.328767,0 -0.67746,-0.029888 -0.996264,-0.029888 -0.059776,0 -0.18929,0 -0.18929,0.18929 0,0.109589 0.099626,0.119552 0.149439,0.119552 0.069739,0 0.358655,0.019925 0.358655,0.22914 0,0.169365 -0.22914,0.428394 -0.268991,0.478207 L 3.387298,-3.128269 2.291407,-6.087173 C 2.231631,-6.22665 2.231631,-6.246575 2.231631,-6.256538 c 0,-0.239103 0.48817,-0.239103 0.587796,-0.239103 0.139477,0 0.239104,0 0.239104,-0.199253 0,-0.109589 -0.119552,-0.109589 -0.14944,-0.109589 -0.278954,0 -0.976339,0.029888 -1.255293,0.029888 -0.249066,0 -0.866749,-0.029888 -1.115815,-0.029888 -0.059776,0 -0.189291,0 -0.189291,0.199253 0,0.109589 0.099627,0.109589 0.229141,0.109589 0.597759,0 0.637609,0.089663 0.727273,0.338729 l 1.225405,3.277709 c 0.00996,0.029888 0.03985,0.139477 0.03985,0.169365 0,0.029888 -0.398505,1.633873 -0.448319,1.8132 -0.129514,0.547946 -0.139477,0.577834 -0.936488,0.587796 -0.18929,0 -0.268991,0 -0.268991,0.199253 C 0.916563,0 1.036115,0 1.05604,0 1.334994,0 2.032379,-0.029888 2.311333,-0.029888 2.590287,-0.029888 3.307597,0 3.58655,0 c 0.069739,0 0.189291,0 0.189291,-0.199253 0,-0.109589 -0.089664,-0.109589 -0.278954,-0.109589 -0.019926,0 -0.209216,0 -0.378581,-0.019925 -0.209215,-0.019925 -0.268991,-0.039851 -0.268991,-0.159402 0,-0.069739 0.089664,-0.418431 0.139477,-0.627647 L 3.337484,-2.520548 C 3.387298,-2.709838 3.39726,-2.739726 3.476961,-2.82939 Z"
           id="equation_01_00"
           inkscape:connector-curvature="0" />
      </defs>
      <g
         id="equation_01_g">
        <use
           x="76.712326"
           xlink:href="#equation_01_00"
           y="62.764633"
           id="use1325"
           width="100%"
           height="100%" />
      </g>
    </g>
    <g
       title="$f$"
       style="fill:#000000"
       id="equation_02"
       transform="matrix(1.6821123,0,0,1.6821123,-29.901731,-38.584302)">
      <defs
         id="defs1390">
        <path
           id="equation_02_00"
           d="m 3.656289,-3.985056 h 0.856787 c 0.199253,0 0.298879,0 0.298879,-0.199253 0,-0.109589 -0.099626,-0.109589 -0.268991,-0.109589 H 3.716065 L 3.92528,-5.429639 c 0.039851,-0.209215 0.179328,-0.916563 0.239104,-1.036114 0.089663,-0.189291 0.259028,-0.33873 0.468244,-0.33873 0.03985,0 0.298879,0 0.488169,0.179327 -0.438356,0.039851 -0.537983,0.388543 -0.537983,0.537983 0,0.229141 0.179328,0.348692 0.368618,0.348692 0.259029,0 0.547945,-0.219178 0.547945,-0.597758 0,-0.458282 -0.458281,-0.687422 -0.866749,-0.687422 -0.33873,0 -0.966376,0.179327 -1.265256,1.165629 -0.059775,0.209215 -0.089663,0.308841 -0.328767,1.564134 H 2.351183 c -0.18929,0 -0.298879,0 -0.298879,0.18929 0,0.119552 0.089664,0.119552 0.278954,0.119552 h 0.657534 l -0.747198,3.935243 c -0.179327,0.966376 -0.348692,1.872976 -0.86675,1.872976 -0.03985,0 -0.288916,0 -0.478206,-0.179327 0.458281,-0.029888 0.547945,-0.388543 0.547945,-0.537983 0,-0.229141 -0.179328,-0.348692 -0.368618,-0.348692 -0.259029,0 -0.547945,0.219178 -0.547945,0.597758 0,0.448319 0.438356,0.687422 0.846824,0.687422 0.547946,0 0.946451,-0.587796 1.125779,-0.966376 0.318804,-0.627646 0.547945,-1.833126 0.557908,-1.902864 z"
           inkscape:connector-curvature="0" />
      </defs>
      <g
         id="equation_02_g">
        <use
           id="use1392"
           y="62.764633"
           xlink:href="#equation_02_00"
           x="76.712326"
           width="100%"
           height="100%" />
      </g>
    </g>
    <g
       title="$f(X)$"
       style="fill:#000000"
       id="equation_03"
       transform="matrix(1.1506381,0,0,1.1506381,53.077422,22.823957)">
      <defs
         id="defs966">
        <path
           id="equation_03_00"
           d="m 3.297634,2.391034 c 0,-0.029888 0,-0.049814 -0.169365,-0.219178 -1.24533,-1.255293 -1.564135,-3.138232 -1.564135,-4.662516 0,-1.733499 0.378581,-3.466999 1.603986,-4.712329 0.129514,-0.119551 0.129514,-0.139477 0.129514,-0.169365 0,-0.069738 -0.039851,-0.099626 -0.099627,-0.099626 -0.099626,0 -0.996264,0.677459 -1.584059,1.942715 -0.508095,1.09589 -0.627647,2.201743 -0.627647,3.038605 0,0.777086 0.109589,1.982565 0.657535,3.108344 0.597758,1.225404 1.454545,1.872976 1.554171,1.872976 0.059776,0 0.099627,-0.029888 0.099627,-0.099626 z"
           inkscape:connector-curvature="0" />
        <path
           id="equation_03_01"
           d="m 2.879203,-2.49066 c 0,-0.777086 -0.109589,-1.982565 -0.657534,-3.108344 C 1.62391,-6.824408 0.767123,-7.47198 0.667497,-7.47198 c -0.059776,0 -0.099627,0.03985 -0.099627,0.099626 0,0.029888 0,0.049814 0.189291,0.229141 0.976338,0.986301 1.544209,2.570361 1.544209,4.652553 0,1.703611 -0.368618,3.457036 -1.603985,4.712329 C 0.56787,2.34122 0.56787,2.361146 0.56787,2.391034 c 0,0.059775 0.039851,0.099626 0.099627,0.099626 0.099626,0 0.996264,-0.67746 1.58406,-1.942715 0.508094,-1.09589 0.627646,-2.201743 0.627646,-3.038605 z"
           inkscape:connector-curvature="0" />
        <path
           id="equation_03_02"
           d="M 4.83188,-4.094645 3.995019,-6.07721 C 3.965131,-6.156912 3.945205,-6.196762 3.945205,-6.206725 c 0,-0.059776 0.169365,-0.249066 0.587796,-0.288916 0.099627,-0.00996 0.199253,-0.019926 0.199253,-0.189291 0,-0.119551 -0.119552,-0.119551 -0.14944,-0.119551 -0.408468,0 -0.836861,0.029888 -1.255292,0.029888 -0.249066,0 -0.86675,-0.029888 -1.115816,-0.029888 -0.059776,0 -0.179327,0 -0.179327,0.199253 0,0.109589 0.099626,0.109589 0.22914,0.109589 0.597759,0 0.657535,0.099626 0.747198,0.318804 L 4.184309,-3.39726 2.082192,-1.135741 1.952677,-1.026152 C 1.464508,-0.498132 0.996264,-0.33873 0.488169,-0.308842 0.358655,-0.298879 0.268991,-0.298879 0.268991,-0.109589 0.268991,-0.099626 0.268991,0 0.398506,0 0.697385,0 1.026152,-0.029888 1.334994,-0.029888 1.703611,-0.029888 2.092154,0 2.450809,0 c 0.059776,0 0.179328,0 0.179328,-0.199253 0,-0.099626 -0.099626,-0.109589 -0.119552,-0.109589 C 2.420922,-0.318804 2.11208,-0.33873 2.11208,-0.617684 c 0,-0.159402 0.149439,-0.318804 0.268991,-0.448318 l 1.016189,-1.075966 0.896638,-0.976338 1.006227,2.381071 c 0.03985,0.109589 0.049813,0.119551 0.049813,0.139477 0,0.079701 -0.18929,0.249066 -0.577833,0.288916 -0.109589,0.009963 -0.199253,0.019925 -0.199253,0.18929 C 4.572852,0 4.682441,0 4.722291,0 5.001245,0 5.69863,-0.029888 5.977584,-0.029888 6.22665,-0.029888 6.834371,0 7.083437,0 c 0.069739,0 0.18929,0 0.18929,-0.18929 0,-0.119552 -0.099626,-0.119552 -0.179327,-0.119552 C 6.425903,-0.318804 6.405978,-0.348692 6.236613,-0.747198 5.84807,-1.673724 5.180573,-3.227895 4.951432,-3.825654 5.628892,-4.523039 6.674969,-5.708593 6.993773,-5.987547 7.28269,-6.22665 7.66127,-6.465753 8.259029,-6.495641 c 0.129514,-0.00996 0.219178,-0.00996 0.219178,-0.199253 0,-0.00996 0,-0.109589 -0.129515,-0.109589 -0.298879,0 -0.627646,0.029888 -0.936488,0.029888 -0.368617,0 -0.747198,-0.029888 -1.105853,-0.029888 -0.059776,0 -0.18929,0 -0.18929,0.199253 0,0.069738 0.049813,0.099626 0.119552,0.109589 0.089663,0.00996 0.398505,0.029888 0.398505,0.308841 0,0.139477 -0.109589,0.268992 -0.18929,0.358656 z"
           inkscape:connector-curvature="0" />
        <path
           id="equation_03_03"
           d="m 3.656289,-3.985056 h 0.856787 c 0.199253,0 0.298879,0 0.298879,-0.199253 0,-0.109589 -0.099626,-0.109589 -0.268991,-0.109589 H 3.716065 L 3.92528,-5.429639 c 0.039851,-0.209215 0.179328,-0.916563 0.239104,-1.036114 0.089663,-0.189291 0.259028,-0.33873 0.468244,-0.33873 0.03985,0 0.298879,0 0.488169,0.179327 -0.438356,0.039851 -0.537983,0.388543 -0.537983,0.537983 0,0.229141 0.179328,0.348692 0.368618,0.348692 0.259029,0 0.547945,-0.219178 0.547945,-0.597758 0,-0.458282 -0.458281,-0.687422 -0.866749,-0.687422 -0.33873,0 -0.966376,0.179327 -1.265256,1.165629 -0.059775,0.209215 -0.089663,0.308841 -0.328767,1.564134 H 2.351183 c -0.18929,0 -0.298879,0 -0.298879,0.18929 0,0.119552 0.089664,0.119552 0.278954,0.119552 h 0.657534 l -0.747198,3.935243 c -0.179327,0.966376 -0.348692,1.872976 -0.86675,1.872976 -0.03985,0 -0.288916,0 -0.478206,-0.179327 0.458281,-0.029888 0.547945,-0.388543 0.547945,-0.537983 0,-0.229141 -0.179328,-0.348692 -0.368618,-0.348692 -0.259029,0 -0.547945,0.219178 -0.547945,0.597758 0,0.448319 0.438356,0.687422 0.846824,0.687422 0.547946,0 0.946451,-0.587796 1.125779,-0.966376 0.318804,-0.627646 0.547945,-1.833126 0.557908,-1.902864 z"
           inkscape:connector-curvature="0" />
      </defs>
      <g
         id="equation_03_g">
        <use
           id="use968"
           y="62.764633"
           xlink:href="#equation_03_03"
           x="76.712326"
           width="100%"
           height="100%" />
        <use
           id="use970"
           y="62.764633"
           xlink:href="#equation_03_00"
           x="82.662277"
           width="100%"
           height="100%" />
        <use
           id="use972"
           y="62.764633"
           xlink:href="#equation_03_02"
           x="86.536652"
           width="100%"
           height="100%" />
        <use
           id="use974"
           y="62.764633"
           xlink:href="#equation_03_01"
           x="95.572205"
           width="100%"
           height="100%" />
      </g>
    </g>
    <path
       sodipodi:nodetypes="cccccsc"
       inkscape:connector-curvature="0"
       style="opacity:1;fill:none;fill-opacity:0.54335261;stroke:#000000;stroke-width:1;stroke-miterlimit:4;stroke-dasharray:none;stroke-dashoffset:0;stroke-opacity:1"
       d="m 175.12933,134.61426 c 6.84378,4.70707 11.28712,15.57518 11.28713,27.60756 v 0 0 c 0,16.56765 -8.30069,29.99837 -18.54006,29.99827 -10.23937,1e-4 -18.54006,-13.43062 -18.54006,-29.99827 1e-5,-12.05736 4.46159,-22.94297 11.32624,-27.63437"
       id="path1025" />
    <g
       transform="matrix(1.6176283,0,0,1.6176283,37.044579,35.072749)"
       id="equation_04"
       style="fill:#000000"
       title="$B$">
      <defs
         id="defs1091">
        <path
           inkscape:connector-curvature="0"
           d="m 1.594022,-0.777086 c -0.099626,0.388543 -0.119551,0.468244 -0.9066,0.468244 -0.169365,0 -0.268991,0 -0.268991,0.199253 C 0.418431,0 0.508095,0 0.687422,0 h 3.556663 c 1.574097,0 2.749688,-1.175592 2.749688,-2.15193 0,-0.71731 -0.577833,-1.295143 -1.544209,-1.404733 1.036115,-0.18929 2.082192,-0.926525 2.082192,-1.872976 0,-0.737235 -0.657534,-1.374844 -1.853051,-1.374844 H 2.331258 c -0.18929,0 -0.288917,0 -0.288917,0.199253 0,0.109589 0.089664,0.109589 0.278954,0.109589 0.019925,0 0.209216,0 0.37858,0.019925 0.179328,0.019925 0.268992,0.029888 0.268992,0.159402 0,0.039851 -0.00996,0.069739 -0.039851,0.18929 z m 1.504359,-2.86924 0.617684,-2.470735 c 0.089664,-0.348692 0.109589,-0.37858 0.537982,-0.37858 h 1.285181 c 0.876712,0 1.085928,0.587795 1.085928,1.026152 0,0.876712 -0.856787,1.823163 -2.072229,1.823163 z m -0.448319,3.337484 c -0.139477,0 -0.159402,0 -0.219178,-0.009962 C 2.331258,-0.328767 2.30137,-0.33873 2.30137,-0.418431 c 0,-0.029888 0,-0.049813 0.049813,-0.229141 l 0.687422,-2.779576 h 1.882939 c 0.956414,0 1.145704,0.737235 1.145704,1.165629 0,0.986301 -0.886675,1.952677 -2.062267,1.952677 z"
           id="equation_04_00" />
      </defs>
      <g
         id="equation_04_g">
        <use
           height="100%"
           width="100%"
           x="76.712326"
           xlink:href="#equation_04_00"
           y="62.764633"
           id="use1093" />
      </g>
    </g>
    <path
       id="path1188"
       d="M 40.258247,199.51737 C 32.829108,190.94636 27.98478,176.88864 27.98478,161.00018 c 1.6e-5,-19.00082 7.03084,-36.1551 17.848565,-43.54813"
       style="opacity:1;fill:none;fill-opacity:0.54335261;stroke:#000000;stroke-width:1;stroke-miterlimit:4;stroke-dasharray:none;stroke-dashoffset:0;stroke-opacity:1"
       inkscape:connector-curvature="0" />
    <path
       id="path1166"
       d="m 68.630909,117.4943 c 5.106681,3.51233 9.365243,9.2015 12.433905,16.23154"
       style="opacity:1;fill:none;fill-opacity:0.54335261;stroke:#000000;stroke-width:1;stroke-miterlimit:4;stroke-dasharray:none;stroke-dashoffset:0;stroke-opacity:1"
       inkscape:connector-curvature="0" />
    <path
       inkscape:connector-curvature="0"
       id="path1200"
       d="m 81.05767,133.73526 c -1.601665,35.2122 -19.016319,63.31211 -40.799422,65.78211"
       style="opacity:1;fill:none;fill-opacity:0.54335261;stroke:#000000;stroke-width:1;stroke-miterlimit:4;stroke-dasharray:none;stroke-dashoffset:0;stroke-opacity:1" />
    <g
       title="$f^{-1} (B)$"
       style="fill:#000000"
       id="equation_05"
       transform="matrix(1.2195342,0,0,1.2195342,-56.578176,35.569892)">
      <defs
         id="defs1262">
        <path
           id="equation_05_00"
           d="m 3.297634,2.391034 c 0,-0.029888 0,-0.049814 -0.169365,-0.219178 -1.24533,-1.255293 -1.564135,-3.138232 -1.564135,-4.662516 0,-1.733499 0.378581,-3.466999 1.603986,-4.712329 0.129514,-0.119551 0.129514,-0.139477 0.129514,-0.169365 0,-0.069738 -0.039851,-0.099626 -0.099627,-0.099626 -0.099626,0 -0.996264,0.677459 -1.584059,1.942715 -0.508095,1.09589 -0.627647,2.201743 -0.627647,3.038605 0,0.777086 0.109589,1.982565 0.657535,3.108344 0.597758,1.225404 1.454545,1.872976 1.554171,1.872976 0.059776,0 0.099627,-0.029888 0.099627,-0.099626 z"
           inkscape:connector-curvature="0" />
        <path
           id="equation_05_01"
           d="m 2.879203,-2.49066 c 0,-0.777086 -0.109589,-1.982565 -0.657534,-3.108344 C 1.62391,-6.824408 0.767123,-7.47198 0.667497,-7.47198 c -0.059776,0 -0.099627,0.03985 -0.099627,0.099626 0,0.029888 0,0.049814 0.189291,0.229141 0.976338,0.986301 1.544209,2.570361 1.544209,4.652553 0,1.703611 -0.368618,3.457036 -1.603985,4.712329 C 0.56787,2.34122 0.56787,2.361146 0.56787,2.391034 c 0,0.059775 0.039851,0.099626 0.099627,0.099626 0.099626,0 0.996264,-0.67746 1.58406,-1.942715 0.508094,-1.09589 0.627646,-2.201743 0.627646,-3.038605 z"
           inkscape:connector-curvature="0" />
        <path
           id="equation_05_02"
           d="m 2.336239,-4.435367 c 0,-0.188294 -0.013948,-0.195268 -0.209215,-0.195268 -0.446327,0.439352 -1.080947,0.446326 -1.366875,0.446326 v 0.251059 c 0.167373,0 0.627647,0 1.011208,-0.195268 v 3.556662 c 0,0.230137 0,0.320797 -0.697384,0.320797 H 0.808966 V 0 c 0.12553,-0.006974 0.983313,-0.027895 1.241345,-0.027895 0.21619,0 1.094894,0.020921 1.248319,0.027895 V -0.251059 H 3.033624 c -0.697385,0 -0.697385,-0.09066 -0.697385,-0.320797 z"
           inkscape:connector-curvature="0" />
        <path
           id="equation_05_03"
           d="m 5.188543,-1.57609 c 0.111582,0 0.278954,0 0.278954,-0.167372 0,-0.174346 -0.160399,-0.174346 -0.278954,-0.174346 H 1.03213 c -0.111582,0 -0.278954,0 -0.278954,0.167372 0,0.174346 0.160398,0.174346 0.278954,0.174346 z"
           inkscape:connector-curvature="0" />
        <path
           id="equation_05_04"
           d="m 1.594022,-0.777086 c -0.099626,0.388543 -0.119551,0.468244 -0.9066,0.468244 -0.169365,0 -0.268991,0 -0.268991,0.199253 C 0.418431,0 0.508095,0 0.687422,0 h 3.556663 c 1.574097,0 2.749688,-1.175592 2.749688,-2.15193 0,-0.71731 -0.577833,-1.295143 -1.544209,-1.404733 1.036115,-0.18929 2.082192,-0.926525 2.082192,-1.872976 0,-0.737235 -0.657534,-1.374844 -1.853051,-1.374844 H 2.331258 c -0.18929,0 -0.288917,0 -0.288917,0.199253 0,0.109589 0.089664,0.109589 0.278954,0.109589 0.019925,0 0.209216,0 0.37858,0.019925 0.179328,0.019925 0.268992,0.029888 0.268992,0.159402 0,0.039851 -0.00996,0.069739 -0.039851,0.18929 z m 1.504359,-2.86924 0.617684,-2.470735 c 0.089664,-0.348692 0.109589,-0.37858 0.537982,-0.37858 h 1.285181 c 0.876712,0 1.085928,0.587795 1.085928,1.026152 0,0.876712 -0.856787,1.823163 -2.072229,1.823163 z m -0.448319,3.337484 c -0.139477,0 -0.159402,0 -0.219178,-0.009962 C 2.331258,-0.328767 2.30137,-0.33873 2.30137,-0.418431 c 0,-0.029888 0,-0.049813 0.049813,-0.229141 l 0.687422,-2.779576 h 1.882939 c 0.956414,0 1.145704,0.737235 1.145704,1.165629 0,0.986301 -0.886675,1.952677 -2.062267,1.952677 z"
           inkscape:connector-curvature="0" />
        <path
           id="equation_05_05"
           d="m 3.656289,-3.985056 h 0.856787 c 0.199253,0 0.298879,0 0.298879,-0.199253 0,-0.109589 -0.099626,-0.109589 -0.268991,-0.109589 H 3.716065 L 3.92528,-5.429639 c 0.039851,-0.209215 0.179328,-0.916563 0.239104,-1.036114 0.089663,-0.189291 0.259028,-0.33873 0.468244,-0.33873 0.03985,0 0.298879,0 0.488169,0.179327 -0.438356,0.039851 -0.537983,0.388543 -0.537983,0.537983 0,0.229141 0.179328,0.348692 0.368618,0.348692 0.259029,0 0.547945,-0.219178 0.547945,-0.597758 0,-0.458282 -0.458281,-0.687422 -0.866749,-0.687422 -0.33873,0 -0.966376,0.179327 -1.265256,1.165629 -0.059775,0.209215 -0.089663,0.308841 -0.328767,1.564134 H 2.351183 c -0.18929,0 -0.298879,0 -0.298879,0.18929 0,0.119552 0.089664,0.119552 0.278954,0.119552 h 0.657534 l -0.747198,3.935243 c -0.179327,0.966376 -0.348692,1.872976 -0.86675,1.872976 -0.03985,0 -0.288916,0 -0.478206,-0.179327 0.458281,-0.029888 0.547945,-0.388543 0.547945,-0.537983 0,-0.229141 -0.179328,-0.348692 -0.368618,-0.348692 -0.259029,0 -0.547945,0.219178 -0.547945,0.597758 0,0.448319 0.438356,0.687422 0.846824,0.687422 0.547946,0 0.946451,-0.587796 1.125779,-0.966376 0.318804,-0.627646 0.547945,-1.833126 0.557908,-1.902864 z"
           inkscape:connector-curvature="0" />
      </defs>
      <g
         id="equation_05_g">
        <use
           id="use1264"
           y="62.764633"
           xlink:href="#equation_05_05"
           x="76.712326"
           width="100%"
           height="100%" />
        <use
           id="use1266"
           y="59.149269"
           xlink:href="#equation_05_03"
           x="82.662277"
           width="100%"
           height="100%" />
        <use
           id="use1269"
           y="59.149269"
           xlink:href="#equation_05_02"
           x="88.888954"
           width="100%"
           height="100%" />
        <use
           id="use1271"
           y="62.764633"
           xlink:href="#equation_05_00"
           x="93.358315"
           width="100%"
           height="100%" />
        <use
           id="use1273"
           y="62.764633"
           xlink:href="#equation_05_04"
           x="97.232681"
           width="100%"
           height="100%" />
        <use
           id="use1275"
           y="62.764633"
           xlink:href="#equation_05_01"
           x="105.28929"
           width="100%"
           height="100%" />
      </g>
    </g>
    <path
       style="fill:none;stroke:#000000;stroke-width:0.5;stroke-linecap:butt;stroke-linejoin:miter;stroke-opacity:1;stroke-miterlimit:4;stroke-dasharray:0.5,2;stroke-dashoffset:0"
       d="M 40.258245,199.51737 157.36326,186.36643"
       id="path1348"
       inkscape:connector-curvature="0" />
    <path
       style="fill:none;stroke:#000000;stroke-width:0.50000001;stroke-linecap:butt;stroke-linejoin:miter;stroke-opacity:1;stroke-miterlimit:4;stroke-dasharray:0.50000001,2.00000006;stroke-dashoffset:0"
       d="m 68.630908,117.4943 92.031672,17.09315"
       id="path1350"
       inkscape:connector-curvature="0" />
  </g>
</svg>
