<?xml version="1.0" encoding="UTF-8" standalone="no"?>
<!-- Created with Inkscape (http://www.inkscape.org/) -->

<svg
   xmlns:dc="http://purl.org/dc/elements/1.1/"
   xmlns:cc="http://creativecommons.org/ns#"
   xmlns:rdf="http://www.w3.org/1999/02/22-rdf-syntax-ns#"
   xmlns:svg="http://www.w3.org/2000/svg"
   xmlns="http://www.w3.org/2000/svg"
   xmlns:sodipodi="http://sodipodi.sourceforge.net/DTD/sodipodi-0.dtd"
   xmlns:inkscape="http://www.inkscape.org/namespaces/inkscape"
   sodipodi:docname="map1.svg"
   inkscape:version="0.92.2 (5c3e80d, 2017-08-06)"
   id="svg8"
   version="1.1"
   viewBox="0 0 210 297"
   height="297mm"
   width="210mm">
  <sodipodi:namedview
     inkscape:window-maximized="1"
     inkscape:window-y="0"
     inkscape:window-x="0"
     inkscape:window-height="1003"
     inkscape:window-width="1400"
     showgrid="false"
     inkscape:current-layer="layer1"
     inkscape:document-units="mm"
     inkscape:cy="664.46694"
     inkscape:cx="180.19758"
     inkscape:zoom="0.87705101"
     inkscape:pageshadow="2"
     inkscape:pageopacity="0.0"
     borderopacity="1.0"
     bordercolor="#666666"
     pagecolor="#ffffff"
     id="base" />
  <defs
     id="defs2">
    <marker
       inkscape:isstock="true"
       style="overflow:visible;"
       id="Arrow1Lend"
       refX="0.0"
       refY="0.0"
       orient="auto"
       inkscape:stockid="Arrow1Lend">
      <path
         transform="scale(0.8) rotate(180) translate(12.5,0)"
         style="fill-rule:evenodd;stroke:#000000;stroke-width:1pt;stroke-opacity:1;fill:#000000;fill-opacity:1"
         d="M 0.0,0.0 L 5.0,-5.0 L -12.5,0.0 L 5.0,5.0 L 0.0,0.0 z "
         id="path828" />
    </marker>
    <marker
       inkscape:isstock="true"
       style="overflow:visible"
       id="Arrow2Lstart"
       refX="0.0"
       refY="0.0"
       orient="auto"
       inkscape:stockid="Arrow2Lstart">
      <path
         transform="scale(1.1) translate(1,0)"
         d="M 8.7185878,4.0337352 L -2.2072895,0.016013256 L 8.7185884,-4.0017078 C 6.9730900,-1.6296469 6.9831476,1.6157441 8.7185878,4.0337352 z "
         style="fill-rule:evenodd;stroke-width:0.625;stroke-linejoin:round;stroke:#000000;stroke-opacity:1;fill:#000000;fill-opacity:1"
         id="path843" />
    </marker>
    <marker
       inkscape:isstock="true"
       style="overflow:visible"
       id="marker1109"
       refX="0.0"
       refY="0.0"
       orient="auto"
       inkscape:stockid="Arrow1Lstart">
      <path
         transform="scale(0.8) translate(12.5,0)"
         style="fill-rule:evenodd;stroke:#000000;stroke-width:1pt;stroke-opacity:1;fill:#000000;fill-opacity:1"
         d="M 0.0,0.0 L 5.0,-5.0 L -12.5,0.0 L 5.0,5.0 L 0.0,0.0 z "
         id="path1107" />
    </marker>
    <marker
       inkscape:isstock="true"
       style="overflow:visible"
       id="Arrow1Lstart"
       refX="0.0"
       refY="0.0"
       orient="auto"
       inkscape:stockid="Arrow1Lstart">
      <path
         transform="scale(0.8) translate(12.5,0)"
         style="fill-rule:evenodd;stroke:#000000;stroke-width:1pt;stroke-opacity:1;fill:#000000;fill-opacity:1"
         d="M 0.0,0.0 L 5.0,-5.0 L -12.5,0.0 L 5.0,5.0 L 0.0,0.0 z "
         id="path825" />
    </marker>
  </defs>
  <metadata
     id="metadata5">
    <rdf:RDF>
      <cc:Work
         rdf:about="">
        <dc:format>image/svg+xml</dc:format>
        <dc:type
           rdf:resource="http://purl.org/dc/dcmitype/StillImage" />
        <dc:title />
      </cc:Work>
    </rdf:RDF>
  </metadata>
  <g
     id="layer1"
     inkscape:groupmode="layer"
     inkscape:label="レイヤー 1">
    <rect
       style="fill:#d9d9d9;fill-opacity:1;stroke:#000000;stroke-width:0.079;stroke-miterlimit:4;stroke-dasharray:none;stroke-dashoffset:0;stroke-opacity:1"
       id="rect3889"
       width="175.72926"
       height="36.195602"
       x="30.058098"
       y="53.792271" />
    <path
       inkscape:connector-curvature="0"
       id="path823"
       d="M 30.238094,40.732143 V 214.60119"
       style="fill:#000000;stroke:#000000;stroke-width:0.465;stroke-linecap:butt;stroke-linejoin:miter;stroke-opacity:1;stroke-miterlimit:4;stroke-dasharray:none;fill-opacity:1;marker-start:url(#Arrow1Lstart);stroke-dashoffset:0" />
    <path
       inkscape:connector-curvature="0"
       id="path1835"
       d="M 11.339286,185.11904 H 193.52381"
       style="fill:#000000;stroke:#000000;stroke-width:0.465;stroke-linecap:butt;stroke-linejoin:miter;stroke-opacity:1;fill-opacity:1;stroke-miterlimit:4;stroke-dasharray:none;marker-end:url(#Arrow1Lend)" />
    <g
       id="g1957"
       transform="matrix(0.92391784,0,0,0.92391784,-61.728899,107.41627)">
      <g
         word-spacing="normal"
         letter-spacing="normal"
         font-size-adjust="none"
         font-stretch="normal"
         font-weight="normal"
         font-variant="normal"
         font-style="normal"
         stroke-miterlimit="10.433"
         xml:space="preserve"
         transform="matrix(0.3,0,0,-0.3,-52.5,222.75)"
         id="content"
         style="font-style:normal;font-variant:normal;font-weight:normal;font-stretch:normal;letter-spacing:normal;word-spacing:normal;text-anchor:start;fill:none;fill-opacity:1;fill-rule:evenodd;stroke:#000000;stroke-linecap:butt;stroke-linejoin:miter;stroke-miterlimit:10.43299961;stroke-dasharray:none;stroke-dashoffset:0;stroke-opacity:1"><path
           id="path1954"
           d="m 491.44,423.09 -0.02,0.95 -0.07,0.93 -0.1,0.92 -0.15,0.9 -0.19,0.89 -0.22,0.86 -0.27,0.85 -0.3,0.83 -0.33,0.81 -0.37,0.79 -0.4,0.76 -0.44,0.74 -0.47,0.72 -0.49,0.68 -0.53,0.66 -0.55,0.64 -0.58,0.6 -0.6,0.57 -0.63,0.54 -0.65,0.5 -0.67,0.47 -0.7,0.44 -0.71,0.4 -0.74,0.36 -0.75,0.33 -0.77,0.28 -0.78,0.25 -0.8,0.2 -0.81,0.16 -0.82,0.11 -0.84,0.07 -0.84,0.02 v -1.25 c 4.34,0 11.47,-3.53 11.47,-16.28 0,-13.2 -6.83,-17.39 -11.43,-17.39 v 0 c -4.78,0 -11.45,4.38 -11.45,17.39 0,12.89 7.28,16.28 11.41,16.28 v 1.25 c -8.92,0 -16.53,-7.96 -16.53,-18.23 0,-10.22 7.67,-17.98 16.53,-17.98 9.06,0 16.59,7.92 16.59,17.98 z"
           inkscape:connector-curvature="0"
           style="fill:#000000;stroke-width:0" /></g>    </g>
    <g
       transform="translate(-67.328578,-54.359187)"
       id="g1997">
      <g
         style="font-style:normal;font-variant:normal;font-weight:normal;font-stretch:normal;letter-spacing:normal;word-spacing:normal;text-anchor:start;fill:none;fill-opacity:1;fill-rule:evenodd;stroke:#000000;stroke-linecap:butt;stroke-linejoin:miter;stroke-miterlimit:10.43299961;stroke-dasharray:none;stroke-dashoffset:0;stroke-opacity:1"
         id="g1995"
         transform="matrix(0.3,0,0,-0.3,-52.5,222.75)"
         xml:space="preserve"
         stroke-miterlimit="10.433"
         font-style="normal"
         font-variant="normal"
         font-weight="normal"
         font-stretch="normal"
         font-size-adjust="none"
         letter-spacing="normal"
         word-spacing="normal"><path
           style="fill:#000000;stroke-width:0"
           inkscape:connector-curvature="0"
           d="m 479.74,425.18 0.01,0.04 0.01,0.03 0.01,0.06 0.02,0.05 0.01,0.06 0.01,0.05 0.02,0.04 0.01,0.05 0.01,0.04 0.01,0.04 v 0.04 l 0.01,0.04 0.01,0.04 0.01,0.03 v 0.03 l 0.01,0.03 v 0.03 l 0.01,0.03 v 0.03 l 0.01,0.05 v 0.06 0.05 0.05 l 0.01,0.05 v 0.03 0.03 0.03 0.03 c 0,0.91 -0.69,1.35 -1.44,1.35 -0.5,0 -1.3,-0.3 -1.75,-1.05 -0.1,-0.25 -0.5,-1.78 -0.69,-2.69 -0.36,-1.29 -0.7,-2.64 -1,-3.98 l -2.25,-8.97 c -0.19,-0.75 -2.33,-4.23 -5.62,-4.23 -2.54,0 -3.1,2.18 -3.1,4.03 0,2.29 0.86,5.39 2.55,9.76 0.8,2.05 1,2.6 1,3.6 0,2.23 -1.59,4.07 -4.09,4.07 -4.74,0 -6.58,-7.21 -6.58,-7.67 0,-0.5 0.5,-0.5 0.61,-0.5 0.5,0 0.54,0.11 0.79,0.91 1.35,4.69 3.33,6.17 5.03,6.17 0.4,0 1.25,0 1.25,-1.59 0,-1.25 -0.5,-2.53 -0.85,-3.49 -1.99,-5.28 -2.9,-8.12 -2.9,-10.47 0,-4.42 3.15,-5.92 6.08,-5.92 1.96,0 3.64,0.85 5.03,2.24 -0.64,-2.58 -1.23,-5.03 -3.23,-7.68 -1.3,-1.68 -3.19,-3.14 -5.48,-3.14 -0.69,0 -2.94,0.16 -3.79,2.1 0.8,0 1.46,0 2.14,0.61 0.5,0.43 1,1.09 1,2.03 0,1.55 -1.34,1.75 -1.84,1.75 -1.14,0 -2.8,-0.8 -2.8,-3.24 0,-2.5 2.21,-4.34 5.29,-4.34 5.14,0 10.26,4.55 11.67,10.17 z"
           id="path1993" /></g>    </g>
    <g
       id="g2043"
       transform="translate(105.95981,96.839714)">
      <g
         word-spacing="normal"
         letter-spacing="normal"
         font-size-adjust="none"
         font-stretch="normal"
         font-weight="normal"
         font-variant="normal"
         font-style="normal"
         stroke-miterlimit="10.433"
         xml:space="preserve"
         transform="matrix(0.3,0,0,-0.3,-52.5,222.75)"
         id="g2041"
         style="font-style:normal;font-variant:normal;font-weight:normal;font-stretch:normal;letter-spacing:normal;word-spacing:normal;text-anchor:start;fill:none;fill-opacity:1;fill-rule:evenodd;stroke:#000000;stroke-linecap:butt;stroke-linejoin:miter;stroke-miterlimit:10.43299961;stroke-dasharray:none;stroke-dashoffset:0;stroke-opacity:1"><path
           id="path2039"
           d="m 472.16,421.25 0.03,0.13 0.04,0.15 0.04,0.16 0.04,0.18 0.06,0.19 0.06,0.21 0.06,0.22 0.07,0.22 0.08,0.23 0.09,0.24 0.1,0.25 0.1,0.24 0.11,0.25 0.12,0.25 0.13,0.25 0.14,0.25 0.15,0.24 0.15,0.24 0.17,0.23 0.18,0.22 0.18,0.22 0.2,0.2 0.21,0.19 0.22,0.18 0.23,0.16 0.25,0.14 0.12,0.07 0.13,0.06 0.14,0.05 0.13,0.05 0.14,0.05 0.14,0.04 0.15,0.03 0.15,0.03 0.15,0.02 0.16,0.02 0.16,0.01 h 0.16 c 0.25,0 1.44,0 2.48,-0.64 -1.39,-0.25 -2.39,-1.5 -2.39,-2.69 0,-0.79 0.55,-1.75 1.89,-1.75 1.1,0 2.69,0.89 2.69,2.89 0,2.6 -2.94,3.28 -4.63,3.28 -2.89,0 -4.64,-2.64 -5.23,-3.78 -1.25,3.28 -3.94,3.78 -5.37,3.78 -5.19,0 -8.04,-6.42 -8.04,-7.67 0,-0.5 0.5,-0.5 0.61,-0.5 0.39,0 0.55,0.11 0.64,0.55 1.69,5.28 4.99,6.53 6.68,6.53 0.95,0 2.68,-0.44 2.68,-3.33 0,-1.54 -0.84,-4.89 -2.68,-11.86 -0.8,-3.09 -2.54,-5.18 -4.74,-5.18 -0.3,0 -1.44,0 -2.48,0.65 1.25,0.24 2.34,1.28 2.34,2.69 0,1.34 -1.09,1.73 -1.84,1.73 -1.5,0 -2.75,-1.29 -2.75,-2.89 0,-2.28 2.5,-3.28 4.68,-3.28 3.3,0 5.08,3.49 5.24,3.78 0.59,-1.84 2.39,-3.78 5.37,-3.78 5.14,0 7.99,6.42 7.99,7.67 0,0.5 -0.45,0.5 -0.61,0.5 -0.44,0 -0.55,-0.2 -0.64,-0.54 -1.64,-5.33 -5.03,-6.53 -6.63,-6.53 -1.95,0 -2.75,1.59 -2.75,3.29 0,1.1 0.3,2.19 0.86,4.38 z"
           inkscape:connector-curvature="0"
           style="fill:#000000;stroke-width:0" /></g>    </g>
    <path
       inkscape:connector-curvature="0"
       style="fill:none;fill-opacity:1;stroke:#000000;stroke-width:0.906;stroke-miterlimit:4;stroke-dasharray:none;stroke-dashoffset:0;stroke-opacity:1"
       d="m 17.3796,160.43184 c 0.09297,-0.0185 0.185938,-0.14799 0.278907,-0.16661 0.09297,-0.0186 0.185938,-0.14973 0.278908,-0.16856 0.09297,-0.0189 0.185937,-0.15148 0.278907,-0.17053 0.09297,-0.019 0.185939,-0.15322 0.278908,-0.17248 0.09297,-0.0193 0.185938,-0.15499 0.278907,-0.17449 0.09297,-0.0194 0.185938,-0.15676 0.278908,-0.17647 0.09297,-0.0197 0.185938,-0.15855 0.278907,-0.17849 0.09297,-0.0199 0.18594,-0.16034 0.278908,-0.1805 0.09297,-0.0202 0.185939,-0.16215 0.278907,-0.18255 0.09297,-0.0203 0.185939,-0.16395 0.278907,-0.18457 0.09297,-0.0206 0.185939,-0.16578 0.278908,-0.18664 0.09297,-0.0209 0.185939,-0.16761 0.278909,-0.18869 0.09297,-0.0211 0.185938,-0.16947 0.278907,-0.19078 0.09297,-0.0213 0.185938,-0.17131 0.278907,-0.19286 0.09297,-0.0216 0.185938,-0.1732 0.278908,-0.19497 0.09297,-0.0218 0.185938,-0.17506 0.278908,-0.19707 0.09297,-0.022 0.185938,-0.17694 0.278907,-0.19919 0.09297,-0.0223 0.185938,-0.17883 0.278907,-0.20132 0.09297,-0.0225 0.185938,-0.18074 0.278908,-0.20345 0.09297,-0.0228 0.185938,-0.18265 0.278907,-0.20561 0.09297,-0.0229 0.185939,-0.18456 0.278908,-0.20776 0.09297,-0.0232 0.185938,-0.18649 0.278907,-0.20994 0.09297,-0.0234 0.185938,-0.18843 0.278908,-0.21212 0.09297,-0.0236 0.185938,-0.19035 0.278907,-0.21429 0.09297,-0.0239 0.18594,-0.19232 0.278908,-0.21649 0.09297,-0.0242 0.185939,-0.19427 0.278907,-0.21869 0.09297,-0.0245 0.185939,-0.19625 0.278908,-0.22092 0.09297,-0.0246 0.185939,-0.19821 0.278907,-0.22312 0.09297,-0.0249 0.18594,-0.2002 0.278908,-0.22536 0.09297,-0.0252 0.185939,-0.20218 0.278907,-0.2276 0.09297,-0.0254 0.185939,-0.20417 0.278909,-0.22983 0.09297,-0.0257 0.185938,-0.20618 0.278907,-0.23209 0.09297,-0.026 0.185938,-0.20818 0.278908,-0.23434 0.09297,-0.0262 0.185938,-0.21019 0.278907,-0.23661 0.09297,-0.0264 0.185938,-0.21221 0.278908,-0.23888 0.09297,-0.0267 0.185938,-0.21424 0.278907,-0.24116 0.09297,-0.0269 0.185938,-0.21627 0.278908,-0.24345 0.09297,-0.0271 0.185938,-0.2183 0.278907,-0.24573 0.09297,-0.0274 0.185938,-0.22033 0.278908,-0.24802 0.09297,-0.0277 0.185938,-0.22238 0.278907,-0.25032 0.09297,-0.0279 0.185938,-0.22443 0.278907,-0.25263 0.09297,-0.0282 0.185939,-0.22649 0.278908,-0.25494 0.09297,-0.0285 0.185938,-0.22853 0.278908,-0.25725 0.09297,-0.0287 0.185939,-0.2306 0.278907,-0.25958 0.09297,-0.029 0.185939,-0.23265 0.278907,-0.26189 0.09297,-0.0293 0.18594,-0.23472 0.278908,-0.26421 0.09297,-0.0295 0.185939,-0.2368 0.278908,-0.26655 0.09297,-0.0298 0.185939,-0.23886 0.278907,-0.26887 0.09297,-0.0301 0.185939,-0.24095 0.278907,-0.27122 0.09297,-0.0303 0.18594,-0.24301 0.278909,-0.27353 0.09297,-0.0305 0.185938,-0.24511 0.278908,-0.27589 0.09297,-0.0307 0.185938,-0.24718 0.278907,-0.27822 0.09297,-0.0311 0.185938,-0.24925 0.278907,-0.28056 0.09297,-0.0313 0.185938,-0.25134 0.278908,-0.2829 0.09297,-0.0315 0.185938,-0.25342 0.278908,-0.28524 0.09297,-0.0318 0.185938,-0.2555 0.278907,-0.28759 0.09297,-0.032 0.185938,-0.25758 0.278907,-0.28992 0.09297,-0.0323 0.185938,-0.25967 0.278908,-0.29227 0.09297,-0.0326 0.185938,-0.26174 0.278908,-0.29461 0.09297,-0.0328 0.185938,-0.26382 0.278907,-0.29695 0.09297,-0.0331 0.185938,-0.2659 0.278907,-0.29928 0.09297,-0.0334 0.185938,-0.26798 0.278907,-0.30162 0.09297,-0.0336 0.18594,-0.27005 0.278909,-0.30395 0.09297,-0.0339 0.185938,-0.27212 0.278907,-0.30629 0.09297,-0.0342 0.185939,-0.27418 0.278907,-0.3086 0.09297,-0.0344 0.185939,-0.27625 0.278907,-0.31093 0.09297,-0.0347 0.18594,-0.27832 0.278909,-0.31325 0.09297,-0.0349 0.185938,-0.28037 0.278907,-0.31557 0.09297,-0.0352 0.185939,-0.28243 0.278908,-0.31787 0.09297,-0.0354 0.185938,-0.28448 0.278907,-0.32018 0.09297,-0.0357 0.185939,-0.28652 0.278909,-0.32248 0.09297,-0.0359 0.185937,-0.28857 0.278907,-0.32477 0.09297,-0.0362 0.185938,-0.29059 0.278907,-0.32706 0.09297,-0.0365 0.185938,-0.29262 0.278907,-0.32934 0.09297,-0.0367 0.185938,-0.29464 0.278909,-0.33162 0.09297,-0.0369 0.185937,-0.29665 0.278907,-0.33387 0.09297,-0.0372 0.185938,-0.29868 0.278907,-0.33614 0.09297,-0.0375 0.185938,-0.30067 0.278907,-0.33839 0.09297,-0.0377 0.185938,-0.30265 0.278909,-0.34062 0.09297,-0.038 0.185937,-0.30464 0.278907,-0.34285 0.09297,-0.0383 0.185939,-0.30662 0.278907,-0.34508 0.09297,-0.0385 0.185939,-0.30858 0.278907,-0.34728 0.09297,-0.0387 0.185939,-0.31054 0.278908,-0.34949 0.09297,-0.039 0.185939,-0.31249 0.278908,-0.35168 0.09297,-0.0393 0.185939,-0.31441 0.278907,-0.35384 0.09297,-0.0395 0.185939,-0.31635 0.278907,-0.35602 0.09297,-0.0396 0.185939,-0.31825 0.278909,-0.35818 0.09297,-0.0399 0.185938,-0.32014 0.278908,-0.36029 0.09297,-0.0401 0.185938,-0.32205 0.278907,-0.36244 0.09297,-0.0403 0.185938,-0.32392 0.278907,-0.36454 0.09297,-0.0406 0.185938,-0.32579 0.278908,-0.36664 0.09297,-0.0409 0.185938,-0.32764 0.278908,-0.36872 0.09297,-0.041 0.185938,-0.32948 0.278907,-0.37079 0.09297,-0.0413 0.185938,-0.3313 0.278907,-0.37285 0.09297,-0.0416 0.185938,-0.33311 0.278908,-0.37488 0.09297,-0.0418 0.185937,-0.3349 0.278908,-0.37688 0.09297,-0.042 0.185938,-0.3367 0.278907,-0.3789 0.09297,-0.0422 0.185938,-0.33845 0.278907,-0.38088 0.09297,-0.0425 0.185938,-0.3402 0.278908,-0.38285 0.09297,-0.0427 0.185938,-0.34193 0.278908,-0.38478 0.09297,-0.0429 0.185939,-0.34365 0.278907,-0.38673 0.09297,-0.0431 0.185939,-0.34534 0.278907,-0.38861 0.09297,-0.0433 0.185939,-0.34703 0.278908,-0.39052 0.09297,-0.0436 0.185938,-0.34867 0.278907,-0.39238 0.09297,-0.0436 0.18594,-0.35033 0.278908,-0.39423 0.09297,-0.0439 0.185939,-0.35193 0.278908,-0.39604 0.09297,-0.0441 0.185938,-0.35355 0.278908,-0.39786 0.09297,-0.0442 0.185937,-0.35513 0.278907,-0.39962 0.09297,-0.0445 0.185939,-0.3567 0.278908,-0.40139 0.09297,-0.0447 0.185938,-0.35823 0.278907,-0.40312 0.09297,-0.0449 0.185938,-0.35975 0.278908,-0.40482 0.09297,-0.0451 0.185937,-0.36126 0.278907,-0.40651 0.09297,-0.0452 0.185939,-0.36274 0.278908,-0.40817 0.09297,-0.0454 0.185938,-0.36418 0.278907,-0.40981 0.09297,-0.0456 0.185938,-0.36561 0.278908,-0.41141 0.09297,-0.0458 0.185937,-0.36702 0.278907,-0.41299 0.09297,-0.046 0.185938,-0.3684 0.278908,-0.41455 0.09297,-0.0461 0.185938,-0.36976 0.278907,-0.41608 0.09297,-0.0463 0.185939,-0.37108 0.278908,-0.41756 0.09297,-0.0465 0.185938,-0.37241 0.278907,-0.41905 0.09297,-0.0467 0.185939,-0.37368 0.278907,-0.42048 0.09297,-0.0469 0.18594,-0.37494 0.278908,-0.42189 0.09297,-0.0469 0.185939,-0.37617 0.278908,-0.42329 0.09297,-0.0471 0.185938,-0.37736 0.278907,-0.42462 0.09297,-0.0473 0.185939,-0.37855 0.278908,-0.42596 0.09297,-0.0474 0.185939,-0.3797 0.278908,-0.42723 0.09297,-0.0476 0.185938,-0.38082 0.278908,-0.42851 0.09297,-0.0476 0.185937,-0.3819 0.278907,-0.42972 0.09297,-0.0478 0.185938,-0.38298 0.278907,-0.43091 0.09297,-0.0479 0.185939,-0.38401 0.278908,-0.43208 0.09297,-0.048 0.185938,-0.38501 0.278908,-0.43321 0.09297,-0.0482 0.185937,-0.38598 0.278907,-0.4343 0.09297,-0.0483 0.185938,-0.38691 0.278907,-0.43535 0.09297,-0.0484 0.185939,-0.38783 0.278908,-0.43638 0.09297,-0.0485 0.185938,-0.38871 0.278908,-0.43735 0.09297,-0.0486 0.185937,-0.38957 0.278907,-0.43832 0.09297,-0.0487 0.185938,-0.39039 0.278907,-0.43924 0.09297,-0.0488 0.185939,-0.39116 0.278908,-0.44011 0.09297,-0.0489 0.185939,-0.39191 0.278908,-0.44095 0.09297,-0.049 0.185938,-0.39263 0.278907,-0.44175 0.09297,-0.0491 0.185939,-0.39331 0.278907,-0.44253 0.09297,-0.0492 0.185939,-0.39396 0.278907,-0.44324 0.09297,-0.0493 0.18594,-0.39458 0.27891,-0.44394 0.09297,-0.0494 0.185937,-0.39515 0.278907,-0.44459 0.09297,-0.0494 0.185938,-0.39569 0.278907,-0.44519 0.09297,-0.0495 0.185938,-0.3962 0.278907,-0.44577 0.09297,-0.0495 0.185939,-0.39667 0.278909,-0.44628 0.09297,-0.0496 0.185937,-0.39713 0.278907,-0.44679 0.09297,-0.0497 0.185938,-0.39752 0.278907,-0.44723 0.09297,-0.0497 0.185938,-0.39788 0.278907,-0.44764 0.09297,-0.0498 0.185939,-0.3982 0.278909,-0.448 0.09297,-0.0498 0.185937,-0.39849 0.278907,-0.44831 0.09297,-0.0499 0.185938,-0.39873 0.278907,-0.4486 0.09297,-0.0499 0.185938,-0.39895 0.278907,-0.44883 0.09297,-0.0499 0.185939,-0.39912 0.278909,-0.44902 0.09297,-0.0499 0.185938,-0.39926 0.278907,-0.44917 0.09297,-0.0499 0.185939,-0.39935 0.278907,-0.44927 0.09297,-0.05 0.185939,-0.39941 0.278907,-0.44934 0.09297,-0.05 0.185939,-0.39942 0.278909,-0.44934 0.09297,-0.05 0.185938,-0.3994 0.278907,-0.44932 0.09297,-0.0499 0.185939,-0.39932 0.278907,-0.44924 0.09297,-0.0499 0.185939,-0.39923 0.278908,-0.44912 0.09297,-0.0499 0.185938,-0.39907 0.278908,-0.44895 0.09297,-0.0499 0.185938,-0.39888 0.278908,-0.44873 0.09297,-0.0499 0.185938,-0.39866 0.278907,-0.44848 0.09297,-0.0498 0.185938,-0.39838 0.278907,-0.44815 0.09297,-0.0498 0.185938,-0.39808 0.278908,-0.44781 0.09297,-0.0497 0.185938,-0.39773 0.278908,-0.44741 0.09297,-0.0497 0.185938,-0.39732 0.278907,-0.44695 0.09297,-0.0496 0.185938,-0.39688 0.278907,-0.44647 0.09297,-0.0495 0.185938,-0.39639 0.278908,-0.44591 0.09297,-0.0495 0.185938,-0.39586 0.278908,-0.44531 0.09297,-0.0494 0.185938,-0.3953 0.278907,-0.44467 0.09297,-0.0494 0.185938,-0.39468 0.278907,-0.44397 0.09297,-0.0493 0.185939,-0.39403 0.278908,-0.44325 0.09297,-0.0492 0.185938,-0.39332 0.278908,-0.44244 0.09297,-0.0491 0.185939,-0.392587 0.278907,-0.441597 0.09297,-0.049 0.185939,-0.3918 0.278907,-0.44072 0.09297,-0.0489 0.185939,-0.39096 0.278908,-0.43977 0.09297,-0.0488 0.185938,-0.39009 0.278908,-0.43879 0.09297,-0.0487 0.185939,-0.38916 0.278908,-0.43774 0.09297,-0.0486 0.185938,-0.388203 0.278907,-0.436654 0.09297,-0.04843 0.185938,-0.387186 0.278908,-0.43552 0.09297,-0.04831 0.185937,-0.386126 0.278907,-0.434316 0.09297,-0.0482 0.185939,-0.385031 0.278908,-0.43308 0.09297,-0.04805 0.185938,-0.383885 0.278907,-0.431787 0.09297,-0.0479 0.185938,-0.382694 0.278908,-0.430443 0.09297,-0.04775 0.185937,-0.381456 0.278907,-0.429049 0.09297,-0.04759 0.185939,-0.380174 0.278908,-0.427603 0.09297,-0.04744 0.185938,-0.378846 0.278907,-0.426107 0.09297,-0.04726 0.185938,-0.377473 0.278908,-0.424557 0.09297,-0.04708 0.185937,-0.376056 0.278907,-0.42296 0.09297,-0.04691 0.185939,-0.374591 0.278908,-0.42131 0.09297,-0.04671 0.185939,-0.373081 0.278907,-0.419608 0.09297,-0.04653 0.185939,-0.371525 0.278908,-0.417854 0.09297,-0.04633 0.185938,-0.369925 0.278907,-0.41605 0.09297,-0.04613 0.185939,-0.368279 0.278908,-0.414195 0.09297,-0.04592 0.185939,-0.366587 0.278907,-0.412288 0.09297,-0.04571 0.185939,-0.36485 0.278908,-0.410331 0.09297,-0.04548 0.185938,-0.363065 0.278908,-0.408322 0.09297,-0.04526 0.185938,-0.361237 0.278907,-0.40626 0.09297,-0.04502 0.185939,-0.359363 0.278908,-0.404149 0.09297,-0.04479 0.185938,-0.357444 0.278908,-0.401987 0.09297,-0.04454 0.185937,-0.355478 0.278907,-0.399774 0.09297,-0.0443 0.185938,-0.353468 0.278907,-0.397508 0.09297,-0.04405 0.185939,-0.351415 0.278908,-0.395194 0.09297,-0.04378 0.185938,-0.349314 0.278908,-0.392828 0.09297,-0.04352 0.185937,-0.347168 0.278907,-0.390411 0.09297,-0.04324 0.185938,-0.344978 0.278907,-0.387945 0.09297,-0.04296 0.185939,-0.342743 0.278908,-0.385426 0.09297,-0.04268 0.185938,-0.340465 0.278908,-0.38286 0.09297,-0.04239 0.185938,-0.338141 0.278907,-0.380243 0.09297,-0.0421 0.185939,-0.335772 0.278907,-0.377575 0.09297,-0.0418 0.185939,-0.33336 0.278908,-0.374858 0.09297,-0.0415 0.185939,-0.330904 0.278908,-0.372093 0.09297,-0.04119 0.185938,-0.328403 0.278907,-0.369277 0.09297,-0.04087 0.185939,-0.32586 0.278907,-0.366411 0.09297,-0.04055 0.185939,-0.323274 0.278908,-0.363499 0.09297,-0.04023 0.185939,-0.320645 0.278908,-0.360537 0.09297,-0.0399 0.185938,-0.317972 0.278908,-0.357528 0.09297,-0.03956 0.185938,-0.315254 0.278907,-0.354469 0.09297,-0.03921 0.185938,-0.312497 0.278907,-0.351362 0.09297,-0.03886 0.185939,-0.309696 0.278908,-0.34821 0.09297,-0.03851 0.185938,-0.306853 0.278908,-0.345009 0.09297,-0.03816 0.185938,-0.303969 0.278907,-0.341761 0.09297,-0.03779 0.185938,-0.301044 0.278907,-0.338466 0.09297,-0.03743 0.185939,-0.298078 0.278908,-0.335127 0.09297,-0.03704 0.185938,-0.29507 0.278908,-0.33174 0.09297,-0.03668 0.185938,-0.292022 0.278907,-0.328309 0.09297,-0.03628 0.185938,-0.288932 0.278907,-0.32483 0.09297,-0.0359 0.185939,-0.285806 0.278908,-0.321309 0.09297,-0.0355 0.185939,-0.282637 0.278908,-0.317742 0.09297,-0.0351 0.185939,-0.27943 0.278907,-0.314131 0.09297,-0.0347 0.185939,-0.276184 0.278907,-0.310478 0.09297,-0.03429 0.185939,-0.272899 0.278908,-0.306778 0.09297,-0.03388 0.185939,-0.269577 0.278908,-0.303039 0.09297,-0.03346 0.185939,-0.266216 0.278908,-0.299255 0.09297,-0.03303 0.185938,-0.262819 0.278907,-0.29543 0.09297,-0.03261 0.185938,-0.259384 0.278907,-0.291564 0.09297,-0.03218 0.185939,-0.255912 0.278909,-0.287654 0.09297,-0.03174 0.185938,-0.252406 0.278907,-0.283707 0.09297,-0.0313 0.185938,-0.248861 0.278907,-0.279718 0.09297,-0.03086 0.185938,-0.245282 0.278907,-0.275689 0.09297,-0.03041 0.185939,-0.241668 0.278909,-0.271621 0.09297,-0.02996 0.185938,-0.23802 0.278907,-0.267514 0.09297,-0.0295 0.185938,-0.234338 0.278907,-0.26337 0.09297,-0.02903 0.185938,-0.230623 0.278907,-0.259187 0.09297,-0.02856 0.185939,-0.226874 0.278909,-0.254968 0.09297,-0.02809 0.185938,-0.223093 0.278907,-0.250711 0.09297,-0.02762 0.185939,-0.219278 0.278907,-0.246419 0.09297,-0.02714 0.185939,-0.215433 0.278907,-0.24209 0.09297,-0.02666 0.185939,-0.211558 0.278909,-0.237728 0.09297,-0.02617 0.185939,-0.207652 0.278907,-0.233331 0.09297,-0.02568 0.185939,-0.203714 0.278907,-0.228899 0.09297,-0.02518 0.185939,-0.199748 0.278907,-0.224436 0.09297,-0.02468 0.185939,-0.195751 0.278909,-0.219939 0.09297,-0.02419 0.185939,-0.191728 0.278908,-0.215408 0.09297,-0.02368 0.185938,-0.187676 0.278907,-0.21085 0.09297,-0.02317 0.185938,-0.183595 0.278907,-0.206256 0.09297,-0.02266 0.185938,-0.17949 0.278908,-0.201636 0.09297,-0.02215 0.185939,-0.175358 0.278908,-0.196986 0.09297,-0.02163 0.185938,-0.171199 0.278907,-0.192305 0.09297,-0.0211 0.185938,-0.167016 0.278907,-0.187597 0.09297,-0.02058 0.185938,-0.162808 0.278908,-0.182862 0.09297,-0.02006 0.185939,-0.158575 0.278908,-0.178099 0.09297,-0.01952 0.185938,-0.15432 0.278907,-0.17331 0.09297,-0.01899 0.185938,-0.150042 0.278907,-0.168495 0.09297,-0.01846 0.185938,-0.145743 0.278908,-0.163657 0.09297,-0.01792 0.185939,-0.14142 0.278908,-0.158792 0.09297,-0.01737 0.185939,-0.137078 0.278907,-0.153906 0.09297,-0.01682 0.185939,-0.132715 0.278907,-0.148997 0.09297,-0.01629 0.185939,-0.128331 0.278908,-0.144063 0.09297,-0.01573 0.185939,-0.12393 0.278908,-0.139111 0.09297,-0.01518 0.185939,-0.11951 0.278907,-0.134136 0.09297,-0.01463 0.185939,-0.115072 0.278908,-0.129142 0.09297,-0.01407 0.185938,-0.110617 0.278908,-0.12413 0.09297,-0.01351 0.185938,-0.106145 0.278907,-0.119098 0.09297,-0.01296 0.185939,-0.101657 0.27891,-0.114047 0.09297,-0.01239 0.185938,-0.09716 0.278906,-0.108982 0.09297,-0.01183 0.185937,-0.09264 0.278906,-0.1039 0.09297,-0.01126 0.185938,-0.0881 0.278906,-0.0988 0.09297,-0.01069 0.185937,-0.08356 0.278905,-0.09369 0.09298,-0.01013 0.185946,-0.07901 0.278915,-0.08856 0.09297,-0.0096 0.185937,-0.07443 0.278906,-0.08342 0.09297,-0.009 0.185937,-0.06985 0.278905,-0.07827 0.09297,-0.0084 0.185938,-0.06526 0.278906,-0.0731 0.09297,-0.0079 0.185937,-0.06067 0.278914,-0.06792 0.09297,-0.0072 0.185938,-0.05606 0.278907,-0.06275 0.09297,-0.0066 0.185936,-0.05144 0.278905,-0.05755 0.09297,-0.0062 0.185939,-0.04681 0.278905,-0.05234 0.09296,-0.0055 0.185943,-0.04218 0.278909,-0.04713 0.09296,-0.005 0.185933,-0.03754 0.27891,-0.04191 0.09296,-0.0044 0.185942,-0.0329 0.278909,-0.03669 0.09296,-0.0037 0.185933,-0.02825 0.278909,-0.03145 0.09296,-0.0032 0.185933,-0.02359 0.278899,-0.02623 0.09296,-0.0026 0.185943,-0.01893 0.27891,-0.02098 0.09296,-0.002 0.18594,-0.01429 0.27891,-0.01574 0.093,-0.0015 0.18594,-0.0097 0.27891,-0.01049 0.093,-8.74e-4 0.18594,-0.005 0.27891,-0.0053 0.093,-2.91e-4 0.18593,-2.91e-4 0.2789,0 0.093,2.92e-4 0.18594,0.0044 0.27891,0.0053 0.093,8.73e-4 0.18594,0.0091 0.27891,0.01049 0.093,0.0015 0.18594,0.0137 0.2789,0.01574 0.093,0.0021 0.18595,0.01837 0.27891,0.02098 0.093,0.0026 0.18594,0.02301 0.2789,0.02623 0.093,0.0032 0.18595,0.02767 0.27891,0.03145 0.093,0.0037 0.18594,0.03232 0.27892,0.03669 0.093,0.0044 0.18593,0.03697 0.2789,0.04191 0.093,0.005 0.18594,0.04161 0.27891,0.04713 0.093,0.0055 0.18593,0.04623 0.27891,0.05234 0.093,0.0062 0.18593,0.05086 0.2789,0.05755 0.093,0.0067 0.18595,0.05549 0.27892,0.06275 0.093,0.0072 0.18593,0.06009 0.2789,0.06792 0.093,0.0079 0.18594,0.06469 0.27891,0.0731 0.093,0.0084 0.18594,0.06929 0.27891,0.07827 0.093,0.009 0.18593,0.07387 0.27889,0.08342 0.093,0.0096 0.18596,0.07844 0.27892,0.08856 0.093,0.01013 0.18594,0.083 0.27891,0.09369 0.093,0.01069 0.18594,0.08754 0.2789,0.0988 0.093,0.01126 0.18595,0.09208 0.27891,0.1039 0.093,0.01182 0.18593,0.09659 0.27891,0.108982 0.093,0.01239 0.18594,0.101094 0.27891,0.114047 0.093,0.01296 0.18594,0.105584 0.27891,0.119098 0.093,0.01351 0.18593,0.110058 0.2789,0.12413 0.093,0.01407 0.18594,0.114515 0.27891,0.129142 0.093,0.01463 0.18593,0.118955 0.27892,0.134136 0.093,0.01518 0.18593,0.123379 0.2789,0.139111 0.093,0.01573 0.18594,0.127782 0.27891,0.144063 0.093,0.01629 0.18593,0.132168 0.27889,0.148997 0.093,0.01682 0.18595,0.136533 0.27891,0.153906 0.093,0.01737 0.18595,0.140878 0.27892,0.158792 0.093,0.01792 0.18594,0.145203 0.2789,0.163657 0.093,0.01844 0.18595,0.149506 0.27891,0.168495 0.093,0.01899 0.18593,0.153787 0.27891,0.17331 0.093,0.01953 0.18593,0.158045 0.2789,0.178099 0.093,0.02006 0.18595,0.16228 0.27892,0.182862 0.093,0.02058 0.18593,0.166492 0.2789,0.187597 0.093,0.0211 0.18594,0.170677 0.27891,0.192305 0.093,0.02163 0.18594,0.174839 0.27891,0.196986 0.093,0.02215 0.18593,0.178974 0.2789,0.201636 0.0929,0.02266 0.18595,0.183084 0.27892,0.206256 0.0929,0.02317 0.18593,0.187167 0.2789,0.21085 0.093,0.02368 0.18594,0.191222 0.2789,0.215408 0.093,0.02419 0.18595,0.195251 0.27891,0.219939 0.093,0.02468 0.18594,0.199249 0.27891,0.224436 0.093,0.02518 0.18595,0.203218 0.27891,0.228899 0.093,0.02568 0.18593,0.207159 0.27891,0.233331 0.093,0.02617 0.18593,0.211069 0.2789,0.237728 0.093,0.02666 0.18594,0.21495 0.27891,0.24209 0.093,0.02714 0.18593,0.218799 0.27891,0.246419 0.093,0.02762 0.18594,0.222617 0.27891,0.250711 0.093,0.02809 0.18594,0.226403 0.27891,0.254968 0.093,0.02856 0.18593,0.230155 0.2789,0.259187 0.093,0.02904 0.18594,0.233876 0.27891,0.26337 0.093,0.0295 0.18594,0.237562 0.27891,0.267514 0.093,0.02996 0.18594,0.241214 0.2789,0.271621 0.093,0.03041 0.18595,0.244833 0.27891,0.275689 0.093,0.03086 0.18594,0.248415 0.27891,0.279718 0.093,0.0313 0.18594,0.251963 0.2789,0.283707 0.093,0.03174 0.18595,0.255475 0.27892,0.287654 0.093,0.03218 0.18593,0.258952 0.2789,0.291564 0.093,0.0326 0.18594,0.262391 0.27891,0.29543 0.093,0.03303 0.18593,0.265793 0.27891,0.299255 0.093,0.03346 0.18593,0.269159 0.2789,0.303039 0.093,0.03388 0.18594,0.272486 0.27892,0.306778 0.093,0.03429 0.18593,0.275776 0.27891,0.310478 0.0929,0.0347 0.18593,0.279026 0.2789,0.314131 0.093,0.0351 0.18594,0.282238 0.27891,0.317742 0.093,0.0355 0.18593,0.285411 0.27889,0.321309 0.093,0.03589 0.18595,0.288545 0.27892,0.32483 0.093,0.03629 0.18594,0.291638 0.27891,0.328309 0.093,0.03666 0.18594,0.294691 0.2789,0.33174 0.093,0.03705 0.18595,0.297703 0.27891,0.335127 0.093,0.03742 0.18593,0.300675 0.27891,0.338466 0.093,0.03779 0.18594,0.303606 0.27891,0.341761 0.093,0.03816 0.18594,0.306497 0.27891,0.345009 0.093,0.03851 0.18593,0.309343 0.2789,0.34821 0.093,0.03886 0.18594,0.312148 0.27891,0.351362 0.093,0.03921 0.18593,0.314913 0.27891,0.354469 0.093,0.03955 0.18594,0.317634 0.27891,0.357528 0.093,0.0399 0.18594,0.320311 0.27891,0.360537 0.093,0.04023 0.18593,0.322947 0.2789,0.363499 0.093,0.04055 0.18594,0.325539 0.2789,0.366411 0.093,0.04087 0.18595,0.328089 0.27891,0.369277 0.093,0.04119 0.18595,0.330595 0.27891,0.372093 0.093,0.0415 0.18595,0.333055 0.27891,0.374858 0.093,0.04181 0.18593,0.335473 0.27891,0.377575 0.093,0.0421 0.18593,0.337847 0.2789,0.380243 0.093,0.0424 0.18594,0.340176 0.27891,0.38286 0.093,0.04268 0.18594,0.342461 0.27891,0.385426 0.093,0.04297 0.18594,0.344703 0.27891,0.387945 0.093,0.04324 0.18594,0.346897 0.27891,0.390411 0.093,0.04351 0.18593,0.349048 0.2789,0.392828 0.0929,0.04378 0.18594,0.351153 0.27891,0.395194 0.093,0.04405 0.18594,0.353214 0.27892,0.397508 0.093,0.0443 0.18593,0.35523 0.27889,0.399774 0.093,0.04454 0.18595,0.357201 0.27891,0.401987 0.093,0.04479 0.18594,0.359125 0.27891,0.404149 0.093,0.04502 0.18594,0.361005 0.27891,0.40626 0.093,0.04526 0.18594,0.36284 0.27891,0.408322 0.093,0.04548 0.18593,0.364628 0.2789,0.410331 0.093,0.0457 0.18594,0.36637 0.27891,0.412288 0.093,0.04592 0.18593,0.368069 0.27891,0.414195 0.093,0.04613 0.18593,0.369721 0.27891,0.41605 0.093,0.04633 0.18594,0.371328 0.27891,0.417854 0.093,0.04653 0.18593,0.37289 0.27891,0.419608 0.093,0.04671 0.18593,0.374405 0.2789,0.42131 0.093,0.04691 0.18594,0.375874 0.27891,0.42296 0.093,0.04708 0.18594,0.377298 0.2789,0.424557 0.093,0.04726 0.18595,0.378678 0.27891,0.426107 0.093,0.04743 0.18594,0.38001 0.27891,0.427603 0.093,0.04759 0.18594,0.381298 0.2789,0.429049 0.093,0.04775 0.18595,0.382541 0.27891,0.430443 0.093,0.0479 0.18594,0.383739 0.27891,0.431787 0.093,0.04805 0.18594,0.38489 0.27891,0.43308 0.093,0.04819 0.18594,0.385997 0.27891,0.434316 0.093,0.04833 0.18593,0.38706 0.2789,0.43552 0.093,0.04843 0.18594,0.388074 0.27891,0.436654 0.093,0.0485 0.18594,0.38905 0.27892,0.43774 0.093,0.0487 0.18593,0.38997 0.2789,0.43879 0.093,0.0488 0.18594,0.39085 0.27891,0.43977 0.093,0.0489 0.18593,0.3917 0.2789,0.44072 0.093,0.049 0.18594,0.392487 0.2789,0.441597 0.093,0.0491 0.18595,0.39324 0.27892,0.44244 0.093,0.0492 0.18594,0.39396 0.2789,0.44325 0.093,0.0493 0.18595,0.3946 0.27891,0.44397 0.093,0.0494 0.18593,0.39522 0.27891,0.44467 0.093,0.0494 0.18593,0.39581 0.2789,0.44531 0.093,0.0495 0.18595,0.39634 0.27892,0.44591 0.093,0.0496 0.18593,0.39683 0.2789,0.44647 0.093,0.0496 0.18594,0.39726 0.27891,0.44695 0.093,0.0497 0.18594,0.39767 0.27891,0.44741 0.093,0.0497 0.18593,0.39802 0.2789,0.44781 0.093,0.0498 0.18595,0.39835 0.27892,0.44815 0.093,0.0498 0.18593,0.39863 0.27891,0.44848 0.093,0.0499 0.18593,0.39887 0.27889,0.44873 0.093,0.0499 0.18595,0.39906 0.27891,0.44895 0.093,0.0499 0.18594,0.39921 0.27891,0.44912 0.093,0.0499 0.18595,0.39932 0.27891,0.44924 0.093,0.05 0.18594,0.39939 0.27891,0.44932 0.093,0.05 0.18593,0.39942 0.2789,0.44934 0.093,0.05 0.18594,0.39941 0.27891,0.44934 0.093,0.05 0.18593,0.39935 0.27892,0.44927 0.093,0.0499 0.18593,0.39926 0.2789,0.44917 0.093,0.0499 0.18594,0.39913 0.27891,0.44902 0.093,0.0499 0.18593,0.39897 0.2789,0.44883 0.093,0.0499 0.18594,0.39877 0.27891,0.4486 0.093,0.0498 0.18594,0.39852 0.27892,0.44831 0.093,0.0498 0.18593,0.39824 0.27889,0.448 0.093,0.0498 0.18595,0.39792 0.27891,0.44764 0.093,0.0497 0.18594,0.39756 0.27891,0.44723 0.093,0.0497 0.18594,0.39716 0.2789,0.44679 0.093,0.0496 0.18596,0.39673 0.27892,0.44628 0.093,0.0495 0.18593,0.39627 0.2789,0.44577 0.093,0.0495 0.18594,0.39577 0.27891,0.44519 0.093,0.0494 0.18594,0.39523 0.27891,0.44459 0.093,0.0493 0.18593,0.39465 0.2789,0.44394 0.093,0.0492 0.18595,0.39403 0.27892,0.44324 0.093,0.0492 0.18593,0.3934 0.27891,0.44253 0.093,0.0491 0.18593,0.39271 0.2789,0.44175 0.093,0.049 0.18594,0.392 0.27891,0.44095 0.093,0.0489 0.18593,0.39126 0.2789,0.44011 0.093,0.0488 0.18595,0.39048 0.27891,0.43924 0.093,0.0487 0.18594,0.38966 0.27891,0.43832 0.093,0.0486 0.18594,0.38881 0.2789,0.43735 0.093,0.0485 0.18595,0.38795 0.27891,0.43638 0.093,0.0484 0.18593,0.38704 0.27891,0.43535 0.093,0.0483 0.18594,0.38611 0.27891,0.4343 0.093,0.0482 0.18594,0.38513 0.27891,0.43321 0.093,0.048 0.18593,0.38413 0.2789,0.43208 0.093,0.0479 0.18594,0.3831 0.27891,0.43091 0.093,0.0477 0.18594,0.38204 0.27892,0.42972 0.093,0.0478 0.18593,0.38096 0.2789,0.42851 0.0929,0.0476 0.18594,0.37983 0.27891,0.42723 0.093,0.0475 0.18593,0.3787 0.27891,0.42596 0.093,0.0473 0.18593,0.37752 0.27889,0.42462 0.093,0.0471 0.18595,0.37633 0.27892,0.42329 0.093,0.047 0.18594,0.3751 0.2789,0.42189 0.093,0.0469 0.18595,0.37385 0.27891,0.42048 0.093,0.0467 0.18594,0.37257 0.27891,0.41905 0.093,0.0465 0.18593,0.37125 0.2789,0.41756 0.093,0.0463 0.18594,0.36993 0.27892,0.41608 0.093,0.0461 0.18593,0.36858 0.27891,0.41455 0.093,0.046 0.18593,0.36718 0.2789,0.41299 0.093,0.0458 0.18594,0.36579 0.27891,0.41141 0.093,0.0456 0.18593,0.36436 0.2789,0.40981 0.093,0.0454 0.18595,0.3629 0.27892,0.40817 0.093,0.0452 0.18593,0.36143 0.27891,0.40651 0.093,0.0451 0.18593,0.35993 0.27889,0.40482 0.093,0.0449 0.18595,0.35843 0.27891,0.40312 0.093,0.0447 0.18594,0.35688 0.27891,0.40139 0.093,0.0444 0.18595,0.35532 0.27891,0.39962 0.093,0.0443 0.18595,0.35376 0.27891,0.39786 0.093,0.0441 0.18593,0.35214 0.2789,0.39604 0.093,0.0439 0.18594,0.35052 0.27891,0.39423 0.093,0.0437 0.18593,0.34888 0.27891,0.39238 0.093,0.0436 0.18594,0.34723 0.27891,0.39052 0.093,0.0433 0.18594,0.34554 0.27891,0.38861 0.0929,0.0431 0.18593,0.34386 0.27891,0.38673 0.093,0.0429 0.18593,0.34214 0.2789,0.38478 0.093,0.0427 0.18594,0.34042 0.27891,0.38285 0.093,0.0425 0.18594,0.33867 0.2789,0.38088 0.093,0.0422 0.18595,0.33691 0.27891,0.3789 0.093,0.042 0.18594,0.33512 0.27891,0.37688 0.093,0.0418 0.18594,0.33335 0.2789,0.37488 0.093,0.0416 0.18595,0.33153 0.27891,0.37285 0.093,0.0413 0.18594,0.3297 0.27891,0.37079 0.093,0.041 0.18594,0.32787 0.27891,0.36872 0.093,0.0409 0.18594,0.32602 0.27891,0.36664 0.093,0.0406 0.18593,0.32416 0.2789,0.36454 0.093,0.0403 0.18594,0.32228 0.27892,0.36244 0.093,0.0402 0.18593,0.32039 0.27891,0.36029 0.093,0.0399 0.18593,0.3185 0.2789,0.35818 0.093,0.0396 0.18594,0.31658 0.27891,0.35602 0.093,0.0393 0.18593,0.31464 0.27891,0.35384 0.093,0.0393 0.18593,0.31272 0.2789,0.35168 0.093,0.039 0.18595,0.31077 0.27891,0.34949 0.093,0.0387 0.18594,0.30881 0.2789,0.34728 0.093,0.0385 0.18595,0.30686 0.27891,0.34508 0.093,0.0382 0.18594,0.30488 0.27891,0.34285 0.093,0.038 0.18594,0.30291 0.27891,0.34062 0.093,0.0377 0.18594,0.30091 0.27891,0.33839 0.093,0.0375 0.18593,0.29892 0.2789,0.33614 0.093,0.0372 0.18594,0.2969 0.27891,0.33387 0.093,0.0369 0.18594,0.2949 0.27891,0.33162 0.093,0.0367 0.18594,0.29287 0.27891,0.32934 0.093,0.0364 0.18594,0.29084 0.27891,0.32706 0.093,0.0361 0.18593,0.28881 0.27891,0.32477 0.093,0.036 0.18593,0.28678 0.27889,0.32248 0.093,0.0357 0.18595,0.28474 0.27891,0.32018 0.093,0.0354 0.18595,0.28269 0.27891,0.31787 0.093,0.0352 0.18595,0.28064 0.27891,0.31557 0.093,0.035 0.18595,0.27857 0.27891,0.31325 0.093,0.0347 0.18593,0.27651 0.2789,0.31093 0.093,0.0344 0.18594,0.27445 0.27891,0.3086 0.093,0.0342 0.18594,0.27239 0.27892,0.30629 0.093,0.0339 0.18593,0.27031 0.2789,0.30395 0.093,0.0336 0.18594,0.26824 0.27891,0.30162 0.093,0.0334 0.18593,0.26615 0.2789,0.29928 0.093,0.0331 0.18594,0.26408 0.27891,0.29695 0.093,0.0328 0.18594,0.262 0.27892,0.29461 0.093,0.0326 0.18593,0.25992 0.27889,0.29227 0.093,0.0323 0.18595,0.25783 0.27891,0.28992 0.093,0.032 0.18594,0.25577 0.27891,0.28759 0.093,0.0318 0.18594,0.25368 0.2789,0.28524 0.093,0.0315 0.18596,0.25159 0.27892,0.2829 0.093,0.0312 0.18593,0.24952 0.2789,0.28056 0.093,0.031 0.18594,0.24744 0.27891,0.27822 0.093,0.0308 0.18594,0.24536 0.27891,0.27589 0.093,0.0305 0.18593,0.24327 0.27891,0.27353 0.093,0.0303 0.18594,0.24121 0.27891,0.27122 0.093,0.03 0.18593,0.23912 0.27891,0.26887 0.093,0.0298 0.18593,0.23706 0.2789,0.26655 0.093,0.0294 0.18594,0.23499 0.27891,0.26421 0.0929,0.0293 0.18593,0.23293 0.27891,0.26189 0.093,0.029 0.18594,0.23087 0.2789,0.25958 0.093,0.0287 0.18594,0.22879 0.27891,0.25725 0.093,0.0285 0.18594,0.22674 0.2789,0.25494 0.093,0.0282 0.18595,0.22469 0.27891,0.25263 0.093,0.0279 0.18594,0.22264 0.27892,0.25032 0.093,0.0277 0.18593,0.2206 0.2789,0.24802 0.093,0.0274 0.18594,0.21856 0.27891,0.24573 0.093,0.0272 0.18593,0.21653 0.2789,0.24345 0.093,0.0268 0.18594,0.21449 0.27891,0.24116 0.093,0.0267 0.18594,0.21246 0.27892,0.23888 0.093,0.0264 0.18593,0.21044 0.2789,0.23661 0.093,0.0262 0.18594,0.20843 0.27891,0.23434 0.093,0.026 0.18593,0.20643 0.27891,0.23209 0.093,0.0257 0.18593,0.20443 0.27889,0.22983 0.093,0.0254 0.18596,0.20244 0.27892,0.2276 0.093,0.0252 0.18594,0.20043 0.2789,0.22536 0.093,0.0249 0.18595,0.19845 0.27891,0.22312 0.093,0.0246 0.18594,0.19649 0.27891,0.22092 0.093,0.0244 0.18593,0.19451 0.2789,0.21869 0.093,0.0242 0.18595,0.19256 0.27892,0.21649 0.093,0.0239 0.18593,0.19061 0.27891,0.21429 0.093,0.0236 0.18593,0.18868 0.2789,0.21212 0.093,0.0234 0.18594,0.18673 0.27891,0.20994 0.093,0.0232 0.18593,0.1848 0.2789,0.20776 0.093,0.023 0.18595,0.18288 0.27892,0.20561 0.093,0.0228 0.18593,0.18096 0.27891,0.20345 0.093,0.0226 0.18593,0.17907 0.27889,0.20132 0.093,0.0223 0.18595,0.17718 0.27891,0.19919 0.093,0.022 0.18594,0.1753 0.27891,0.19707 0.093,0.0218 0.18595,0.17342 0.27891,0.19497 0.093,0.0216 0.18595,0.17155 0.27891,0.19286 0.093,0.0213 0.18593,0.1697 0.2789,0.19078 0.093,0.0211 0.18594,0.16784 0.27891,0.18869 0.093,0.0209 0.18593,0.16602 0.27892,0.18664 0.093,0.0206 0.18593,0.16419 0.2789,0.18457 0.093,0.0204 0.18594,0.16238 0.27891,0.18255 0.093,0.0202 0.18593,0.16056 0.27891,0.1805 0.093,0.0199 0.18593,0.15876 0.2789,0.17849 0.093,0.0197 0.18594,0.15697 0.27892,0.17647 0.093,0.0194 0.18593,0.1552 0.2789,0.17449 0.093,0.0193 0.18594,0.15342 0.2789,0.17248 0.093,0.019 0.18594,0.15169 0.27891,0.17053 0.093,0.0188 0.18594,0.14993 0.2789,0.16856 0.093,0.0187 0.18596,0.1482 0.27892,0.16661"
       title="exp(-(3*x-1.5)**2)*0.6"
       id="path2817" />
    <g
       id="g2887"
       transform="matrix(0.80858148,0,0,0.80858148,78.82062,29.10399)">
      <g
         word-spacing="normal"
         letter-spacing="normal"
         font-size-adjust="none"
         font-stretch="normal"
         font-weight="normal"
         font-variant="normal"
         font-style="normal"
         stroke-miterlimit="10.433"
         xml:space="preserve"
         transform="matrix(0.3,0,0,-0.3,-52.5,222.75)"
         id="g2885"
         style="font-style:normal;font-variant:normal;font-weight:normal;font-stretch:normal;letter-spacing:normal;word-spacing:normal;text-anchor:start;fill:none;fill-opacity:1;fill-rule:evenodd;stroke:#000000;stroke-linecap:butt;stroke-linejoin:miter;stroke-miterlimit:10.43299961;stroke-dasharray:none;stroke-dashoffset:0;stroke-opacity:1"><path
           id="path2871"
           d="m 479.74,425.18 0.01,0.04 0.01,0.03 0.01,0.06 0.02,0.05 0.01,0.06 0.01,0.05 0.02,0.04 0.01,0.05 0.01,0.04 0.01,0.04 v 0.04 l 0.01,0.04 0.01,0.04 0.01,0.03 v 0.03 l 0.01,0.03 v 0.03 l 0.01,0.03 v 0.03 l 0.01,0.05 v 0.06 0.05 0.05 l 0.01,0.05 v 0.03 0.03 0.03 0.03 c 0,0.91 -0.69,1.35 -1.44,1.35 -0.5,0 -1.3,-0.3 -1.75,-1.05 -0.1,-0.25 -0.5,-1.78 -0.69,-2.69 -0.36,-1.29 -0.7,-2.64 -1,-3.98 l -2.25,-8.97 c -0.19,-0.75 -2.33,-4.23 -5.62,-4.23 -2.54,0 -3.1,2.18 -3.1,4.03 0,2.29 0.86,5.39 2.55,9.76 0.8,2.05 1,2.6 1,3.6 0,2.23 -1.59,4.07 -4.09,4.07 -4.74,0 -6.58,-7.21 -6.58,-7.67 0,-0.5 0.5,-0.5 0.61,-0.5 0.5,0 0.54,0.11 0.79,0.91 1.35,4.69 3.33,6.17 5.03,6.17 0.4,0 1.25,0 1.25,-1.59 0,-1.25 -0.5,-2.53 -0.85,-3.49 -1.99,-5.28 -2.9,-8.12 -2.9,-10.47 0,-4.42 3.15,-5.92 6.08,-5.92 1.96,0 3.64,0.85 5.03,2.24 -0.64,-2.58 -1.23,-5.03 -3.23,-7.68 -1.3,-1.68 -3.19,-3.14 -5.48,-3.14 -0.69,0 -2.94,0.16 -3.79,2.1 0.8,0 1.46,0 2.14,0.61 0.5,0.43 1,1.09 1,2.03 0,1.55 -1.34,1.75 -1.84,1.75 -1.14,0 -2.8,-0.8 -2.8,-3.24 0,-2.5 2.21,-4.34 5.29,-4.34 5.14,0 10.26,4.55 11.67,10.17 z"
           inkscape:connector-curvature="0"
           style="fill:#000000;stroke-width:0" /><path
           id="path2873"
           d="m 529.83,422.5 h 0.14 0.15 0.14 l 0.07,0.01 h 0.08 l 0.07,0.01 0.07,0.01 0.07,0.01 0.07,0.01 0.07,0.01 0.06,0.02 0.07,0.02 0.06,0.02 0.06,0.02 0.06,0.03 0.06,0.03 0.05,0.04 0.05,0.03 0.05,0.05 0.04,0.04 0.04,0.05 0.02,0.03 0.02,0.03 0.01,0.02 0.02,0.03 0.01,0.03 0.01,0.04 0.02,0.03 0.01,0.04 0.01,0.03 0.01,0.04 v 0.04 l 0.01,0.04 v 0.04 l 0.01,0.04 v 0.04 0.05 c 0,1 -0.95,1 -1.64,1 h -29.84 c -0.71,0 -1.65,0 -1.65,-1 0,-0.98 0.94,-0.98 1.69,-0.98 z"
           inkscape:connector-curvature="0"
           style="fill:#000000;stroke-width:0" /><path
           id="path2875"
           d="m 529.88,412.82 h 0.06 0.07 l 0.14,0.01 h 0.14 0.07 l 0.07,0.01 0.06,0.01 h 0.07 l 0.07,0.01 0.07,0.02 0.07,0.01 0.06,0.02 0.07,0.02 0.06,0.02 0.06,0.02 0.05,0.03 0.06,0.03 0.05,0.04 0.05,0.04 0.05,0.04 0.04,0.05 0.02,0.02 0.02,0.03 0.02,0.02 0.02,0.03 0.01,0.03 0.02,0.03 0.01,0.03 0.01,0.03 0.02,0.04 0.01,0.03 0.01,0.04 0.01,0.04 v 0.04 l 0.01,0.04 v 0.04 l 0.01,0.04 v 0.05 0.04 c 0,1 -0.95,1 -1.69,1 h -29.75 c -0.75,0 -1.69,0 -1.69,-1 0,-1 0.94,-1 1.65,-1 z"
           inkscape:connector-curvature="0"
           style="fill:#000000;stroke-width:0" /><path
           id="path2877"
           d="m 566.44,426.12 h 4.28 c 1,0 1.5,0 1.5,1 0,0.55 -0.5,0.55 -1.34,0.55 h -4.15 l 1.05,5.69 c 0.2,1.04 0.91,4.57 1.2,5.17 0.46,0.95 1.3,1.7 2.35,1.7 0.19,0 1.48,0 2.44,-0.91 -2.19,-0.18 -2.69,-1.93 -2.69,-2.68 0,-1.14 0.89,-1.74 1.84,-1.74 1.3,0 2.74,1.1 2.74,2.99 0,2.29 -2.3,3.43 -4.33,3.43 -1.71,0 -4.85,-0.89 -6.33,-5.82 -0.3,-1.05 -0.45,-1.55 -1.64,-7.83 h -3.44 c -0.95,0 -1.5,0 -1.5,-0.94 0,-0.61 0.46,-0.61 1.39,-0.61 h 3.3 l -3.75,-19.67 c -0.89,-4.83 -1.74,-9.38 -4.33,-9.38 -0.2,0 -1.44,0 -2.39,0.91 2.3,0.14 2.74,1.94 2.74,2.69 0,1.14 -0.9,1.75 -1.85,1.75 -1.3,0 -2.73,-1.1 -2.73,-3 0,-2.24 2.18,-3.44 4.23,-3.44 2.74,0 4.74,2.94 5.63,4.84 1.59,3.14 2.75,9.16 2.79,9.52 z"
           inkscape:connector-curvature="0"
           style="fill:#000000;stroke-width:0" /><path
           id="path2879"
           d="m 594.4,394.25 v 0.02 0.03 l -0.01,0.01 v 0.02 0.01 l -0.01,0.02 v 0.01 l -0.01,0.02 -0.01,0.02 -0.01,0.02 -0.01,0.02 -0.01,0.03 -0.02,0.02 -0.02,0.03 -0.02,0.03 -0.02,0.03 -0.03,0.03 -0.03,0.04 -0.01,0.02 -0.02,0.02 -0.02,0.02 -0.02,0.02 -0.02,0.02 -0.02,0.03 -0.02,0.02 -0.02,0.02 -0.02,0.03 -0.02,0.02 -0.03,0.03 -0.02,0.03 -0.03,0.03 -0.03,0.03 -0.03,0.03 -0.03,0.03 -0.03,0.03 -0.03,0.03 -0.03,0.04 -0.04,0.03 -0.03,0.04 -0.04,0.03 -0.04,0.04 -0.04,0.04 c -6.21,6.28 -7.81,15.69 -7.81,23.31 0,8.67 1.89,17.35 8.02,23.56 0.64,0.61 0.64,0.71 0.64,0.86 0,0.35 -0.19,0.49 -0.49,0.49 -0.5,0 -4.98,-3.38 -7.92,-9.7 -2.54,-5.49 -3.14,-11.02 -3.14,-15.21 0,-3.89 0.55,-9.9 3.28,-15.54 2.99,-6.13 7.28,-9.36 7.78,-9.36 0.3,0 0.49,0.14 0.49,0.5 z"
           inkscape:connector-curvature="0"
           style="fill:#000000;stroke-width:0" /><path
           id="path2881"
           d="m 613.87,421.25 0.03,0.13 0.04,0.15 0.04,0.16 0.04,0.18 0.06,0.19 0.06,0.21 0.06,0.22 0.08,0.22 0.08,0.23 0.08,0.24 0.1,0.25 0.1,0.24 0.11,0.25 0.12,0.25 0.13,0.25 0.14,0.25 0.15,0.24 0.15,0.24 0.17,0.23 0.18,0.22 0.18,0.22 0.2,0.2 0.21,0.19 0.22,0.18 0.23,0.16 0.25,0.14 0.13,0.07 0.13,0.06 0.13,0.05 0.13,0.05 0.14,0.05 0.15,0.04 0.14,0.03 0.15,0.03 0.15,0.02 0.16,0.02 0.16,0.01 h 0.16 c 0.25,0 1.44,0 2.48,-0.64 -1.39,-0.25 -2.39,-1.5 -2.39,-2.69 0,-0.79 0.55,-1.75 1.89,-1.75 1.1,0 2.69,0.89 2.69,2.89 0,2.6 -2.94,3.28 -4.63,3.28 -2.88,0 -4.63,-2.64 -5.23,-3.78 -1.25,3.28 -3.94,3.78 -5.37,3.78 -5.19,0 -8.03,-6.42 -8.03,-7.67 0,-0.5 0.5,-0.5 0.6,-0.5 0.4,0 0.55,0.11 0.65,0.55 1.68,5.28 4.98,6.53 6.67,6.53 0.95,0 2.68,-0.44 2.68,-3.33 0,-1.54 -0.84,-4.89 -2.68,-11.86 -0.8,-3.09 -2.54,-5.18 -4.74,-5.18 -0.3,0 -1.43,0 -2.48,0.65 1.25,0.24 2.34,1.28 2.34,2.69 0,1.34 -1.09,1.73 -1.84,1.73 -1.5,0 -2.75,-1.29 -2.75,-2.89 0,-2.28 2.5,-3.28 4.68,-3.28 3.3,0 5.08,3.49 5.24,3.78 0.59,-1.84 2.39,-3.78 5.38,-3.78 5.13,0 7.98,6.42 7.98,7.67 0,0.5 -0.45,0.5 -0.61,0.5 -0.44,0 -0.55,-0.2 -0.64,-0.54 -1.64,-5.33 -5.03,-6.53 -6.63,-6.53 -1.95,0 -2.75,1.59 -2.75,3.29 0,1.1 0.3,2.19 0.86,4.38 z"
           inkscape:connector-curvature="0"
           style="fill:#000000;stroke-width:0" /><path
           id="path2883"
           d="m 640.06,418.65 v 0.37 l -0.01,0.39 -0.01,0.39 -0.01,0.41 -0.04,0.84 -0.06,0.88 -0.08,0.92 -0.11,0.95 -0.13,0.97 -0.17,1.01 -0.19,1.02 -0.23,1.03 -0.27,1.05 -0.31,1.06 -0.34,1.07 -0.4,1.07 -0.21,0.53 -0.23,0.53 -0.23,0.53 -0.25,0.53 c -2.99,6.12 -7.27,9.36 -7.77,9.36 -0.29,0 -0.5,-0.19 -0.5,-0.49 0,-0.15 0,-0.25 0.94,-1.15 4.89,-4.92 7.73,-12.85 7.73,-23.27 0,-8.51 -1.84,-17.28 -8.03,-23.56 -0.64,-0.59 -0.64,-0.7 -0.64,-0.84 0,-0.3 0.21,-0.5 0.5,-0.5 0.5,0 4.97,3.39 7.92,9.71 2.54,5.47 3.13,11 3.13,15.19 z"
           inkscape:connector-curvature="0"
           style="fill:#000000;stroke-width:0" /></g>    </g>
    <path
       style="fill:none;stroke:#000000;stroke-width:0.57860911;stroke-linecap:butt;stroke-linejoin:miter;stroke-miterlimit:4;stroke-dasharray:none;stroke-opacity:1"
       d="M 58.57566,185.11904 V 112.9735"
       id="path2925"
       inkscape:connector-curvature="0" />
    <path
       style="fill:none;stroke:#000000;stroke-width:0.579;stroke-linecap:butt;stroke-linejoin:miter;stroke-opacity:1;stroke-miterlimit:4;stroke-dasharray:none"
       d="M 39.12852,184.83157 V 141.23122"
       id="path3692"
       inkscape:connector-curvature="0" />
    <path
       style="fill:none;stroke:#000000;stroke-width:0.57899998;stroke-linecap:butt;stroke-linejoin:miter;stroke-opacity:1;stroke-miterlimit:4;stroke-dasharray:0.57899998,1.73699994;stroke-dashoffset:0"
       d="M 39.12852,141.23122 H 29.998532"
       id="path3694"
       inkscape:connector-curvature="0" />
    <path
       style="fill:none;stroke:#000000;stroke-width:0.57899998;stroke-linecap:butt;stroke-linejoin:miter;stroke-opacity:1;stroke-miterlimit:4;stroke-dasharray:0.57899998,1.73699994;stroke-dashoffset:0"
       d="M 58.575659,112.9735 H 30.18486"
       id="path3696"
       inkscape:connector-curvature="0" />
    <path
       style="fill:#dadada;fill-opacity:1;stroke:none;stroke-width:3.78111005;stroke-miterlimit:4;stroke-dasharray:3.78110996, 11.34332986;stroke-dashoffset:0;stroke-opacity:1"
       d="m 150.34771,615.71617 v -82.01614 l 14.06257,-18.63047 c 11.2961,-14.96539 30.00853,-42.49218 52.78958,-77.65577 1.60261,-2.47371 2.08068,25.98529 2.1598,128.5708 l 0.10161,131.74771 h -34.55678 -34.55678 z"
       id="path3698"
       inkscape:connector-curvature="0"
       transform="scale(0.26458333)" />
    <g
       transform="matrix(0.89955503,0,0,0.89955503,-32.397255,105.92948)"
       id="g3742">
      <g
         style="font-style:normal;font-variant:normal;font-weight:normal;font-stretch:normal;letter-spacing:normal;word-spacing:normal;text-anchor:start;fill:none;fill-opacity:1;fill-rule:evenodd;stroke:#000000;stroke-linecap:butt;stroke-linejoin:miter;stroke-miterlimit:10.43299961;stroke-dasharray:none;stroke-dashoffset:0;stroke-opacity:1"
         id="g3740"
         transform="matrix(0.3,0,0,-0.3,-52.5,222.75)"
         xml:space="preserve"
         stroke-miterlimit="10.433"
         font-style="normal"
         font-variant="normal"
         font-weight="normal"
         font-stretch="normal"
         font-size-adjust="none"
         letter-spacing="normal"
         word-spacing="normal"><path
           style="fill:#000000;stroke-width:0"
           inkscape:connector-curvature="0"
           d="m 464.44,411.93 -0.19,-0.3 -0.18,-0.29 -0.19,-0.28 -0.19,-0.26 -0.18,-0.25 -0.19,-0.23 -0.19,-0.22 -0.18,-0.21 -0.19,-0.2 -0.19,-0.18 -0.18,-0.17 -0.19,-0.16 -0.19,-0.15 -0.18,-0.14 -0.19,-0.13 -0.19,-0.12 -0.19,-0.11 -0.19,-0.1 -0.19,-0.09 -0.19,-0.09 -0.19,-0.07 -0.2,-0.07 -0.19,-0.07 -0.2,-0.05 -0.19,-0.05 -0.2,-0.04 -0.2,-0.04 -0.19,-0.03 -0.41,-0.05 -0.4,-0.03 c -0.61,-0.05 -1.05,-0.05 -1.05,-1 0,-0.3 0.25,-0.55 0.64,-0.55 1.34,0 2.89,0.16 4.28,0.16 1.64,0 3.39,-0.16 4.99,-0.16 0.29,0 0.95,0 0.95,0.95 0,0.55 -0.45,0.6 -0.8,0.6 -1.15,0.09 -2.34,0.5 -2.34,1.73 0,0.61 0.3,1.16 0.69,1.84 l 3.79,6.39 h 12.5 l -0.14,1.54 h -11.42 l 9.83,16.45 1.59,-16.45 0.14,-1.54 c 0.11,-1.04 0.8,-7.82 0.8,-8.32 0,-1.5 -2.59,-1.64 -3.58,-1.64 -0.7,0 -1.2,0 -1.2,-1 0,-0.55 0.59,-0.55 0.7,-0.55 2.03,0 4.19,0.16 6.22,0.16 1.25,0 4.39,-0.16 5.64,-0.16 0.3,0 0.89,0 0.89,1 0,0.55 -0.5,0.55 -1.14,0.55 -3.09,0 -3.09,0.34 -3.25,1.79 l -3.03,31.13 c -0.11,1 -0.11,1.2 -0.95,1.2 -0.8,0 -0.99,-0.34 -1.3,-0.84 z"
           id="path3738" /></g>    </g>
    <g
       id="g3838"
       transform="matrix(0.7552527,0,0,0.7552527,-58.754589,54.407599)">
      <g
         word-spacing="normal"
         letter-spacing="normal"
         font-size-adjust="none"
         font-stretch="normal"
         font-weight="normal"
         font-variant="normal"
         font-style="normal"
         stroke-miterlimit="10.433"
         xml:space="preserve"
         transform="matrix(0.3,0,0,-0.3,-52.5,222.75)"
         id="g3836"
         style="font-style:normal;font-variant:normal;font-weight:normal;font-stretch:normal;letter-spacing:normal;word-spacing:normal;text-anchor:start;fill:none;fill-opacity:1;fill-rule:evenodd;stroke:#000000;stroke-linecap:butt;stroke-linejoin:miter;stroke-miterlimit:10.43299961;stroke-dasharray:none;stroke-dashoffset:0;stroke-opacity:1"><path
           id="path3828"
           d="m 473.8,426.12 h 4.28 c 1,0 1.5,0 1.5,1 0,0.55 -0.5,0.55 -1.34,0.55 h -4.14 l 1.04,5.69 c 0.21,1.04 0.91,4.57 1.21,5.17 0.45,0.95 1.29,1.7 2.34,1.7 0.19,0 1.49,0 2.44,-0.91 -2.19,-0.18 -2.69,-1.93 -2.69,-2.68 0,-1.14 0.89,-1.74 1.85,-1.74 1.29,0 2.73,1.1 2.73,2.99 0,2.29 -2.3,3.43 -4.33,3.43 -1.7,0 -4.84,-0.89 -6.33,-5.82 -0.29,-1.05 -0.45,-1.55 -1.64,-7.83 h -3.43 c -0.96,0 -1.5,0 -1.5,-0.94 0,-0.61 0.45,-0.61 1.39,-0.61 h 3.29 l -3.75,-19.67 c -0.89,-4.83 -1.73,-9.38 -4.33,-9.38 -0.2,0 -1.43,0 -2.39,0.91 2.3,0.14 2.74,1.94 2.74,2.69 0,1.14 -0.89,1.75 -1.85,1.75 -1.29,0 -2.73,-1.1 -2.73,-3 0,-2.24 2.19,-3.44 4.23,-3.44 2.74,0 4.74,2.94 5.63,4.84 1.59,3.14 2.75,9.16 2.8,9.52 z"
           inkscape:connector-curvature="0"
           style="fill:#000000;stroke-width:0" /><path
           id="path3830"
           d="m 501.77,394.25 v 0.02 l -0.01,0.03 v 0.01 0.02 0.01 l -0.01,0.02 v 0.01 l -0.01,0.02 -0.01,0.02 -0.01,0.02 -0.01,0.02 -0.01,0.03 -0.02,0.02 -0.02,0.03 -0.02,0.03 -0.02,0.03 -0.03,0.03 -0.03,0.04 -0.02,0.02 -0.01,0.02 -0.02,0.02 -0.02,0.02 -0.02,0.02 -0.02,0.03 -0.02,0.02 -0.02,0.02 -0.02,0.03 -0.03,0.02 -0.02,0.03 -0.03,0.03 -0.02,0.03 -0.03,0.03 -0.03,0.03 -0.03,0.03 -0.03,0.03 -0.03,0.03 -0.04,0.04 -0.03,0.03 -0.03,0.04 -0.04,0.03 -0.04,0.04 -0.04,0.04 c -6.22,6.28 -7.81,15.69 -7.81,23.31 0,8.67 1.89,17.35 8.01,23.56 0.65,0.61 0.65,0.71 0.65,0.86 0,0.35 -0.19,0.49 -0.49,0.49 -0.5,0 -4.98,-3.38 -7.92,-9.7 -2.55,-5.49 -3.14,-11.02 -3.14,-15.21 0,-3.89 0.55,-9.9 3.28,-15.54 2.98,-6.13 7.28,-9.36 7.78,-9.36 0.3,0 0.49,0.14 0.49,0.5 z"
           inkscape:connector-curvature="0"
           style="fill:#000000;stroke-width:0" /><path
           id="path3832"
           d="m 513.52,411.93 -0.19,-0.3 -0.18,-0.29 -0.19,-0.28 -0.19,-0.26 -0.18,-0.25 -0.19,-0.23 -0.19,-0.22 -0.18,-0.21 -0.19,-0.2 -0.19,-0.18 -0.18,-0.17 -0.19,-0.16 -0.19,-0.15 -0.19,-0.14 -0.18,-0.13 -0.19,-0.12 -0.19,-0.11 -0.19,-0.1 -0.19,-0.09 -0.19,-0.09 -0.2,-0.07 -0.19,-0.07 -0.19,-0.07 -0.2,-0.05 -0.19,-0.05 -0.2,-0.04 -0.2,-0.04 -0.2,-0.03 -0.4,-0.05 -0.41,-0.03 c -0.6,-0.05 -1.04,-0.05 -1.04,-1 0,-0.3 0.25,-0.55 0.64,-0.55 1.34,0 2.89,0.16 4.28,0.16 1.64,0 3.39,-0.16 4.98,-0.16 0.3,0 0.96,0 0.96,0.95 0,0.55 -0.46,0.6 -0.8,0.6 -1.16,0.09 -2.34,0.5 -2.34,1.73 0,0.61 0.29,1.16 0.68,1.84 l 3.8,6.39 h 12.5 l -0.14,1.54 h -11.42 l 9.83,16.45 1.59,-16.45 0.14,-1.54 c 0.11,-1.04 0.8,-7.82 0.8,-8.32 0,-1.5 -2.6,-1.64 -3.58,-1.64 -0.7,0 -1.2,0 -1.2,-1 0,-0.55 0.59,-0.55 0.7,-0.55 2.03,0 4.19,0.16 6.22,0.16 1.25,0 4.39,-0.16 5.64,-0.16 0.3,0 0.89,0 0.89,1 0,0.55 -0.5,0.55 -1.14,0.55 -3.1,0 -3.1,0.34 -3.25,1.79 l -3.03,31.13 c -0.11,1 -0.11,1.2 -0.95,1.2 -0.8,0 -0.99,-0.34 -1.3,-0.84 z"
           inkscape:connector-curvature="0"
           style="fill:#000000;stroke-width:0" /><path
           id="path3834"
           d="m 556.3,418.65 v 0.37 0.39 l -0.01,0.39 -0.01,0.41 -0.04,0.84 -0.06,0.88 -0.09,0.92 -0.1,0.95 -0.14,0.97 -0.16,1.01 -0.2,1.02 -0.23,1.03 -0.26,1.05 -0.31,1.06 -0.35,1.07 -0.39,1.07 -0.21,0.53 -0.23,0.53 -0.24,0.53 -0.25,0.53 c -2.98,6.12 -7.26,9.36 -7.76,9.36 -0.3,0 -0.5,-0.19 -0.5,-0.49 0,-0.15 0,-0.25 0.94,-1.15 4.89,-4.92 7.73,-12.85 7.73,-23.27 0,-8.51 -1.84,-17.28 -8.03,-23.56 -0.64,-0.59 -0.64,-0.7 -0.64,-0.84 0,-0.3 0.2,-0.5 0.5,-0.5 0.5,0 4.97,3.39 7.92,9.71 2.53,5.47 3.12,11 3.12,15.19 z"
           inkscape:connector-curvature="0"
           style="fill:#000000;stroke-width:0" /></g>    </g>
    <path
       style="fill:none;stroke:#000000;stroke-width:0.579;stroke-linecap:butt;stroke-linejoin:miter;stroke-opacity:1;stroke-miterlimit:4;stroke-dasharray:0.579,1.737;stroke-dashoffset:0"
       d="M 72.665901,89.951943 V 184.71624"
       id="path3891"
       inkscape:connector-curvature="0" />
    <path
       style="fill:none;stroke:#000000;stroke-width:0.579;stroke-linecap:butt;stroke-linejoin:miter;stroke-opacity:1;stroke-miterlimit:4;stroke-dasharray:0.579,1.158;stroke-dashoffset:0"
       d="m 128.80777,90.350114 c 0,94.565216 0,94.565216 0,94.565216"
       id="path3893"
       inkscape:connector-curvature="0" />
    <g
       transform="matrix(0.83042506,0,0,0.83042506,-52.89619,-8.4550078)"
       id="g3949">
      <g
         style="font-style:normal;font-variant:normal;font-weight:normal;font-stretch:normal;letter-spacing:normal;word-spacing:normal;text-anchor:start;fill:none;fill-opacity:1;fill-rule:evenodd;stroke:#000000;stroke-linecap:butt;stroke-linejoin:miter;stroke-miterlimit:10.43299961;stroke-dasharray:none;stroke-dashoffset:0;stroke-opacity:1"
         id="g3947"
         transform="matrix(0.3,0,0,-0.3,-52.5,222.75)"
         xml:space="preserve"
         stroke-miterlimit="10.433"
         font-style="normal"
         font-variant="normal"
         font-weight="normal"
         font-stretch="normal"
         font-size-adjust="none"
         letter-spacing="normal"
         word-spacing="normal"><path
           style="fill:#000000;stroke-width:0"
           inkscape:connector-curvature="0"
           d="m 463.49,410.09 -0.05,-0.18 -0.04,-0.17 -0.05,-0.16 -0.04,-0.15 -0.04,-0.15 -0.05,-0.13 -0.05,-0.13 -0.05,-0.12 -0.05,-0.11 -0.06,-0.11 -0.07,-0.1 -0.07,-0.09 -0.07,-0.09 -0.09,-0.07 -0.09,-0.08 -0.11,-0.06 -0.11,-0.07 -0.13,-0.05 -0.13,-0.05 -0.15,-0.05 -0.16,-0.04 -0.09,-0.02 -0.09,-0.01 -0.09,-0.02 -0.1,-0.02 -0.1,-0.01 -0.1,-0.01 -0.11,-0.01 -0.12,-0.02 -0.11,-0.01 -0.13,-0.01 h -0.12 l -0.13,-0.01 -0.14,-0.01 h -0.14 l -0.14,-0.01 h -0.15 l -0.16,-0.01 h -0.16 -0.16 -0.17 -0.18 -0.18 c -0.85,0 -1.35,0 -1.35,-1 0,-0.55 0.46,-0.55 1.35,-0.55 h 17.78 c 7.87,0 13.75,5.87 13.75,10.76 0,3.58 -2.89,6.47 -7.72,7.02 5.19,0.95 10.42,4.64 10.42,9.38 0,3.68 -3.3,6.87 -9.28,6.87 l -0.69,-1.55 c 4.38,0 5.42,-2.93 5.42,-5.12 0,-4.39 -4.28,-9.13 -10.35,-9.13 h -7.27 l -0.3,-1.09 h 9.41 c 4.78,0 5.73,-3.69 5.73,-5.83 0,-4.94 -4.43,-9.76 -10.31,-9.76 h -6.78 c -0.69,0 -0.8,0 -1.09,0.04 -0.5,0.05 -0.64,0.1 -0.64,0.5 0,0.14 0,0.25 0.25,1.14 l 3.43,13.91 0.3,1.09 3.08,12.36 c 0.45,1.74 0.54,1.89 2.7,1.89 h 6.42 l 0.69,1.55 h -16.73 c -0.94,0 -1.44,0 -1.44,-1 0,-0.55 0.44,-0.55 1.39,-0.55 0.09,0 1.05,0 1.89,-0.09 0.89,-0.11 1.34,-0.16 1.34,-0.8 0,-0.2 -0.04,-0.36 -0.2,-0.95 z"
           id="path3945" /></g>    </g>
    <g
       id="g4073"
       transform="matrix(0.75606396,0,0,0.75606396,18.308488,121.75576)">
      <g
         word-spacing="normal"
         letter-spacing="normal"
         font-size-adjust="none"
         font-stretch="normal"
         font-weight="normal"
         font-variant="normal"
         font-style="normal"
         stroke-miterlimit="10.433"
         xml:space="preserve"
         transform="matrix(0.3,0,0,-0.3,-52.5,222.75)"
         id="g4071"
         style="font-style:normal;font-variant:normal;font-weight:normal;font-stretch:normal;letter-spacing:normal;word-spacing:normal;text-anchor:start;fill:none;fill-opacity:1;fill-rule:evenodd;stroke:#000000;stroke-linecap:butt;stroke-linejoin:miter;stroke-miterlimit:10.43299961;stroke-dasharray:none;stroke-dashoffset:0;stroke-opacity:1"><path
           id="path4059"
           d="m 473.8,426.12 h 4.28 c 1,0 1.5,0 1.5,1 0,0.55 -0.5,0.55 -1.34,0.55 h -4.14 l 1.04,5.69 c 0.21,1.04 0.91,4.57 1.21,5.17 0.45,0.95 1.29,1.7 2.34,1.7 0.19,0 1.49,0 2.44,-0.91 -2.19,-0.18 -2.69,-1.93 -2.69,-2.68 0,-1.14 0.89,-1.74 1.85,-1.74 1.29,0 2.73,1.1 2.73,2.99 0,2.29 -2.3,3.43 -4.33,3.43 -1.7,0 -4.84,-0.89 -6.33,-5.82 -0.29,-1.05 -0.45,-1.55 -1.64,-7.83 h -3.43 c -0.96,0 -1.5,0 -1.5,-0.94 0,-0.61 0.45,-0.61 1.39,-0.61 h 3.29 l -3.75,-19.67 c -0.89,-4.83 -1.73,-9.38 -4.33,-9.38 -0.2,0 -1.43,0 -2.39,0.91 2.3,0.14 2.74,1.94 2.74,2.69 0,1.14 -0.89,1.75 -1.85,1.75 -1.29,0 -2.73,-1.1 -2.73,-3 0,-2.24 2.19,-3.44 4.23,-3.44 2.74,0 4.74,2.94 5.63,4.84 1.59,3.14 2.75,9.16 2.8,9.52 z"
           inkscape:connector-curvature="0"
           style="fill:#000000;stroke-width:0" /><path
           id="path4061"
           d="m 511.2,432.07 h 0.06 0.05 l 0.11,0.01 h 0.12 0.06 l 0.06,0.01 h 0.06 l 0.06,0.01 0.05,0.01 0.06,0.01 0.06,0.01 0.05,0.01 0.06,0.02 0.05,0.02 0.05,0.02 0.05,0.02 0.05,0.03 0.04,0.03 0.04,0.03 0.04,0.04 0.04,0.04 0.02,0.02 0.02,0.02 0.01,0.02 0.02,0.03 0.01,0.02 0.01,0.03 0.02,0.02 0.01,0.03 0.01,0.03 0.01,0.03 0.01,0.03 v 0.03 l 0.01,0.04 v 0.03 l 0.01,0.03 v 0.04 0.04 0.04 c 0,0.86 -0.79,0.86 -1.39,0.86 h -20.76 c -0.56,0 -1.39,0 -1.39,-0.83 0,-0.88 0.79,-0.88 1.39,-0.88 z"
           inkscape:connector-curvature="0"
           style="fill:#000000;stroke-width:0" /><path
           id="path4063"
           d="m 528.03,446.36 v 0.04 0.04 0.04 0.04 0.04 0.04 0.04 0.03 l -0.01,0.04 v 0.03 0.03 0.03 0.03 l -0.01,0.03 v 0.03 0.02 l -0.01,0.03 v 0.02 l -0.01,0.02 v 0.03 l -0.02,0.04 -0.01,0.04 -0.02,0.03 -0.02,0.03 -0.02,0.03 -0.02,0.03 -0.03,0.02 -0.03,0.02 -0.03,0.01 -0.04,0.02 -0.04,0.01 -0.05,0.01 -0.02,0.01 h -0.02 l -0.03,0.01 h -0.03 -0.02 l -0.03,0.01 h -0.03 -0.03 -0.04 -0.03 l -0.03,0.01 h -0.04 -0.03 -0.04 -0.04 -0.04 -0.04 -0.05 -0.04 -0.05 c -2.23,-2.2 -5.39,-2.23 -6.82,-2.23 v -1.25 c 0.84,0 3.14,0 5.04,0.96 v -17.76 c 0,-1.16 0,-1.61 -3.48,-1.61 h -1.31 v -1.25 c 0.62,0.03 4.9,0.14 6.2,0.14 1.08,0 5.47,-0.11 6.23,-0.14 v 1.25 h -1.32 c -3.49,0 -3.49,0.45 -3.49,1.61 z"
           inkscape:connector-curvature="0"
           style="fill:#000000;stroke-width:0" /><path
           id="path4065"
           d="m 555.28,394.25 v 0.02 0.03 0.01 0.02 0.01 l -0.01,0.02 v 0.01 l -0.01,0.02 -0.01,0.02 -0.01,0.02 -0.01,0.02 -0.02,0.03 -0.01,0.02 -0.02,0.03 -0.02,0.03 -0.03,0.03 -0.02,0.03 -0.03,0.04 -0.02,0.02 -0.01,0.02 -0.02,0.02 -0.02,0.02 -0.02,0.02 -0.02,0.03 -0.02,0.02 -0.02,0.02 -0.02,0.03 -0.03,0.02 -0.02,0.03 -0.03,0.03 -0.02,0.03 -0.03,0.03 -0.03,0.03 -0.03,0.03 -0.03,0.03 -0.03,0.03 -0.04,0.04 -0.03,0.03 -0.04,0.04 -0.03,0.03 -0.04,0.04 -0.04,0.04 c -6.22,6.28 -7.81,15.69 -7.81,23.31 0,8.67 1.89,17.35 8.02,23.56 0.63,0.61 0.63,0.71 0.63,0.86 0,0.35 -0.18,0.49 -0.48,0.49 -0.5,0 -4.98,-3.38 -7.92,-9.7 -2.55,-5.49 -3.14,-11.02 -3.14,-15.21 0,-3.89 0.54,-9.9 3.28,-15.54 2.98,-6.13 7.28,-9.36 7.78,-9.36 0.3,0 0.48,0.14 0.48,0.5 z"
           inkscape:connector-curvature="0"
           style="fill:#000000;stroke-width:0" /><path
           id="path4067"
           d="m 566.09,410.09 -0.05,-0.18 -0.04,-0.17 -0.05,-0.16 -0.04,-0.15 -0.04,-0.15 -0.05,-0.13 -0.05,-0.13 -0.05,-0.12 -0.05,-0.11 -0.06,-0.11 -0.07,-0.1 -0.07,-0.09 -0.08,-0.09 -0.08,-0.07 -0.1,-0.08 -0.1,-0.06 -0.11,-0.07 -0.13,-0.05 -0.13,-0.05 -0.15,-0.05 -0.16,-0.04 -0.09,-0.02 -0.09,-0.01 -0.09,-0.02 -0.1,-0.02 -0.1,-0.01 -0.11,-0.01 -0.11,-0.01 -0.11,-0.02 -0.12,-0.01 -0.12,-0.01 h -0.12 l -0.13,-0.01 -0.14,-0.01 h -0.14 l -0.15,-0.01 h -0.15 l -0.15,-0.01 h -0.16 -0.17 -0.17 -0.17 -0.19 c -0.84,0 -1.34,0 -1.34,-1 0,-0.55 0.45,-0.55 1.34,-0.55 h 17.79 c 7.87,0 13.75,5.87 13.75,10.76 0,3.58 -2.89,6.47 -7.72,7.02 5.18,0.95 10.42,4.64 10.42,9.38 0,3.68 -3.3,6.87 -9.28,6.87 l -0.69,-1.55 c 4.38,0 5.42,-2.93 5.42,-5.12 0,-4.39 -4.28,-9.13 -10.36,-9.13 h -7.26 l -0.3,-1.09 h 9.41 c 4.78,0 5.73,-3.69 5.73,-5.83 0,-4.94 -4.44,-9.76 -10.31,-9.76 h -6.78 c -0.69,0 -0.8,0 -1.1,0.04 -0.5,0.05 -0.64,0.1 -0.64,0.5 0,0.14 0,0.25 0.25,1.14 l 3.44,13.91 0.3,1.09 3.08,12.36 c 0.45,1.74 0.54,1.89 2.7,1.89 h 6.42 l 0.69,1.55 h -16.74 c -0.93,0 -1.43,0 -1.43,-1 0,-0.55 0.43,-0.55 1.39,-0.55 0.09,0 1.04,0 1.89,-0.09 0.89,-0.11 1.34,-0.16 1.34,-0.8 0,-0.2 -0.05,-0.36 -0.2,-0.95 z"
           inkscape:connector-curvature="0"
           style="fill:#000000;stroke-width:0" /><path
           id="path4069"
           d="m 612.82,418.65 v 0.37 0.39 l -0.01,0.39 -0.01,0.41 -0.04,0.84 -0.06,0.88 -0.09,0.92 -0.1,0.95 -0.14,0.97 -0.16,1.01 -0.2,1.02 -0.23,1.03 -0.26,1.05 -0.31,1.06 -0.35,1.07 -0.39,1.07 -0.21,0.53 -0.23,0.53 -0.24,0.53 -0.25,0.53 c -2.98,6.12 -7.26,9.36 -7.76,9.36 -0.3,0 -0.5,-0.19 -0.5,-0.49 0,-0.15 0,-0.25 0.94,-1.15 4.88,-4.92 7.73,-12.85 7.73,-23.27 0,-8.51 -1.85,-17.28 -8.03,-23.56 -0.64,-0.59 -0.64,-0.7 -0.64,-0.84 0,-0.3 0.2,-0.5 0.5,-0.5 0.5,0 4.97,3.39 7.92,9.71 2.53,5.47 3.12,11 3.12,15.19 z"
           inkscape:connector-curvature="0"
           style="fill:#000000;stroke-width:0" /></g>    </g>
  </g>
</svg>
