<?xml version="1.0" encoding="UTF-8" standalone="no"?>
<!-- Created with Inkscape (http://www.inkscape.org/) -->

<svg
   xmlns:osb="http://www.openswatchbook.org/uri/2009/osb"
   xmlns:dc="http://purl.org/dc/elements/1.1/"
   xmlns:cc="http://creativecommons.org/ns#"
   xmlns:rdf="http://www.w3.org/1999/02/22-rdf-syntax-ns#"
   xmlns:svg="http://www.w3.org/2000/svg"
   xmlns="http://www.w3.org/2000/svg"
   xmlns:xlink="http://www.w3.org/1999/xlink"
   xmlns:sodipodi="http://sodipodi.sourceforge.net/DTD/sodipodi-0.dtd"
   xmlns:inkscape="http://www.inkscape.org/namespaces/inkscape"
   width="210mm"
   height="297mm"
   viewBox="0 0 210 297"
   version="1.1"
   id="svg8"
   inkscape:version="0.92.2 (5c3e80d, 2017-08-06)"
   sodipodi:docname="venn10.svg">
  <sodipodi:namedview
     id="base"
     pagecolor="#ffffff"
     bordercolor="#666666"
     borderopacity="1.0"
     inkscape:pageopacity="0.0"
     inkscape:pageshadow="2"
     inkscape:zoom="0.35"
     inkscape:cx="-691.16985"
     inkscape:cy="102.85714"
     inkscape:document-units="mm"
     inkscape:current-layer="layer1"
     showgrid="false"
     inkscape:window-width="1400"
     inkscape:window-height="1003"
     inkscape:window-x="0"
     inkscape:window-y="0"
     inkscape:window-maximized="1" />
  <defs
     id="defs2">
    <pattern
       patternTransform="matrix(1.8402398,1.5936097,-17.930486,20.705443,0,0)"
       id="pattern8397"
       xlink:href="#Strips1_8"
       inkscape:collect="always" />
    <pattern
       inkscape:collect="always"
       patternUnits="userSpaceOnUse"
       width="9"
       height="1"
       patternTransform="translate(0,0) scale(10,10)"
       id="Strips1_8"
       inkscape:stockid="Stripes 1:8"
       inkscape:isstock="true">
      <rect
         style="fill:black;stroke:none"
         x="0"
         y="-0.5"
         width="1"
         height="2"
         id="rect5333" />
    </pattern>
    <linearGradient
       osb:paint="solid"
       id="linearGradient6031">
      <stop
         id="stop6029"
         offset="0"
         style="stop-color:#000000;stop-opacity:1;" />
    </linearGradient>
  </defs>
  <metadata
     id="metadata5">
    <rdf:RDF>
      <cc:Work
         rdf:about="">
        <dc:format>image/svg+xml</dc:format>
        <dc:type
           rdf:resource="http://purl.org/dc/dcmitype/StillImage" />
        <dc:title />
      </cc:Work>
    </rdf:RDF>
  </metadata>
  <g
     id="layer1"
     inkscape:groupmode="layer"
     inkscape:label="レイヤー 1">
    <path
       inkscape:connector-curvature="0"
       id="path8386"
       transform="scale(0.26458333)"
       d="M 48.830078,363.66211 V 590.80469 817.94922 H 411.6875 774.54492 V 590.80469 363.66211 H 411.6875 Z m 462.189452,90.7832 c 41.22119,0.37187 82.23837,17.26561 109.24219,48.80469 40.15209,46.8956 47.99647,110.74556 20.32422,165.44141 -28.1078,55.55677 -94.20948,88.8395 -154.61328,77.84961 -16.70985,-3.0402 -51.27651,-17.31693 -63.15039,-26.08204 -3.73286,-2.75554 -7.69618,-1.46283 -21.42969,6.98829 -9.26692,5.70248 -24.39196,12.95148 -33.61133,16.10937 -20.0974,6.88388 -55.04547,9.4761 -74.4707,5.52344 -26.95219,-5.48426 -54.82234,-20.87511 -75.60743,-41.75391 -29.03702,-29.16797 -43.0577,-62.44446 -43.125,-102.34961 -0.10905,-64.68901 41.7824,-122.36846 102.82422,-141.57812 39.60829,-12.4646 90.65451,-5.58921 123.60157,16.64648 l 12.68554,8.5625 16.85547,-11.12109 c 23.97086,-15.81503 52.27064,-23.29546 80.47461,-23.04102 z m -0.76172,6.42774 c -29.80761,0 -62.77668,10.36332 -82.61328,25.96679 l -7.2207,5.67774 12.79687,15.71094 c 46.74646,57.39202 47.1257,134.83652 0.9336,190.33593 l -11.21289,13.47266 11.875,7.85937 c 6.53166,4.32246 20.39356,10.76238 30.80273,14.31055 25.13452,8.56759 60.80907,8.91923 86.91016,0.85742 64.58565,-19.94848 107.53823,-88.58187 96.66015,-154.45117 -6.20698,-37.58465 -25.14836,-69.33569 -54.53711,-91.41797 -25.86721,-19.43625 -52.34427,-28.32226 -84.39453,-28.32226 z m -188.57031,2.83984 c -112.84818,0.10143 -178.9483,124.27612 -116.59375,219.03125 17.11675,26.01093 42.68605,45.05623 74.58789,55.55469 12.80109,4.21267 22.71958,5.15608 46.29102,4.4082 33.36643,-1.05866 53.24896,-6.99007 74.13672,-22.12109 l 11.8789,-8.60547 -12.8789,-14.32422 c -47.30554,-52.61516 -47.9567,-135.70818 -1.50196,-191.53516 l 11.0293,-13.25586 -10.61719,-6.84961 C 374.44071,470.80345 350.08486,463.68739 321.6875,463.71289 Z m 222.13477,22.99023 c 2.72217,0.007 5.91086,0.10408 9.57421,0.28907 16.6137,0.83896 22.57896,2.28365 25.41211,6.1582 4.57391,6.2552 2.50885,15.15948 -4.68359,20.19727 -4.80062,3.36248 -4.92306,4.21037 -1.07227,7.40625 6.50706,5.40038 5.26587,13.76115 -3.21093,21.61718 -6.74733,6.25321 -10.04978,6.99811 -30.71485,6.94141 -22.36776,-0.0614 -22.94959,-0.23121 -17.11523,-5 7.86677,-6.43003 19.81832,-52.07812 13.63476,-52.07812 -2.17703,0 -3.95898,-1.42674 -3.95898,-3.16993 0,-1.60442 3.96823,-2.3837 12.13477,-2.36133 z m -258.05079,2.67383 c 1.31616,0 3.22471,8.67802 4.24219,19.28516 2.92878,30.53238 4.83935,40.71484 7.63867,40.71484 1.4333,0 2.60547,1.10966 2.60547,2.4668 0,1.35714 -5.14202,2.46875 -11.42773,2.46875 -6.28572,0 -11.42774,-1.11161 -11.42774,-2.46875 0,-1.35714 1.28404,-2.4668 2.85547,-2.4668 1.57143,0 2.85742,-3.85797 2.85742,-8.57226 0,-7.88033 -0.80043,-8.57031 -9.93359,-8.57031 -7.53105,0 -11.10428,1.78687 -14.77344,7.38671 -4.12024,6.28828 -4.23735,7.76762 -0.78125,9.95508 2.23289,1.41326 3.41657,2.73141 2.63086,2.92774 -6.01827,1.50388 -20,1.56076 -20,0.082 0,-1.00954 2.33084,-3.28849 5.17774,-5.06641 2.84689,-1.77791 12.54757,-15.58741 21.55859,-30.6875 9.01102,-15.10008 17.46117,-27.45508 18.77734,-27.45508 z"
       style="fill:url(#pattern8397);fill-opacity:1;stroke:none;stroke-width:12.19167614;stroke-miterlimit:4;stroke-dasharray:none;stroke-opacity:1" />
    <circle
       style="fill:none;fill-opacity:1;stroke:#000000;stroke-width:1.16499996;stroke-miterlimit:4;stroke-dasharray:none;stroke-opacity:1"
       r="38.175598"
       cy="159.79463"
       cx="85.04464"
       id="path10" />
    <circle
       id="circle4508"
       cx="134.9375"
       cy="159.03868"
       r="38.175598"
       style="fill:none;fill-opacity:1;stroke:#000000;stroke-width:1.16499996;stroke-miterlimit:4;stroke-dasharray:none;stroke-opacity:1" />
    <circle
       r="14.644452"
       cy="144.01624"
       cx="76.093018"
       id="path8399"
       style="fill:#ffffff;fill-opacity:1;stroke:none;stroke-width:1.12899995;stroke-miterlimit:4;stroke-dasharray:none;stroke-opacity:1" />
    <g
       transform="matrix(1.5651452,0,0,1.5651452,-65.319559,-8.4853509)"
       id="g4518">
      <g
         style="font-style:normal;font-variant:normal;font-weight:normal;font-stretch:normal;letter-spacing:normal;word-spacing:normal;text-anchor:start;fill:none;fill-opacity:1;fill-rule:evenodd;stroke:#000000;stroke-linecap:butt;stroke-linejoin:miter;stroke-miterlimit:10.43299961;stroke-dasharray:none;stroke-dashoffset:0;stroke-opacity:1"
         word-spacing="normal"
         letter-spacing="normal"
         font-size-adjust="none"
         font-stretch="normal"
         font-weight="normal"
         font-variant="normal"
         font-style="normal"
         stroke-miterlimit="10.433"
         xml:space="preserve"
         transform="matrix(0.3,0,0,-0.3,-52.5,222.75)"
         id="content"><path
           style="fill:#000000;stroke-width:0"
           inkscape:connector-curvature="0"
           id="path4515"
           d="m 464.44,411.93 -0.19,-0.3 -0.18,-0.29 -0.19,-0.28 -0.19,-0.26 -0.18,-0.25 -0.19,-0.23 -0.19,-0.22 -0.18,-0.21 -0.19,-0.2 -0.19,-0.18 -0.18,-0.17 -0.19,-0.16 -0.19,-0.15 -0.18,-0.14 -0.19,-0.13 -0.19,-0.12 -0.19,-0.11 -0.19,-0.1 -0.19,-0.09 -0.19,-0.09 -0.19,-0.07 -0.2,-0.07 -0.19,-0.07 -0.2,-0.05 -0.19,-0.05 -0.2,-0.04 -0.2,-0.04 -0.19,-0.03 -0.41,-0.05 -0.4,-0.03 c -0.61,-0.05 -1.05,-0.05 -1.05,-1 0,-0.3 0.25,-0.55 0.64,-0.55 1.34,0 2.89,0.16 4.28,0.16 1.64,0 3.39,-0.16 4.99,-0.16 0.29,0 0.95,0 0.95,0.95 0,0.55 -0.45,0.6 -0.8,0.6 -1.15,0.09 -2.34,0.5 -2.34,1.73 0,0.61 0.3,1.16 0.69,1.84 l 3.79,6.39 h 12.5 l -0.14,1.54 h -11.42 l 9.83,16.45 1.59,-16.45 0.14,-1.54 c 0.11,-1.04 0.8,-7.82 0.8,-8.32 0,-1.5 -2.59,-1.64 -3.58,-1.64 -0.7,0 -1.2,0 -1.2,-1 0,-0.55 0.59,-0.55 0.7,-0.55 2.03,0 4.19,0.16 6.22,0.16 1.25,0 4.39,-0.16 5.64,-0.16 0.3,0 0.89,0 0.89,1 0,0.55 -0.5,0.55 -1.14,0.55 -3.09,0 -3.09,0.34 -3.25,1.79 l -3.03,31.13 c -0.11,1 -0.11,1.2 -0.95,1.2 -0.8,0 -0.99,-0.34 -1.3,-0.84 z" /></g>    </g>
    <circle
       style="fill:#fcfcfc;fill-opacity:1;stroke:none;stroke-width:1.12899995;stroke-miterlimit:4;stroke-dasharray:none;stroke-opacity:1"
       id="circle8403"
       cx="144.88467"
       cy="140.99243"
       r="14.644452" />
    <g
       transform="matrix(1.5665747,0,0,1.5665747,3.7067409,-9.5980853)"
       id="g4542">
      <g
         style="font-style:normal;font-variant:normal;font-weight:normal;font-stretch:normal;letter-spacing:normal;word-spacing:normal;text-anchor:start;fill:none;fill-opacity:1;fill-rule:evenodd;stroke:#000000;stroke-linecap:butt;stroke-linejoin:miter;stroke-miterlimit:10.43299961;stroke-dasharray:none;stroke-dashoffset:0;stroke-opacity:1"
         id="g4540"
         transform="matrix(0.3,0,0,-0.3,-52.5,222.75)"
         xml:space="preserve"
         stroke-miterlimit="10.433"
         font-style="normal"
         font-variant="normal"
         font-weight="normal"
         font-stretch="normal"
         font-size-adjust="none"
         letter-spacing="normal"
         word-spacing="normal"><path
           style="fill:#000000;stroke-width:0"
           inkscape:connector-curvature="0"
           d="m 463.49,410.09 -0.05,-0.18 -0.04,-0.17 -0.05,-0.16 -0.04,-0.15 -0.04,-0.15 -0.05,-0.13 -0.05,-0.13 -0.05,-0.12 -0.05,-0.11 -0.06,-0.11 -0.07,-0.1 -0.07,-0.09 -0.07,-0.09 -0.09,-0.07 -0.09,-0.08 -0.11,-0.06 -0.11,-0.07 -0.13,-0.05 -0.13,-0.05 -0.15,-0.05 -0.16,-0.04 -0.09,-0.02 -0.09,-0.01 -0.09,-0.02 -0.1,-0.02 -0.1,-0.01 -0.1,-0.01 -0.11,-0.01 -0.12,-0.02 -0.11,-0.01 -0.13,-0.01 h -0.12 l -0.13,-0.01 -0.14,-0.01 h -0.14 l -0.14,-0.01 h -0.15 l -0.16,-0.01 h -0.16 -0.16 -0.17 -0.18 -0.18 c -0.85,0 -1.35,0 -1.35,-1 0,-0.55 0.46,-0.55 1.35,-0.55 h 17.78 c 7.87,0 13.75,5.87 13.75,10.76 0,3.58 -2.89,6.47 -7.72,7.02 5.19,0.95 10.42,4.64 10.42,9.38 0,3.68 -3.3,6.87 -9.28,6.87 l -0.69,-1.55 c 4.38,0 5.42,-2.93 5.42,-5.12 0,-4.39 -4.28,-9.13 -10.35,-9.13 h -7.27 l -0.3,-1.09 h 9.41 c 4.78,0 5.73,-3.69 5.73,-5.83 0,-4.94 -4.43,-9.76 -10.31,-9.76 h -6.78 c -0.69,0 -0.8,0 -1.09,0.04 -0.5,0.05 -0.64,0.1 -0.64,0.5 0,0.14 0,0.25 0.25,1.14 l 3.43,13.91 0.3,1.09 3.08,12.36 c 0.45,1.74 0.54,1.89 2.7,1.89 h 6.42 l 0.69,1.55 h -16.73 c -0.94,0 -1.44,0 -1.44,-1 0,-0.55 0.44,-0.55 1.39,-0.55 0.09,0 1.05,0 1.89,-0.09 0.89,-0.11 1.34,-0.16 1.34,-0.8 0,-0.2 -0.04,-0.36 -0.2,-0.95 z"
           id="path4538" /></g>    </g>
    <rect
       y="95.160713"
       x="12.095239"
       height="122.46429"
       width="194.27975"
       id="rect6891"
       style="fill:none;fill-opacity:1;stroke:#000000;stroke-width:1.665;stroke-miterlimit:4;stroke-dasharray:none;stroke-opacity:1" />
    <g
       id="g6911"
       transform="matrix(1.8759587,0,0,1.8759587,-105.58894,-99.843517)">
      <g
         word-spacing="normal"
         letter-spacing="normal"
         font-size-adjust="none"
         font-stretch="normal"
         font-weight="normal"
         font-variant="normal"
         font-style="normal"
         stroke-miterlimit="10.433"
         xml:space="preserve"
         transform="matrix(0.3,0,0,-0.3,-52.5,222.75)"
         id="g6909"
         style="font-style:normal;font-variant:normal;font-weight:normal;font-stretch:normal;letter-spacing:normal;word-spacing:normal;text-anchor:start;fill:none;fill-opacity:1;fill-rule:evenodd;stroke:#000000;stroke-linecap:butt;stroke-linejoin:miter;stroke-miterlimit:10.43299961;stroke-dasharray:none;stroke-dashoffset:0;stroke-opacity:1"><path
           id="path6907"
           d="m 487.16,435 0.1,0.37 0.05,0.19 0.06,0.18 0.06,0.17 0.07,0.17 0.07,0.17 0.08,0.16 0.08,0.16 0.1,0.16 0.09,0.15 0.11,0.14 0.11,0.14 0.13,0.14 0.13,0.12 0.14,0.13 0.15,0.12 0.17,0.11 0.17,0.11 0.19,0.1 0.19,0.09 0.21,0.09 0.23,0.08 0.23,0.08 0.26,0.07 0.26,0.06 0.28,0.06 0.3,0.04 0.31,0.05 0.33,0.03 0.35,0.03 0.18,0.01 h 0.19 c 0.25,0 0.84,0.05 0.84,1 0,0.05 0,0.55 -0.64,0.55 -1.64,0 -3.39,-0.16 -5.08,-0.16 -1.7,0 -3.55,0.16 -5.19,0.16 -0.29,0 -0.89,0 -0.89,-1 0,-0.55 0.5,-0.55 0.89,-0.55 2.85,-0.04 3.39,-1.09 3.39,-2.18 0,-0.16 -0.11,-0.91 -0.15,-1.05 l -4.49,-17.8 c -1.68,-6.67 -7.42,-11 -12.4,-11 -3.38,0 -6.08,2.19 -6.08,6.47 0,0.11 0,1.7 0.55,3.89 l 4.84,19.38 c 0.44,1.79 0.55,2.29 4.19,2.29 1.28,0 1.68,0 1.68,1 0,0.55 -0.54,0.55 -0.7,0.55 -1.39,0 -4.98,-0.16 -6.37,-0.16 -1.44,0 -4.99,0.16 -6.43,0.16 -0.4,0 -0.95,0 -0.95,-1 0,-0.55 0.45,-0.55 1.41,-0.55 0.09,0 1.04,0 1.89,-0.09 0.89,-0.11 1.34,-0.16 1.34,-0.8 0,-0.31 -0.55,-2.39 -0.84,-3.54 l -1.11,-4.38 c -0.44,-1.95 -2.83,-11.36 -3.03,-12.31 -0.35,-1.39 -0.35,-2.14 -0.35,-2.89 0,-6.08 4.53,-9.56 9.77,-9.56 6.26,0 12.45,5.62 14.09,12.2 z"
           inkscape:connector-curvature="0"
           style="fill:#000000;stroke-width:0" /></g>    </g>
  </g>
</svg>
