<?xml version="1.0" encoding="UTF-8" standalone="no"?>
<!-- Created with Inkscape (http://www.inkscape.org/) -->

<svg
   xmlns:dc="http://purl.org/dc/elements/1.1/"
   xmlns:cc="http://creativecommons.org/ns#"
   xmlns:rdf="http://www.w3.org/1999/02/22-rdf-syntax-ns#"
   xmlns:svg="http://www.w3.org/2000/svg"
   xmlns="http://www.w3.org/2000/svg"
   xmlns:sodipodi="http://sodipodi.sourceforge.net/DTD/sodipodi-0.dtd"
   xmlns:inkscape="http://www.inkscape.org/namespaces/inkscape"
   width="210mm"
   height="297mm"
   viewBox="0 0 210 297"
   version="1.1"
   id="svg8"
   inkscape:version="0.92.2 (5c3e80d, 2017-08-06)"
   sodipodi:docname="cutrational1.svg">
  <sodipodi:namedview
     id="base"
     pagecolor="#ffffff"
     bordercolor="#666666"
     borderopacity="1.0"
     inkscape:pageopacity="0.0"
     inkscape:pageshadow="2"
     inkscape:zoom="0.81454783"
     inkscape:cx="281.89005"
     inkscape:cy="560"
     inkscape:document-units="mm"
     inkscape:current-layer="layer1"
     showgrid="false"
     inkscape:window-width="1400"
     inkscape:window-height="1003"
     inkscape:window-x="0"
     inkscape:window-y="0"
     inkscape:window-maximized="1" />
  <defs
     id="defs2">
    <marker
       inkscape:stockid="Arrow1Lend"
       orient="auto"
       refY="0.0"
       refX="0.0"
       id="Arrow1Lend"
       style="overflow:visible;"
       inkscape:isstock="true">
      <path
         id="path838"
         d="M 0.0,0.0 L 5.0,-5.0 L -12.5,0.0 L 5.0,5.0 L 0.0,0.0 z "
         style="fill-rule:evenodd;stroke:#000000;stroke-width:1pt;stroke-opacity:1;fill:#000000;fill-opacity:1"
         transform="scale(0.8) rotate(180) translate(12.5,0)" />
    </marker>
  </defs>
  <metadata
     id="metadata5">
    <rdf:RDF>
      <cc:Work
         rdf:about="">
        <dc:format>image/svg+xml</dc:format>
        <dc:type
           rdf:resource="http://purl.org/dc/dcmitype/StillImage" />
        <dc:title />
      </cc:Work>
    </rdf:RDF>
  </metadata>
  <g
     id="layer1"
     inkscape:groupmode="layer"
     inkscape:label="レイヤー 1">
    <path
       inkscape:connector-curvature="0"
       id="path815"
       d="M 9.1292864,120.10714 H 203.05977"
       style="fill:none;stroke:#000000;stroke-width:0.6155799;stroke-linecap:butt;stroke-linejoin:miter;stroke-miterlimit:0;stroke-dasharray:none;stroke-opacity:1;marker-end:url(#Arrow1Lend)" />
    <g
       id="g824"
       transform="translate(106.54173,36.212368)">
      <g
         word-spacing="normal"
         letter-spacing="normal"
         font-size-adjust="none"
         font-stretch="normal"
         font-weight="normal"
         font-variant="normal"
         font-style="normal"
         stroke-miterlimit="10.433"
         xml:space="preserve"
         transform="matrix(0.3,0,0,-0.3,-52.5,222.75)"
         id="content"
         style="font-style:normal;font-variant:normal;font-weight:normal;font-stretch:normal;letter-spacing:normal;word-spacing:normal;text-anchor:start;fill:none;fill-opacity:1;fill-rule:evenodd;stroke:#000000;stroke-linecap:butt;stroke-linejoin:miter;stroke-miterlimit:10.43299961;stroke-dasharray:none;stroke-dashoffset:0;stroke-opacity:1"><path
           id="path821"
           d="m 479.33,405.75 0.66,0.14 0.65,0.18 0.64,0.19 0.64,0.23 0.63,0.24 0.62,0.27 0.61,0.3 0.6,0.32 0.58,0.35 0.57,0.37 0.56,0.4 0.54,0.42 0.52,0.45 0.51,0.47 0.49,0.51 0.47,0.52 0.45,0.56 0.42,0.58 0.41,0.6 0.38,0.64 0.35,0.66 0.33,0.69 0.3,0.71 0.28,0.74 0.25,0.77 0.21,0.8 0.19,0.82 0.16,0.86 0.12,0.88 0.09,0.91 0.05,0.93 0.02,0.97 -1.74,0.06 c 0,-10.17 -6.17,-13.86 -9.17,-15 3.1,3.64 3.89,9.47 3.89,14.94 0,4.89 -0.59,11.13 -3.84,14.91 l 0.06,0.04 c 3.33,-1.25 9.06,-5.23 9.06,-14.89 l 1.74,-0.06 c 0,12.56 -8.81,18.05 -17.74,18.05 v -1.75 c 8.08,0 8.97,-10.57 8.97,-16.24 0,-5.98 -0.98,-16.29 -8.97,-16.29 v -1.75 c 0.25,0 1.3,0 2.71,0.15 1.34,-3.14 3.67,-5.03 6.17,-6.03 0.5,-0.2 0.55,-0.2 0.55,-0.25 0,-0.09 -0.89,-0.09 -1.55,-0.09 -4.23,0 -8.56,1.98 -11.16,6.47 v 0 c 1.39,-0.25 3.24,-0.25 3.28,-0.25 v 1.75 0 c -8.06,0 -8.96,10.56 -8.96,16.23 l -1.74,0.06 c 0,-4.89 0.6,-11.11 3.89,-15 -3.44,1.3 -9.17,5.28 -9.17,14.94 0,10.17 6.17,13.86 9.06,14.95 l 0.05,-0.04 c -3.03,-3.55 -3.83,-9.38 -3.83,-14.85 l 1.74,-0.06 c 0,5.98 1,16.3 8.96,16.3 v 1.75 c -9.1,0 -17.73,-5.74 -17.73,-17.99 0,-10.67 6.38,-15.75 12.27,-17.29 2.23,-5.13 7.17,-8.72 13.34,-8.72 2.5,0 5.23,0.5 7.83,1.5 0.89,0.34 1.39,0.54 1.39,1.14 0,0.61 -0.45,0.9 -0.85,0.9 -0.1,0 -0.15,0 -0.5,-0.11 -1.39,-0.34 -1.93,-0.34 -2.73,-0.34 -4.59,0 -7.44,2.89 -8.58,5.38 z"
           inkscape:connector-curvature="0"
           style="fill:#000000;stroke-width:0" /></g>    </g>
    <path
       style="fill:none;stroke:#000000;stroke-width:0.365;stroke-linecap:butt;stroke-linejoin:miter;stroke-opacity:1;stroke-miterlimit:4;stroke-dasharray:none"
       d="m 101.01975,119.97181 -4.765104,-17.7836 H 12.992894"
       id="path1159"
       inkscape:connector-curvature="0" />
    <path
       inkscape:connector-curvature="0"
       id="path1161"
       d="m 104.18592,119.97181 4.76513,-17.7836 h 83.26222"
       style="fill:none;stroke:#000000;stroke-width:0.36500001;stroke-linecap:butt;stroke-linejoin:miter;stroke-miterlimit:4;stroke-dasharray:none;stroke-opacity:1" />
    <path
       style="fill:#ffffff;fill-opacity:1;stroke:#000000;stroke-width:0.23800117;stroke-miterlimit:4;stroke-dasharray:none;stroke-dashoffset:0;stroke-opacity:1"
       id="path1188"
       sodipodi:type="arc"
       sodipodi:cx="100.8221"
       sodipodi:cy="120.15337"
       sodipodi:rx="2.0121284"
       sodipodi:ry="2.0121284"
       sodipodi:start="5.374148"
       sodipodi:end="5.3552461"
       sodipodi:open="true"
       d="m 102.05856,118.56598 a 2.0121284,2.0121284 0 0 1 0.35676,2.81634 2.0121284,2.0121284 0 0 1 -2.814629,0.37006 2.0121284,2.0121284 0 0 1 -0.383355,-2.81284 2.0121284,2.0121284 0 0 1 2.811004,-0.39665" />
    <g
       transform="translate(-60.416955,-2.2737564)"
       id="g1209">
      <g
         style="font-style:normal;font-variant:normal;font-weight:normal;font-stretch:normal;letter-spacing:normal;word-spacing:normal;text-anchor:start;fill:none;fill-opacity:1;fill-rule:evenodd;stroke:#000000;stroke-linecap:butt;stroke-linejoin:miter;stroke-miterlimit:10.43299961;stroke-dasharray:none;stroke-dashoffset:0;stroke-opacity:1"
         id="g1207"
         transform="matrix(0.3,0,0,-0.3,-52.5,222.75)"
         xml:space="preserve"
         stroke-miterlimit="10.433"
         font-style="normal"
         font-variant="normal"
         font-weight="normal"
         font-stretch="normal"
         font-size-adjust="none"
         letter-spacing="normal"
         word-spacing="normal"><path
           style="fill:#000000;stroke-width:0"
           inkscape:connector-curvature="0"
           d="m 464.44,411.93 -0.19,-0.3 -0.18,-0.29 -0.19,-0.28 -0.19,-0.26 -0.18,-0.25 -0.19,-0.23 -0.19,-0.22 -0.18,-0.21 -0.19,-0.2 -0.19,-0.18 -0.18,-0.17 -0.19,-0.16 -0.19,-0.15 -0.18,-0.14 -0.19,-0.13 -0.19,-0.12 -0.19,-0.11 -0.19,-0.1 -0.19,-0.09 -0.19,-0.09 -0.19,-0.07 -0.2,-0.07 -0.19,-0.07 -0.2,-0.05 -0.19,-0.05 -0.2,-0.04 -0.2,-0.04 -0.19,-0.03 -0.41,-0.05 -0.4,-0.03 c -0.61,-0.05 -1.05,-0.05 -1.05,-1 0,-0.3 0.25,-0.55 0.64,-0.55 1.34,0 2.89,0.16 4.28,0.16 1.64,0 3.39,-0.16 4.99,-0.16 0.29,0 0.95,0 0.95,0.95 0,0.55 -0.45,0.6 -0.8,0.6 -1.15,0.09 -2.34,0.5 -2.34,1.73 0,0.61 0.3,1.16 0.69,1.84 l 3.79,6.39 h 12.5 l -0.14,1.54 h -11.42 l 9.83,16.45 1.59,-16.45 0.14,-1.54 c 0.11,-1.04 0.8,-7.82 0.8,-8.32 0,-1.5 -2.59,-1.64 -3.58,-1.64 -0.7,0 -1.2,0 -1.2,-1 0,-0.55 0.59,-0.55 0.7,-0.55 2.03,0 4.19,0.16 6.22,0.16 1.25,0 4.39,-0.16 5.64,-0.16 0.3,0 0.89,0 0.89,1 0,0.55 -0.5,0.55 -1.14,0.55 -3.09,0 -3.09,0.34 -3.25,1.79 l -3.03,31.13 c -0.11,1 -0.11,1.2 -0.95,1.2 -0.8,0 -0.99,-0.34 -1.3,-0.84 z"
           id="path1205" /></g>    </g>
    <g
       id="g1249"
       transform="translate(90.950255,-2.5985787)">
      <g
         word-spacing="normal"
         letter-spacing="normal"
         font-size-adjust="none"
         font-stretch="normal"
         font-weight="normal"
         font-variant="normal"
         font-style="normal"
         stroke-miterlimit="10.433"
         xml:space="preserve"
         transform="matrix(0.3,0,0,-0.3,-52.5,222.75)"
         id="g1247"
         style="font-style:normal;font-variant:normal;font-weight:normal;font-stretch:normal;letter-spacing:normal;word-spacing:normal;text-anchor:start;fill:none;fill-opacity:1;fill-rule:evenodd;stroke:#000000;stroke-linecap:butt;stroke-linejoin:miter;stroke-miterlimit:10.43299961;stroke-dasharray:none;stroke-dashoffset:0;stroke-opacity:1"><path
           id="path1245"
           d="m 463.49,410.09 -0.05,-0.18 -0.04,-0.17 -0.05,-0.16 -0.04,-0.15 -0.04,-0.15 -0.05,-0.13 -0.05,-0.13 -0.05,-0.12 -0.05,-0.11 -0.06,-0.11 -0.07,-0.1 -0.07,-0.09 -0.07,-0.09 -0.09,-0.07 -0.09,-0.08 -0.11,-0.06 -0.11,-0.07 -0.13,-0.05 -0.13,-0.05 -0.15,-0.05 -0.16,-0.04 -0.09,-0.02 -0.09,-0.01 -0.09,-0.02 -0.1,-0.02 -0.1,-0.01 -0.1,-0.01 -0.11,-0.01 -0.12,-0.02 -0.11,-0.01 -0.13,-0.01 h -0.12 l -0.13,-0.01 -0.14,-0.01 h -0.14 l -0.14,-0.01 h -0.15 l -0.16,-0.01 h -0.16 -0.16 -0.17 -0.18 -0.18 c -0.85,0 -1.35,0 -1.35,-1 0,-0.55 0.46,-0.55 1.35,-0.55 h 17.78 c 7.87,0 13.75,5.87 13.75,10.76 0,3.58 -2.89,6.47 -7.72,7.02 5.19,0.95 10.42,4.64 10.42,9.38 0,3.68 -3.3,6.87 -9.28,6.87 l -0.69,-1.55 c 4.38,0 5.42,-2.93 5.42,-5.12 0,-4.39 -4.28,-9.13 -10.35,-9.13 h -7.27 l -0.3,-1.09 h 9.41 c 4.78,0 5.73,-3.69 5.73,-5.83 0,-4.94 -4.43,-9.76 -10.31,-9.76 h -6.78 c -0.69,0 -0.8,0 -1.09,0.04 -0.5,0.05 -0.64,0.1 -0.64,0.5 0,0.14 0,0.25 0.25,1.14 l 3.43,13.91 0.3,1.09 3.08,12.36 c 0.45,1.74 0.54,1.89 2.7,1.89 h 6.42 l 0.69,1.55 h -16.73 c -0.94,0 -1.44,0 -1.44,-1 0,-0.55 0.44,-0.55 1.39,-0.55 0.09,0 1.05,0 1.89,-0.09 0.89,-0.11 1.34,-0.16 1.34,-0.8 0,-0.2 -0.04,-0.36 -0.2,-0.95 z"
           inkscape:connector-curvature="0"
           style="fill:#000000;stroke-width:0" /></g>    </g>
    <path
       d="m 105.76272,118.56598 a 2.0121284,2.0121284 0 0 1 0.35675,2.81634 2.0121284,2.0121284 0 0 1 -2.81462,0.37006 2.0121284,2.0121284 0 0 1 -0.38336,-2.81284 2.0121284,2.0121284 0 0 1 2.811,-0.39665"
       sodipodi:open="true"
       sodipodi:end="5.3552461"
       sodipodi:start="5.374148"
       sodipodi:ry="2.0121284"
       sodipodi:rx="2.0121284"
       sodipodi:cy="120.15337"
       sodipodi:cx="104.52625"
       sodipodi:type="arc"
       id="path834"
       style="fill:#ffffff;fill-opacity:1;stroke:#000000;stroke-width:0.23800117;stroke-miterlimit:4;stroke-dasharray:none;stroke-dashoffset:0;stroke-opacity:1" />
  </g>
</svg>
